<mxfile host="app.diagrams.net" agent="Mozilla/5.0 (Windows NT 10.0; Win64; x64) AppleWebKit/537.36 (KHTML, like Gecko) Chrome/141.0.0.0 Safari/537.36" version="28.2.5">
  <diagram name="ページ1" id="xxQUJFnR9gf616ruouBs">
    <mxGraphModel dx="984" dy="1716" grid="1" gridSize="10" guides="1" tooltips="1" connect="1" arrows="1" fold="1" page="1" pageScale="1" pageWidth="827" pageHeight="1169" math="0" shadow="0">
      <root>
        <mxCell id="0" />
        <mxCell id="1" parent="0" />
        <mxCell id="d06oNdfRbxV0elXt2FFt-1" value="" style="shape=image;verticalLabelPosition=bottom;labelBackgroundColor=default;verticalAlign=top;aspect=fixed;imageAspect=0;editableCssRules=.*;image=data:image/svg+xml,PHN2ZyB4bWxuczp4bGluaz0iaHR0cDovL3d3dy53My5vcmcvMTk5OS94bGluayIgeG1sbnM9Imh0dHA6Ly93d3cudzMub3JnLzIwMDAvc3ZnIiBvdmVyZmxvdz0iaGlkZGVuIiB4bWw6c3BhY2U9InByZXNlcnZlIiBoZWlnaHQ9IjI0Mi41MjIwMDMxNzM4MjgxMiIgd2lkdGg9IjI3NC44ODAyNzk1NDEwMTU2IiB2aWV3Qm94PSIxMi4zNjc3MDA1NzY3ODIyMjcgNyAyNzQuODgwMjc5NTQxMDE1NiAyNDIuNTIyMDAzMTczODI4MTIiPjxnIHRyYW5zZm9ybT0idHJhbnNsYXRlKC01IC0yNDEpIj48cGF0aCB0cmFuc2Zvcm09Im1hdHJpeCgxIDAgMCAtMSAyNTQgNDI3LjcxNikiIGZpbGwtcnVsZT0iZXZlbm9kZCIgZmlsbD0ibm9uZSIgc3Ryb2tlLW1pdGVybGltaXQ9IjgiIHN0cm9rZS13aWR0aD0iMiIgc3Ryb2tlPSIjMDAwMDAwIiBkPSJNMCAwIDAuNTU5Njg1IDYyLjcxNTkiLz48cGF0aCBmaWxsLXJ1bGU9ImV2ZW5vZGQiIGZpbGw9IiNGRkZGRkYiIHN0cm9rZS1taXRlcmxpbWl0PSI4IiBzdHJva2Utd2lkdGg9IjIiIHN0cm9rZT0iIzAwMDAwMCIgZD0iTTI1MCAzMTguNUMyNTAgMzE2LjAxNSAyNTIuMDE1IDMxNCAyNTQuNSAzMTQgMjU2Ljk4NSAzMTQgMjU5IDMxNi4wMTUgMjU5IDMxOC41IDI1OSAzMjAuOTg1IDI1Ni45ODUgMzIzIDI1NC41IDMyMyAyNTIuMDE1IDMyMyAyNTAgMzIwLjk4NSAyNTAgMzE4LjVaIi8+PHBhdGggdHJhbnNmb3JtPSJtYXRyaXgoMSAwIDAgLTEgMjU0IDMxMy41KSIgZmlsbC1ydWxlPSJldmVub2RkIiBmaWxsPSJub25lIiBzdHJva2UtbWl0ZXJsaW1pdD0iOCIgc3Ryb2tlLXdpZHRoPSIyIiBzdHJva2U9IiMwMDAwMDAiIGQ9Ik0wIDAgMC4wMDAxMDQ5ODcgNTEuNTAwNSIvPjxwYXRoIHRyYW5zZm9ybT0ibWF0cml4KDEgMCAwIC0xIDI4MSAzNjkuNTIyKSIgZmlsbC1ydWxlPSJldmVub2RkIiBmaWxsPSJub25lIiBzdHJva2UtbWl0ZXJsaW1pdD0iOCIgc3Ryb2tlLXdpZHRoPSI4IiBzdHJva2U9IiMwMDAwMDAiIGQ9Ik0wIDAgMC4wMDAxMDQ5ODcgNjQuNTIyMSIvPjxwYXRoIGZpbGwtcnVsZT0iZXZlbm9kZCIgZmlsbD0ibm9uZSIgc3Ryb2tlLW1pdGVybGltaXQ9IjgiIHN0cm9rZS13aWR0aD0iMiIgc3Ryb2tlPSIjMDAwMDAwIiBkPSJNODggMzk2IDE2Ni4xNzggMzk2Ii8+PHBhdGggdHJhbnNmb3JtPSJtYXRyaXgoLTEgMCAwIDEgMjg4LjI0OCAyNjIpIiBmaWxsLXJ1bGU9ImV2ZW5vZGQiIGZpbGw9Im5vbmUiIHN0cm9rZS1taXRlcmxpbWl0PSI4IiBzdHJva2Utd2lkdGg9IjIiIHN0cm9rZT0iIzAwMDAwMCIgZD0iTTAgMCA3Mi4yNDgyIDAuMDAwMTA0OTg3Ii8+PHRleHQgdHJhbnNmb3JtPSJ0cmFuc2xhdGUoMTMxLjQ1NSAyNzYpIiBmb250LXNpemU9IjI3IiBmb250LXdlaWdodD0iNDAwIiBmb250LWZhbWlseT0iVUQgRGlnaSBLeW9rYXNobyBOUCxVRCBEaWdpIEt5b2thc2hvIE5QX01TRm9udFNlcnZpY2Usc2Fucy1zZXJpZiI+VjwvdGV4dD48dGV4dCB0cmFuc2Zvcm09InRyYW5zbGF0ZSgxNDkuNjIxIDI3NikiIGZvbnQtc2l6ZT0iMjciIGZvbnQtd2VpZ2h0PSI0MDAiIGZvbnQtZmFtaWx5PSJDYW1icmlhIE1hdGgsQ2FtYnJpYSBNYXRoX01TRm9udFNlcnZpY2Usc2Fucy1zZXJpZiI+4oKAPC90ZXh0Pjx0ZXh0IHRyYW5zZm9ybT0idHJhbnNsYXRlKDE2OC40NTUgMjc2KSIgZm9udC1zaXplPSIyNyIgZm9udC13ZWlnaHQ9IjQwMCIgZm9udC1mYW1pbHk9IlVEIERpZ2kgS3lva2FzaG8gTlAsVUQgRGlnaSBLeW9rYXNobyBOUF9NU0ZvbnRTZXJ2aWNlLHNhbnMtc2VyaWYiPltWXTwvdGV4dD48dGV4dCB0cmFuc2Zvcm09InRyYW5zbGF0ZSgyMS4zNjc3IDM0MCkiIGZvbnQtc2l6ZT0iMjciIGZvbnQtd2VpZ2h0PSI0MDAiIGZvbnQtZmFtaWx5PSJVRCBEaWdpIEt5b2thc2hvIE5QLFVEIERpZ2kgS3lva2FzaG8gTlBfTVNGb250U2VydmljZSxzYW5zLXNlcmlmIj7lhaXlips8L3RleHQ+PHRleHQgdHJhbnNmb3JtPSJ0cmFuc2xhdGUoNzQuNzAxIDM0MCkiIGZvbnQtc2l6ZT0iMjciIGZvbnQtd2VpZ2h0PSI0MDAiIGZvbnQtZmFtaWx5PSJVRCBEaWdpIEt5b2thc2hvIE5QLFVEIERpZ2kgS3lva2FzaG8gTlBfTVNGb250U2VydmljZSxzYW5zLXNlcmlmIj4xPC90ZXh0Pjx0ZXh0IHRyYW5zZm9ybT0idHJhbnNsYXRlKDIxLjM2NzcgMzY4KSIgZm9udC1zaXplPSIyNyIgZm9udC13ZWlnaHQ9IjQwMCIgZm9udC1mYW1pbHk9IlVEIERpZ2kgS3lva2FzaG8gTlAsVUQgRGlnaSBLeW9rYXNobyBOUF9NU0ZvbnRTZXJ2aWNlLHNhbnMtc2VyaWYiPlY8L3RleHQ+PHRleHQgdHJhbnNmb3JtPSJ0cmFuc2xhdGUoMzkuNTM0MyAzNjgpIiBmb250LXNpemU9IjE2IiBmb250LXdlaWdodD0iNDAwIiBmb250LWZhbWlseT0iVUQgRGlnaSBLeW9rYXNobyBOUCxVRCBEaWdpIEt5b2thc2hvIE5QX01TRm9udFNlcnZpY2Usc2Fucy1zZXJpZiI+aW48L3RleHQ+PHRleHQgdHJhbnNmb3JtPSJ0cmFuc2xhdGUoNTMuNTM0MyAzNjgpIiBmb250LXNpemU9IjI3IiBmb250LXdlaWdodD0iNDAwIiBmb250LWZhbWlseT0iVUQgRGlnaSBLeW9rYXNobyBOUCxVRCBEaWdpIEt5b2thc2hvIE5QX01TRm9udFNlcnZpY2Usc2Fucy1zZXJpZiI+PVY8L3RleHQ+PHRleHQgdHJhbnNmb3JtPSJ0cmFuc2xhdGUoOTIuMDM0MyAzNjgpIiBmb250LXNpemU9IjI3IiBmb250LXdlaWdodD0iNDAwIiBmb250LWZhbWlseT0iQ2FtYnJpYSBNYXRoLENhbWJyaWEgTWF0aF9NU0ZvbnRTZXJ2aWNlLHNhbnMtc2VyaWYiPuKCgDwvdGV4dD48dGV4dCB0cmFuc2Zvcm09InRyYW5zbGF0ZSgxMDIuODY4IDM2OCkiIGZvbnQtc2l6ZT0iMjciIGZvbnQtd2VpZ2h0PSI0MDAiIGZvbnQtZmFtaWx5PSJVRCBEaWdpIEt5b2thc2hvIE5QLFVEIERpZ2kgS3lva2FzaG8gTlBfTVNGb250U2VydmljZSxzYW5zLXNlcmlmIj5bVl08L3RleHQ+PHBhdGggZmlsbC1ydWxlPSJldmVub2RkIiBmaWxsPSIjRkZGRkZGIiBzdHJva2UtbWl0ZXJsaW1pdD0iOCIgc3Ryb2tlLXdpZHRoPSIyIiBzdHJva2U9IiMwMDAwMDAiIGQ9Ik0yNTAgMzYwLjVDMjUwIDM1OC4wMTUgMjUyLjAxNSAzNTYgMjU0LjUgMzU2IDI1Ni45ODUgMzU2IDI1OSAzNTguMDE1IDI1OSAzNjAuNSAyNTkgMzYyLjk4NSAyNTYuOTg1IDM2NSAyNTQuNSAzNjUgMjUyLjAxNSAzNjUgMjUwIDM2Mi45ODUgMjUwIDM2MC41WiIvPjxwYXRoIGZpbGwtcnVsZT0iZXZlbm9kZCIgZmlsbD0iI0ZGRkZGRiIgc3Ryb2tlLW1pdGVybGltaXQ9IjgiIHN0cm9rZS13aWR0aD0iMiIgc3Ryb2tlPSIjMDAwMDAwIiBkPSJNMjQ5IDQzMi41QzI0OSA0MzAuMDE1IDI1MS4yMzkgNDI4IDI1NCA0MjggMjU2Ljc2MSA0MjggMjU5IDQzMC4wMTUgMjU5IDQzMi41IDI1OSA0MzQuOTg1IDI1Ni43NjEgNDM3IDI1NCA0MzcgMjUxLjIzOSA0MzcgMjQ5IDQzNC45ODUgMjQ5IDQzMi41WiIvPjxwYXRoIGZpbGwtcnVsZT0iZXZlbm9kZCIgZmlsbD0iI0ZGRkZGRiIgc3Ryb2tlLW1pdGVybGltaXQ9IjgiIHN0cm9rZS13aWR0aD0iMiIgc3Ryb2tlPSIjMDAwMDAwIiBkPSJNMjQ5IDQ3Ni41QzI0OSA0NzQuMDE1IDI1MS4yMzkgNDcyIDI1NCA0NzIgMjU2Ljc2MSA0NzIgMjU5IDQ3NC4wMTUgMjU5IDQ3Ni41IDI1OSA0NzguOTg1IDI1Ni43NjEgNDgxIDI1NCA0ODEgMjUxLjIzOSA0ODEgMjQ5IDQ3OC45ODUgMjQ5IDQ3Ni41WiIvPjxwYXRoIHRyYW5zZm9ybT0ibWF0cml4KDEgMCAwIC0xIDI0NyA0ODYuNTIyKSIgZmlsbC1ydWxlPSJldmVub2RkIiBmaWxsPSJub25lIiBzdHJva2UtbWl0ZXJsaW1pdD0iOCIgc3Ryb2tlLXdpZHRoPSI4IiBzdHJva2U9IiMwMDAwMDAiIGQ9Ik0wIDAgMC4wMDAxMDQ5ODcgNjQuNTIyMSIvPjwvZz48L3N2Zz4=;" vertex="1" parent="1">
          <mxGeometry x="90" y="370" width="275" height="243" as="geometry" />
        </mxCell>
        <mxCell id="d06oNdfRbxV0elXt2FFt-2" value="" style="endArrow=none;html=1;rounded=0;strokeWidth=2;" edge="1" parent="1" source="d06oNdfRbxV0elXt2FFt-19">
          <mxGeometry width="50" height="50" relative="1" as="geometry">
            <mxPoint x="610" y="470.4" as="sourcePoint" />
            <mxPoint x="680" y="470" as="targetPoint" />
          </mxGeometry>
        </mxCell>
        <mxCell id="d06oNdfRbxV0elXt2FFt-3" value="&lt;font style=&quot;font-size: 16px;&quot;&gt;V₀[V]&lt;/font&gt;" style="text;html=1;align=center;verticalAlign=middle;whiteSpace=wrap;rounded=0;" vertex="1" parent="1">
          <mxGeometry x="550" y="450" width="60" height="30" as="geometry" />
        </mxCell>
        <mxCell id="d06oNdfRbxV0elXt2FFt-4" value="" style="ellipse;whiteSpace=wrap;html=1;aspect=fixed;strokeWidth=1;" vertex="1" parent="1">
          <mxGeometry x="640" y="530" width="10" height="10" as="geometry" />
        </mxCell>
        <mxCell id="d06oNdfRbxV0elXt2FFt-5" value="" style="endArrow=none;html=1;rounded=0;strokeWidth=2;exitX=0.5;exitY=0;exitDx=0;exitDy=0;" edge="1" parent="1" source="d06oNdfRbxV0elXt2FFt-4">
          <mxGeometry width="50" height="50" relative="1" as="geometry">
            <mxPoint x="650" y="510" as="sourcePoint" />
            <mxPoint x="645" y="470" as="targetPoint" />
          </mxGeometry>
        </mxCell>
        <mxCell id="d06oNdfRbxV0elXt2FFt-6" value="" style="ellipse;whiteSpace=wrap;html=1;aspect=fixed;strokeWidth=1;" vertex="1" parent="1">
          <mxGeometry x="640" y="560" width="10" height="10" as="geometry" />
        </mxCell>
        <mxCell id="d06oNdfRbxV0elXt2FFt-7" value="" style="endArrow=none;html=1;rounded=0;strokeWidth=2;" edge="1" parent="1">
          <mxGeometry width="50" height="50" relative="1" as="geometry">
            <mxPoint x="710" y="600" as="sourcePoint" />
            <mxPoint x="644.8" y="570" as="targetPoint" />
            <Array as="points">
              <mxPoint x="645" y="600" />
            </Array>
          </mxGeometry>
        </mxCell>
        <mxCell id="d06oNdfRbxV0elXt2FFt-8" value="" style="ellipse;whiteSpace=wrap;html=1;aspect=fixed;strokeWidth=1;" vertex="1" parent="1">
          <mxGeometry x="640" y="620" width="10" height="10" as="geometry" />
        </mxCell>
        <mxCell id="d06oNdfRbxV0elXt2FFt-9" value="" style="ellipse;whiteSpace=wrap;html=1;aspect=fixed;strokeWidth=1;" vertex="1" parent="1">
          <mxGeometry x="640" y="650" width="10" height="10" as="geometry" />
        </mxCell>
        <mxCell id="d06oNdfRbxV0elXt2FFt-10" value="" style="endArrow=none;html=1;rounded=0;strokeWidth=2;entryX=0.5;entryY=1;entryDx=0;entryDy=0;" edge="1" parent="1" target="d06oNdfRbxV0elXt2FFt-9">
          <mxGeometry width="50" height="50" relative="1" as="geometry">
            <mxPoint x="645" y="710" as="sourcePoint" />
            <mxPoint x="644.8" y="660" as="targetPoint" />
          </mxGeometry>
        </mxCell>
        <mxCell id="d06oNdfRbxV0elXt2FFt-11" value="" style="pointerEvents=1;verticalLabelPosition=bottom;shadow=0;dashed=0;align=center;html=1;verticalAlign=top;shape=mxgraph.electrical.signal_sources.protective_earth;strokeWidth=2;" vertex="1" parent="1">
          <mxGeometry x="632.5" y="710" width="25" height="20" as="geometry" />
        </mxCell>
        <mxCell id="d06oNdfRbxV0elXt2FFt-12" value="" style="endArrow=none;html=1;rounded=0;strokeWidth=5;" edge="1" parent="1">
          <mxGeometry width="50" height="50" relative="1" as="geometry">
            <mxPoint x="670" y="570" as="sourcePoint" />
            <mxPoint x="670" y="530" as="targetPoint" />
          </mxGeometry>
        </mxCell>
        <mxCell id="d06oNdfRbxV0elXt2FFt-13" value="" style="endArrow=none;html=1;rounded=0;strokeWidth=5;" edge="1" parent="1">
          <mxGeometry width="50" height="50" relative="1" as="geometry">
            <mxPoint x="640" y="660" as="sourcePoint" />
            <mxPoint x="639.6" y="620" as="targetPoint" />
          </mxGeometry>
        </mxCell>
        <mxCell id="d06oNdfRbxV0elXt2FFt-14" value="" style="endArrow=none;html=1;rounded=0;strokeWidth=2;" edge="1" parent="1">
          <mxGeometry width="50" height="50" relative="1" as="geometry">
            <mxPoint x="640" y="640" as="sourcePoint" />
            <mxPoint x="670" y="550" as="targetPoint" />
            <Array as="points">
              <mxPoint x="610" y="640" />
              <mxPoint x="610" y="550" />
            </Array>
          </mxGeometry>
        </mxCell>
        <mxCell id="d06oNdfRbxV0elXt2FFt-15" value="" style="endArrow=none;html=1;rounded=0;strokeWidth=2;" edge="1" parent="1">
          <mxGeometry width="50" height="50" relative="1" as="geometry">
            <mxPoint x="570" y="590" as="sourcePoint" />
            <mxPoint x="610" y="590" as="targetPoint" />
          </mxGeometry>
        </mxCell>
        <mxCell id="d06oNdfRbxV0elXt2FFt-16" value="&lt;div&gt;&lt;span style=&quot;font-size: 16px;&quot;&gt;入力&quot;1&quot;&lt;/span&gt;&lt;/div&gt;&lt;font style=&quot;font-size: 16px;&quot;&gt;V&lt;sub&gt;in&lt;/sub&gt; = V₀[V]&lt;/font&gt;" style="text;html=1;align=center;verticalAlign=middle;whiteSpace=wrap;rounded=0;" vertex="1" parent="1">
          <mxGeometry x="490" y="583" width="90" height="30" as="geometry" />
        </mxCell>
        <mxCell id="d06oNdfRbxV0elXt2FFt-17" value="" style="endArrow=none;html=1;rounded=0;strokeWidth=2;entryX=0.5;entryY=0;entryDx=0;entryDy=0;" edge="1" parent="1" target="d06oNdfRbxV0elXt2FFt-8">
          <mxGeometry width="50" height="50" relative="1" as="geometry">
            <mxPoint x="645" y="600" as="sourcePoint" />
            <mxPoint x="670" y="560" as="targetPoint" />
          </mxGeometry>
        </mxCell>
        <mxCell id="d06oNdfRbxV0elXt2FFt-18" value="" style="endArrow=none;html=1;rounded=0;strokeWidth=2;" edge="1" parent="1" target="d06oNdfRbxV0elXt2FFt-19">
          <mxGeometry width="50" height="50" relative="1" as="geometry">
            <mxPoint x="610" y="470.4" as="sourcePoint" />
            <mxPoint x="680" y="470" as="targetPoint" />
          </mxGeometry>
        </mxCell>
        <mxCell id="d06oNdfRbxV0elXt2FFt-19" value="" style="shape=waypoint;sketch=0;fillStyle=solid;size=6;pointerEvents=1;points=[];fillColor=none;resizable=0;rotatable=0;perimeter=centerPerimeter;snapToPoint=1;" vertex="1" parent="1">
          <mxGeometry x="635" y="460" width="20" height="20" as="geometry" />
        </mxCell>
        <mxCell id="d06oNdfRbxV0elXt2FFt-20" value="" style="shape=waypoint;sketch=0;fillStyle=solid;size=6;pointerEvents=1;points=[];fillColor=none;resizable=0;rotatable=0;perimeter=centerPerimeter;snapToPoint=1;" vertex="1" parent="1">
          <mxGeometry x="635" y="590" width="20" height="20" as="geometry" />
        </mxCell>
        <mxCell id="d06oNdfRbxV0elXt2FFt-21" value="" style="shape=waypoint;sketch=0;fillStyle=solid;size=6;pointerEvents=1;points=[];fillColor=none;resizable=0;rotatable=0;perimeter=centerPerimeter;snapToPoint=1;" vertex="1" parent="1">
          <mxGeometry x="600" y="580" width="20" height="20" as="geometry" />
        </mxCell>
        <mxCell id="d06oNdfRbxV0elXt2FFt-22" value="&lt;div&gt;&lt;span style=&quot;font-size: 16px;&quot;&gt;出力&quot;0&quot;&lt;/span&gt;&lt;/div&gt;&lt;font style=&quot;font-size: 16px;&quot;&gt;V&lt;sub&gt;out&lt;/sub&gt; = 0[V]&lt;/font&gt;" style="text;html=1;align=center;verticalAlign=middle;whiteSpace=wrap;rounded=0;" vertex="1" parent="1">
          <mxGeometry x="720" y="590" width="90" height="30" as="geometry" />
        </mxCell>
        <mxCell id="d06oNdfRbxV0elXt2FFt-23" value="&lt;div&gt;&lt;span style=&quot;font-size: 16px;&quot;&gt;GND&lt;/span&gt;&lt;/div&gt;" style="text;html=1;align=center;verticalAlign=middle;whiteSpace=wrap;rounded=0;" vertex="1" parent="1">
          <mxGeometry x="650" y="705" width="62.5" height="30" as="geometry" />
        </mxCell>
        <mxCell id="d06oNdfRbxV0elXt2FFt-24" value="逆スイッチ&lt;br&gt;オフ" style="shape=callout;whiteSpace=wrap;html=1;perimeter=calloutPerimeter;rounded=1;position2=0;size=10;position=0.25;base=40;arcSize=23;" vertex="1" parent="1">
          <mxGeometry x="685" y="500" width="90" height="40" as="geometry" />
        </mxCell>
        <mxCell id="d06oNdfRbxV0elXt2FFt-25" value="順スイッチ&lt;br&gt;オン" style="shape=callout;whiteSpace=wrap;html=1;perimeter=calloutPerimeter;rounded=1;position2=1;size=10;position=0.25;base=40;arcSize=23;direction=west;" vertex="1" parent="1">
          <mxGeometry x="670" y="650" width="80" height="45" as="geometry" />
        </mxCell>
        <mxCell id="d06oNdfRbxV0elXt2FFt-26" value="" style="endArrow=none;html=1;rounded=0;strokeWidth=2;" edge="1" parent="1" source="d06oNdfRbxV0elXt2FFt-43">
          <mxGeometry width="50" height="50" relative="1" as="geometry">
            <mxPoint x="947" y="482.9" as="sourcePoint" />
            <mxPoint x="1017" y="482.5" as="targetPoint" />
          </mxGeometry>
        </mxCell>
        <mxCell id="d06oNdfRbxV0elXt2FFt-27" value="&lt;font style=&quot;font-size: 16px;&quot;&gt;V₀[V]&lt;/font&gt;" style="text;html=1;align=center;verticalAlign=middle;whiteSpace=wrap;rounded=0;" vertex="1" parent="1">
          <mxGeometry x="887" y="462.5" width="60" height="30" as="geometry" />
        </mxCell>
        <mxCell id="d06oNdfRbxV0elXt2FFt-28" value="" style="ellipse;whiteSpace=wrap;html=1;aspect=fixed;strokeWidth=1;" vertex="1" parent="1">
          <mxGeometry x="977" y="542.5" width="10" height="10" as="geometry" />
        </mxCell>
        <mxCell id="d06oNdfRbxV0elXt2FFt-29" value="" style="endArrow=none;html=1;rounded=0;strokeWidth=2;exitX=0.5;exitY=0;exitDx=0;exitDy=0;" edge="1" parent="1" source="d06oNdfRbxV0elXt2FFt-28">
          <mxGeometry width="50" height="50" relative="1" as="geometry">
            <mxPoint x="987" y="522.5" as="sourcePoint" />
            <mxPoint x="982" y="482.5" as="targetPoint" />
          </mxGeometry>
        </mxCell>
        <mxCell id="d06oNdfRbxV0elXt2FFt-30" value="" style="ellipse;whiteSpace=wrap;html=1;aspect=fixed;strokeWidth=1;" vertex="1" parent="1">
          <mxGeometry x="977" y="572.5" width="10" height="10" as="geometry" />
        </mxCell>
        <mxCell id="d06oNdfRbxV0elXt2FFt-31" value="" style="endArrow=none;html=1;rounded=0;strokeWidth=2;" edge="1" parent="1">
          <mxGeometry width="50" height="50" relative="1" as="geometry">
            <mxPoint x="1047" y="612.5" as="sourcePoint" />
            <mxPoint x="981.8" y="582.5" as="targetPoint" />
            <Array as="points">
              <mxPoint x="982" y="612.5" />
            </Array>
          </mxGeometry>
        </mxCell>
        <mxCell id="d06oNdfRbxV0elXt2FFt-32" value="" style="ellipse;whiteSpace=wrap;html=1;aspect=fixed;strokeWidth=1;" vertex="1" parent="1">
          <mxGeometry x="977" y="632.5" width="10" height="10" as="geometry" />
        </mxCell>
        <mxCell id="d06oNdfRbxV0elXt2FFt-33" value="" style="ellipse;whiteSpace=wrap;html=1;aspect=fixed;strokeWidth=1;" vertex="1" parent="1">
          <mxGeometry x="977" y="662.5" width="10" height="10" as="geometry" />
        </mxCell>
        <mxCell id="d06oNdfRbxV0elXt2FFt-34" value="" style="endArrow=none;html=1;rounded=0;strokeWidth=2;entryX=0.5;entryY=1;entryDx=0;entryDy=0;" edge="1" parent="1" target="d06oNdfRbxV0elXt2FFt-33">
          <mxGeometry width="50" height="50" relative="1" as="geometry">
            <mxPoint x="982" y="722.5" as="sourcePoint" />
            <mxPoint x="981.8" y="672.5" as="targetPoint" />
          </mxGeometry>
        </mxCell>
        <mxCell id="d06oNdfRbxV0elXt2FFt-35" value="" style="pointerEvents=1;verticalLabelPosition=bottom;shadow=0;dashed=0;align=center;html=1;verticalAlign=top;shape=mxgraph.electrical.signal_sources.protective_earth;strokeWidth=2;" vertex="1" parent="1">
          <mxGeometry x="969.5" y="722.5" width="25" height="20" as="geometry" />
        </mxCell>
        <mxCell id="d06oNdfRbxV0elXt2FFt-36" value="" style="endArrow=none;html=1;rounded=0;strokeWidth=5;" edge="1" parent="1">
          <mxGeometry width="50" height="50" relative="1" as="geometry">
            <mxPoint x="987" y="582.5" as="sourcePoint" />
            <mxPoint x="987" y="542.5" as="targetPoint" />
          </mxGeometry>
        </mxCell>
        <mxCell id="d06oNdfRbxV0elXt2FFt-37" value="" style="endArrow=none;html=1;rounded=0;strokeWidth=5;" edge="1" parent="1">
          <mxGeometry width="50" height="50" relative="1" as="geometry">
            <mxPoint x="969.9" y="675" as="sourcePoint" />
            <mxPoint x="969.5" y="635" as="targetPoint" />
          </mxGeometry>
        </mxCell>
        <mxCell id="d06oNdfRbxV0elXt2FFt-38" value="" style="endArrow=none;html=1;rounded=0;strokeWidth=2;" edge="1" parent="1">
          <mxGeometry width="50" height="50" relative="1" as="geometry">
            <mxPoint x="970" y="653" as="sourcePoint" />
            <mxPoint x="990" y="563" as="targetPoint" />
            <Array as="points">
              <mxPoint x="947" y="652.5" />
              <mxPoint x="947" y="562.5" />
            </Array>
          </mxGeometry>
        </mxCell>
        <mxCell id="d06oNdfRbxV0elXt2FFt-39" value="" style="endArrow=none;html=1;rounded=0;strokeWidth=2;" edge="1" parent="1">
          <mxGeometry width="50" height="50" relative="1" as="geometry">
            <mxPoint x="907" y="602.5" as="sourcePoint" />
            <mxPoint x="947" y="602.5" as="targetPoint" />
          </mxGeometry>
        </mxCell>
        <mxCell id="d06oNdfRbxV0elXt2FFt-40" value="&lt;div&gt;&lt;span style=&quot;font-size: 16px;&quot;&gt;入力&quot;0&quot;&lt;/span&gt;&lt;/div&gt;&lt;font style=&quot;font-size: 16px;&quot;&gt;V&lt;sub&gt;in&lt;/sub&gt; = 0[V]&lt;/font&gt;" style="text;html=1;align=center;verticalAlign=middle;whiteSpace=wrap;rounded=0;" vertex="1" parent="1">
          <mxGeometry x="827" y="595.5" width="90" height="30" as="geometry" />
        </mxCell>
        <mxCell id="d06oNdfRbxV0elXt2FFt-41" value="" style="endArrow=none;html=1;rounded=0;strokeWidth=2;entryX=0.5;entryY=0;entryDx=0;entryDy=0;" edge="1" parent="1" target="d06oNdfRbxV0elXt2FFt-32">
          <mxGeometry width="50" height="50" relative="1" as="geometry">
            <mxPoint x="982" y="612.5" as="sourcePoint" />
            <mxPoint x="1007" y="572.5" as="targetPoint" />
          </mxGeometry>
        </mxCell>
        <mxCell id="d06oNdfRbxV0elXt2FFt-42" value="" style="endArrow=none;html=1;rounded=0;strokeWidth=2;" edge="1" parent="1" target="d06oNdfRbxV0elXt2FFt-43">
          <mxGeometry width="50" height="50" relative="1" as="geometry">
            <mxPoint x="947" y="482.9" as="sourcePoint" />
            <mxPoint x="1017" y="482.5" as="targetPoint" />
          </mxGeometry>
        </mxCell>
        <mxCell id="d06oNdfRbxV0elXt2FFt-43" value="" style="shape=waypoint;sketch=0;fillStyle=solid;size=6;pointerEvents=1;points=[];fillColor=none;resizable=0;rotatable=0;perimeter=centerPerimeter;snapToPoint=1;" vertex="1" parent="1">
          <mxGeometry x="972" y="472.5" width="20" height="20" as="geometry" />
        </mxCell>
        <mxCell id="d06oNdfRbxV0elXt2FFt-44" value="" style="shape=waypoint;sketch=0;fillStyle=solid;size=6;pointerEvents=1;points=[];fillColor=none;resizable=0;rotatable=0;perimeter=centerPerimeter;snapToPoint=1;" vertex="1" parent="1">
          <mxGeometry x="972" y="602.5" width="20" height="20" as="geometry" />
        </mxCell>
        <mxCell id="d06oNdfRbxV0elXt2FFt-45" value="" style="shape=waypoint;sketch=0;fillStyle=solid;size=6;pointerEvents=1;points=[];fillColor=none;resizable=0;rotatable=0;perimeter=centerPerimeter;snapToPoint=1;" vertex="1" parent="1">
          <mxGeometry x="937" y="592.5" width="20" height="20" as="geometry" />
        </mxCell>
        <mxCell id="d06oNdfRbxV0elXt2FFt-46" value="&lt;div&gt;&lt;span style=&quot;font-size: 16px;&quot;&gt;出力&quot;1&quot;&lt;/span&gt;&lt;/div&gt;&lt;font style=&quot;font-size: 16px;&quot;&gt;V&lt;sub&gt;out&lt;/sub&gt; = V₀&lt;span style=&quot;color: rgba(0, 0, 0, 0); font-family: monospace; font-size: 0px; text-align: start; text-wrap-mode: nowrap;&quot;&gt;%3CmxGraphModel%3E%3Croot%3E%3CmxCell%20id%3D%220%22%2F%3E%3CmxCell%20id%3D%221%22%20parent%3D%220%22%2F%3E%3CmxCell%20id%3D%222%22%20value%3D%22%22%20style%3D%22endArrow%3Dnone%3Bhtml%3D1%3Brounded%3D0%3BstrokeWidth%3D2%3B%22%20edge%3D%221%22%20source%3D%2219%22%20parent%3D%221%22%3E%3CmxGeometry%20width%3D%2250%22%20height%3D%2250%22%20relative%3D%221%22%20as%3D%22geometry%22%3E%3CmxPoint%20x%3D%22610%22%20y%3D%22470.4%22%20as%3D%22sourcePoint%22%2F%3E%3CmxPoint%20x%3D%22680%22%20y%3D%22470%22%20as%3D%22targetPoint%22%2F%3E%3C%2FmxGeometry%3E%3C%2FmxCell%3E%3CmxCell%20id%3D%223%22%20value%3D%22%26lt%3Bfont%20style%3D%26quot%3Bfont-size%3A%2016px%3B%26quot%3B%26gt%3BV%E2%82%80%5BV%5D%26lt%3B%2Ffont%26gt%3B%22%20style%3D%22text%3Bhtml%3D1%3Balign%3Dcenter%3BverticalAlign%3Dmiddle%3BwhiteSpace%3Dwrap%3Brounded%3D0%3B%22%20vertex%3D%221%22%20parent%3D%221%22%3E%3CmxGeometry%20x%3D%22550%22%20y%3D%22450%22%20width%3D%2260%22%20height%3D%2230%22%20as%3D%22geometry%22%2F%3E%3C%2FmxCell%3E%3CmxCell%20id%3D%224%22%20value%3D%22%22%20style%3D%22ellipse%3BwhiteSpace%3Dwrap%3Bhtml%3D1%3Baspect%3Dfixed%3BstrokeWidth%3D1%3B%22%20vertex%3D%221%22%20parent%3D%221%22%3E%3CmxGeometry%20x%3D%22640%22%20y%3D%22530%22%20width%3D%2210%22%20height%3D%2210%22%20as%3D%22geometry%22%2F%3E%3C%2FmxCell%3E%3CmxCell%20id%3D%225%22%20value%3D%22%22%20style%3D%22endArrow%3Dnone%3Bhtml%3D1%3Brounded%3D0%3BstrokeWidth%3D2%3BexitX%3D0.5%3BexitY%3D0%3BexitDx%3D0%3BexitDy%3D0%3B%22%20edge%3D%221%22%20source%3D%224%22%20parent%3D%221%22%3E%3CmxGeometry%20width%3D%2250%22%20height%3D%2250%22%20relative%3D%221%22%20as%3D%22geometry%22%3E%3CmxPoint%20x%3D%22650%22%20y%3D%22510%22%20as%3D%22sourcePoint%22%2F%3E%3CmxPoint%20x%3D%22645%22%20y%3D%22470%22%20as%3D%22targetPoint%22%2F%3E%3C%2FmxGeometry%3E%3C%2FmxCell%3E%3CmxCell%20id%3D%226%22%20value%3D%22%22%20style%3D%22ellipse%3BwhiteSpace%3Dwrap%3Bhtml%3D1%3Baspect%3Dfixed%3BstrokeWidth%3D1%3B%22%20vertex%3D%221%22%20parent%3D%221%22%3E%3CmxGeometry%20x%3D%22640%22%20y%3D%22560%22%20width%3D%2210%22%20height%3D%2210%22%20as%3D%22geometry%22%2F%3E%3C%2FmxCell%3E%3CmxCell%20id%3D%227%22%20value%3D%22%22%20style%3D%22endArrow%3Dnone%3Bhtml%3D1%3Brounded%3D0%3BstrokeWidth%3D2%3B%22%20edge%3D%221%22%20parent%3D%221%22%3E%3CmxGeometry%20width%3D%2250%22%20height%3D%2250%22%20relative%3D%221%22%20as%3D%22geometry%22%3E%3CmxPoint%20x%3D%22710%22%20y%3D%22600%22%20as%3D%22sourcePoint%22%2F%3E%3CmxPoint%20x%3D%22644.8%22%20y%3D%22570%22%20as%3D%22targetPoint%22%2F%3E%3CArray%20as%3D%22points%22%3E%3CmxPoint%20x%3D%22645%22%20y%3D%22600%22%2F%3E%3C%2FArray%3E%3C%2FmxGeometry%3E%3C%2FmxCell%3E%3CmxCell%20id%3D%228%22%20value%3D%22%22%20style%3D%22ellipse%3BwhiteSpace%3Dwrap%3Bhtml%3D1%3Baspect%3Dfixed%3BstrokeWidth%3D1%3B%22%20vertex%3D%221%22%20parent%3D%221%22%3E%3CmxGeometry%20x%3D%22640%22%20y%3D%22620%22%20width%3D%2210%22%20height%3D%2210%22%20as%3D%22geometry%22%2F%3E%3C%2FmxCell%3E%3CmxCell%20id%3D%229%22%20value%3D%22%22%20style%3D%22ellipse%3BwhiteSpace%3Dwrap%3Bhtml%3D1%3Baspect%3Dfixed%3BstrokeWidth%3D1%3B%22%20vertex%3D%221%22%20parent%3D%221%22%3E%3CmxGeometry%20x%3D%22640%22%20y%3D%22650%22%20width%3D%2210%22%20height%3D%2210%22%20as%3D%22geometry%22%2F%3E%3C%2FmxCell%3E%3CmxCell%20id%3D%2210%22%20value%3D%22%22%20style%3D%22endArrow%3Dnone%3Bhtml%3D1%3Brounded%3D0%3BstrokeWidth%3D2%3BentryX%3D0.5%3BentryY%3D1%3BentryDx%3D0%3BentryDy%3D0%3B%22%20edge%3D%221%22%20target%3D%229%22%20parent%3D%221%22%3E%3CmxGeometry%20width%3D%2250%22%20height%3D%2250%22%20relative%3D%221%22%20as%3D%22geometry%22%3E%3CmxPoint%20x%3D%22645%22%20y%3D%22710%22%20as%3D%22sourcePoint%22%2F%3E%3CmxPoint%20x%3D%22644.8%22%20y%3D%22660%22%20as%3D%22targetPoint%22%2F%3E%3C%2FmxGeometry%3E%3C%2FmxCell%3E%3CmxCell%20id%3D%2211%22%20value%3D%22%22%20style%3D%22pointerEvents%3D1%3BverticalLabelPosition%3Dbottom%3Bshadow%3D0%3Bdashed%3D0%3Balign%3Dcenter%3Bhtml%3D1%3BverticalAlign%3Dtop%3Bshape%3Dmxgraph.electrical.signal_sources.protective_earth%3BstrokeWidth%3D2%3B%22%20vertex%3D%221%22%20parent%3D%221%22%3E%3CmxGeometry%20x%3D%22632.5%22%20y%3D%22710%22%20width%3D%2225%22%20height%3D%2220%22%20as%3D%22geometry%22%2F%3E%3C%2FmxCell%3E%3CmxCell%20id%3D%2212%22%20value%3D%22%22%20style%3D%22endArrow%3Dnone%3Bhtml%3D1%3Brounded%3D0%3BstrokeWidth%3D5%3B%22%20edge%3D%221%22%20parent%3D%221%22%3E%3CmxGeometry%20width%3D%2250%22%20height%3D%2250%22%20relative%3D%221%22%20as%3D%22geometry%22%3E%3CmxPoint%20x%3D%22670%22%20y%3D%22570%22%20as%3D%22sourcePoint%22%2F%3E%3CmxPoint%20x%3D%22670%22%20y%3D%22530%22%20as%3D%22targetPoint%22%2F%3E%3C%2FmxGeometry%3E%3C%2FmxCell%3E%3CmxCell%20id%3D%2213%22%20value%3D%22%22%20style%3D%22endArrow%3Dnone%3Bhtml%3D1%3Brounded%3D0%3BstrokeWidth%3D5%3B%22%20edge%3D%221%22%20parent%3D%221%22%3E%3CmxGeometry%20width%3D%2250%22%20height%3D%2250%22%20relative%3D%221%22%20as%3D%22geometry%22%3E%3CmxPoint%20x%3D%22640%22%20y%3D%22660%22%20as%3D%22sourcePoint%22%2F%3E%3CmxPoint%20x%3D%22639.6%22%20y%3D%22620%22%20as%3D%22targetPoint%22%2F%3E%3C%2FmxGeometry%3E%3C%2FmxCell%3E%3CmxCell%20id%3D%2214%22%20value%3D%22%22%20style%3D%22endArrow%3Dnone%3Bhtml%3D1%3Brounded%3D0%3BstrokeWidth%3D2%3B%22%20edge%3D%221%22%20parent%3D%221%22%3E%3CmxGeometry%20width%3D%2250%22%20height%3D%2250%22%20relative%3D%221%22%20as%3D%22geometry%22%3E%3CmxPoint%20x%3D%22640%22%20y%3D%22640%22%20as%3D%22sourcePoint%22%2F%3E%3CmxPoint%20x%3D%22670%22%20y%3D%22550%22%20as%3D%22targetPoint%22%2F%3E%3CArray%20as%3D%22points%22%3E%3CmxPoint%20x%3D%22610%22%20y%3D%22640%22%2F%3E%3CmxPoint%20x%3D%22610%22%20y%3D%22550%22%2F%3E%3C%2FArray%3E%3C%2FmxGeometry%3E%3C%2FmxCell%3E%3CmxCell%20id%3D%2215%22%20value%3D%22%22%20style%3D%22endArrow%3Dnone%3Bhtml%3D1%3Brounded%3D0%3BstrokeWidth%3D2%3B%22%20edge%3D%221%22%20parent%3D%221%22%3E%3CmxGeometry%20width%3D%2250%22%20height%3D%2250%22%20relative%3D%221%22%20as%3D%22geometry%22%3E%3CmxPoint%20x%3D%22570%22%20y%3D%22590%22%20as%3D%22sourcePoint%22%2F%3E%3CmxPoint%20x%3D%22610%22%20y%3D%22590%22%20as%3D%22targetPoint%22%2F%3E%3C%2FmxGeometry%3E%3C%2FmxCell%3E%3CmxCell%20id%3D%2216%22%20value%3D%22%26lt%3Bdiv%26gt%3B%26lt%3Bspan%20style%3D%26quot%3Bfont-size%3A%2016px%3B%26quot%3B%26gt%3B%E5%85%A5%E5%8A%9B%26quot%3B1%26quot%3B%26lt%3B%2Fspan%26gt%3B%26lt%3B%2Fdiv%26gt%3B%26lt%3Bfont%20style%3D%26quot%3Bfont-size%3A%2016px%3B%26quot%3B%26gt%3BV%26lt%3Bsub%26gt%3Bin%26lt%3B%2Fsub%26gt%3B%20%3D%20V%E2%82%80%5BV%5D%26lt%3B%2Ffont%26gt%3B%22%20style%3D%22text%3Bhtml%3D1%3Balign%3Dcenter%3BverticalAlign%3Dmiddle%3BwhiteSpace%3Dwrap%3Brounded%3D0%3B%22%20vertex%3D%221%22%20parent%3D%221%22%3E%3CmxGeometry%20x%3D%22490%22%20y%3D%22583%22%20width%3D%2290%22%20height%3D%2230%22%20as%3D%22geometry%22%2F%3E%3C%2FmxCell%3E%3CmxCell%20id%3D%2217%22%20value%3D%22%22%20style%3D%22endArrow%3Dnone%3Bhtml%3D1%3Brounded%3D0%3BstrokeWidth%3D2%3BentryX%3D0.5%3BentryY%3D0%3BentryDx%3D0%3BentryDy%3D0%3B%22%20edge%3D%221%22%20target%3D%228%22%20parent%3D%221%22%3E%3CmxGeometry%20width%3D%2250%22%20height%3D%2250%22%20relative%3D%221%22%20as%3D%22geometry%22%3E%3CmxPoint%20x%3D%22645%22%20y%3D%22600%22%20as%3D%22sourcePoint%22%2F%3E%3CmxPoint%20x%3D%22670%22%20y%3D%22560%22%20as%3D%22targetPoint%22%2F%3E%3C%2FmxGeometry%3E%3C%2FmxCell%3E%3CmxCell%20id%3D%2218%22%20value%3D%22%22%20style%3D%22endArrow%3Dnone%3Bhtml%3D1%3Brounded%3D0%3BstrokeWidth%3D2%3B%22%20edge%3D%221%22%20target%3D%2219%22%20parent%3D%221%22%3E%3CmxGeometry%20width%3D%2250%22%20height%3D%2250%22%20relative%3D%221%22%20as%3D%22geometry%22%3E%3CmxPoint%20x%3D%22610%22%20y%3D%22470.4%22%20as%3D%22sourcePoint%22%2F%3E%3CmxPoint%20x%3D%22680%22%20y%3D%22470%22%20as%3D%22targetPoint%22%2F%3E%3C%2FmxGeometry%3E%3C%2FmxCell%3E%3CmxCell%20id%3D%2219%22%20value%3D%22%22%20style%3D%22shape%3Dwaypoint%3Bsketch%3D0%3BfillStyle%3Dsolid%3Bsize%3D6%3BpointerEvents%3D1%3Bpoints%3D%5B%5D%3BfillColor%3Dnone%3Bresizable%3D0%3Brotatable%3D0%3Bperimeter%3DcenterPerimeter%3BsnapToPoint%3D1%3B%22%20vertex%3D%221%22%20parent%3D%221%22%3E%3CmxGeometry%20x%3D%22635%22%20y%3D%22460%22%20width%3D%2220%22%20height%3D%2220%22%20as%3D%22geometry%22%2F%3E%3C%2FmxCell%3E%3CmxCell%20id%3D%2220%22%20value%3D%22%22%20style%3D%22shape%3Dwaypoint%3Bsketch%3D0%3BfillStyle%3Dsolid%3Bsize%3D6%3BpointerEvents%3D1%3Bpoints%3D%5B%5D%3BfillColor%3Dnone%3Bresizable%3D0%3Brotatable%3D0%3Bperimeter%3DcenterPerimeter%3BsnapToPoint%3D1%3B%22%20vertex%3D%221%22%20parent%3D%221%22%3E%3CmxGeometry%20x%3D%22635%22%20y%3D%22590%22%20width%3D%2220%22%20height%3D%2220%22%20as%3D%22geometry%22%2F%3E%3C%2FmxCell%3E%3CmxCell%20id%3D%2221%22%20value%3D%22%22%20style%3D%22shape%3Dwaypoint%3Bsketch%3D0%3BfillStyle%3Dsolid%3Bsize%3D6%3BpointerEvents%3D1%3Bpoints%3D%5B%5D%3BfillColor%3Dnone%3Bresizable%3D0%3Brotatable%3D0%3Bperimeter%3DcenterPerimeter%3BsnapToPoint%3D1%3B%22%20vertex%3D%221%22%20parent%3D%221%22%3E%3CmxGeometry%20x%3D%22600%22%20y%3D%22580%22%20width%3D%2220%22%20height%3D%2220%22%20as%3D%22geometry%22%2F%3E%3C%2FmxCell%3E%3CmxCell%20id%3D%2222%22%20value%3D%22%26lt%3Bdiv%26gt%3B%26lt%3Bspan%20style%3D%26quot%3Bfont-size%3A%2016px%3B%26quot%3B%26gt%3B%E5%87%BA%E5%8A%9B%26quot%3B0%26quot%3B%26lt%3B%2Fspan%26gt%3B%26lt%3B%2Fdiv%26gt%3B%26lt%3Bfont%20style%3D%26quot%3Bfont-size%3A%2016px%3B%26quot%3B%26gt%3BV%26lt%3Bsub%26gt%3Bout%26lt%3B%2Fsub%26gt%3B%20%3D%200%5BV%5D%26lt%3B%2Ffont%26gt%3B%22%20style%3D%22text%3Bhtml%3D1%3Balign%3Dcenter%3BverticalAlign%3Dmiddle%3BwhiteSpace%3Dwrap%3Brounded%3D0%3B%22%20vertex%3D%221%22%20parent%3D%221%22%3E%3CmxGeometry%20x%3D%22720%22%20y%3D%22590%22%20width%3D%2290%22%20height%3D%2230%22%20as%3D%22geometry%22%2F%3E%3C%2FmxCell%3E%3CmxCell%20id%3D%2223%22%20value%3D%22%26lt%3Bdiv%26gt%3B%26lt%3Bspan%20style%3D%26quot%3Bfont-size%3A%2016px%3B%26quot%3B%26gt%3BGND%26lt%3B%2Fspan%26gt%3B%26lt%3B%2Fdiv%26gt%3B%22%20style%3D%22text%3Bhtml%3D1%3Balign%3Dcenter%3BverticalAlign%3Dmiddle%3BwhiteSpace%3Dwrap%3Brounded%3D0%3B%22%20vertex%3D%221%22%20parent%3D%221%22%3E%3CmxGeometry%20x%3D%22650%22%20y%3D%22705%22%20width%3D%2262.5%22%20height%3D%2230%22%20as%3D%22geometry%22%2F%3E%3C%2FmxCell%3E%3CmxCell%20id%3D%2224%22%20value%3D%22%E9%80%86%E3%82%B9%E3%82%A4%E3%83%83%E3%83%81%26lt%3Bbr%26gt%3B%E3%82%AA%E3%83%95%22%20style%3D%22shape%3Dcallout%3BwhiteSpace%3Dwrap%3Bhtml%3D1%3Bperimeter%3DcalloutPerimeter%3Brounded%3D1%3Bposition2%3D0%3Bsize%3D10%3Bposition%3D0.25%3Bbase%3D40%3BarcSize%3D23%3B%22%20vertex%3D%221%22%20parent%3D%221%22%3E%3CmxGeometry%20x%3D%22685%22%20y%3D%22500%22%20width%3D%2290%22%20height%3D%2240%22%20as%3D%22geometry%22%2F%3E%3C%2FmxCell%3E%3CmxCell%20id%3D%2225%22%20value%3D%22%E9%A0%86%E3%82%B9%E3%82%A4%E3%83%83%E3%83%81%26lt%3Bbr%26gt%3B%E3%82%AA%E3%83%B3%22%20style%3D%22shape%3Dcallout%3BwhiteSpace%3Dwrap%3Bhtml%3D1%3Bperimeter%3DcalloutPerimeter%3Brounded%3D1%3Bposition2%3D1%3Bsize%3D10%3Bposition%3D0.25%3Bbase%3D40%3BarcSize%3D23%3Bdirection%3Dwest%3B%22%20vertex%3D%221%22%20parent%3D%221%22%3E%3CmxGeometry%20x%3D%22670%22%20y%3D%22650%22%20width%3D%2280%22%20height%3D%2245%22%20as%3D%22geometry%22%2F%3E%3C%2FmxCell%3E%3C%2Froot%3E%3C%2FmxGraphModel&lt;/span&gt;[V]&lt;/font&gt;" style="text;html=1;align=center;verticalAlign=middle;whiteSpace=wrap;rounded=0;" vertex="1" parent="1">
          <mxGeometry x="1057" y="602.5" width="90" height="30" as="geometry" />
        </mxCell>
        <mxCell id="d06oNdfRbxV0elXt2FFt-47" value="&lt;div&gt;&lt;span style=&quot;font-size: 16px;&quot;&gt;GND&lt;/span&gt;&lt;/div&gt;" style="text;html=1;align=center;verticalAlign=middle;whiteSpace=wrap;rounded=0;" vertex="1" parent="1">
          <mxGeometry x="987" y="717.5" width="62.5" height="30" as="geometry" />
        </mxCell>
        <mxCell id="d06oNdfRbxV0elXt2FFt-48" value="逆スイッチ&lt;br&gt;オン" style="shape=callout;whiteSpace=wrap;html=1;perimeter=calloutPerimeter;rounded=1;position2=0;size=10;position=0.25;base=40;arcSize=23;" vertex="1" parent="1">
          <mxGeometry x="1022" y="512.5" width="90" height="40" as="geometry" />
        </mxCell>
        <mxCell id="d06oNdfRbxV0elXt2FFt-49" value="順スイッチ&lt;br&gt;オフ" style="shape=callout;whiteSpace=wrap;html=1;perimeter=calloutPerimeter;rounded=1;position2=1;size=10;position=0.25;base=40;arcSize=23;direction=west;" vertex="1" parent="1">
          <mxGeometry x="1007" y="662.5" width="80" height="45" as="geometry" />
        </mxCell>
        <mxCell id="d06oNdfRbxV0elXt2FFt-50" value="" style="endArrow=blockThin;html=1;rounded=0;strokeWidth=4;strokeColor=#FF3333;endFill=1;" edge="1" parent="1">
          <mxGeometry width="50" height="50" relative="1" as="geometry">
            <mxPoint x="670" y="480" as="sourcePoint" />
            <mxPoint x="670" y="510" as="targetPoint" />
          </mxGeometry>
        </mxCell>
        <mxCell id="d06oNdfRbxV0elXt2FFt-51" value="&lt;font style=&quot;font-size: 31px; color: rgb(255, 51, 51);&quot;&gt;×&lt;/font&gt;" style="text;html=1;align=center;verticalAlign=middle;whiteSpace=wrap;rounded=0;" vertex="1" parent="1">
          <mxGeometry x="640" y="505" width="60" height="30" as="geometry" />
        </mxCell>
        <mxCell id="d06oNdfRbxV0elXt2FFt-52" value="" style="endArrow=blockThin;html=1;rounded=0;strokeWidth=4;strokeColor=#007FFF;endFill=1;" edge="1" parent="1">
          <mxGeometry width="50" height="50" relative="1" as="geometry">
            <mxPoint x="1027" y="613" as="sourcePoint" />
            <mxPoint x="1027" y="643" as="targetPoint" />
          </mxGeometry>
        </mxCell>
        <mxCell id="d06oNdfRbxV0elXt2FFt-53" value="&lt;font style=&quot;font-size: 31px; color: rgb(0, 127, 255);&quot;&gt;×&lt;/font&gt;" style="text;html=1;align=center;verticalAlign=middle;whiteSpace=wrap;rounded=0;strokeColor=none;fillColor=none;" vertex="1" parent="1">
          <mxGeometry x="997" y="638" width="60" height="30" as="geometry" />
        </mxCell>
        <mxCell id="d06oNdfRbxV0elXt2FFt-54" value="" style="endArrow=blockThin;html=1;rounded=0;strokeWidth=4;strokeColor=#FF3333;endFill=1;" edge="1" parent="1">
          <mxGeometry width="50" height="50" relative="1" as="geometry">
            <mxPoint x="1000.5" y="495" as="sourcePoint" />
            <mxPoint x="1053.5" y="592.5" as="targetPoint" />
            <Array as="points">
              <mxPoint x="1001" y="593" />
            </Array>
          </mxGeometry>
        </mxCell>
        <mxCell id="d06oNdfRbxV0elXt2FFt-55" value="" style="endArrow=none;html=1;rounded=0;strokeWidth=2;" edge="1" parent="1" source="d06oNdfRbxV0elXt2FFt-72">
          <mxGeometry width="50" height="50" relative="1" as="geometry">
            <mxPoint x="249" y="810.4" as="sourcePoint" />
            <mxPoint x="319" y="810" as="targetPoint" />
          </mxGeometry>
        </mxCell>
        <mxCell id="d06oNdfRbxV0elXt2FFt-56" value="&lt;font style=&quot;font-size: 16px;&quot;&gt;V₀[V]&lt;/font&gt;" style="text;html=1;align=center;verticalAlign=middle;whiteSpace=wrap;rounded=0;" vertex="1" parent="1">
          <mxGeometry x="189" y="790" width="60" height="30" as="geometry" />
        </mxCell>
        <mxCell id="d06oNdfRbxV0elXt2FFt-57" value="" style="ellipse;whiteSpace=wrap;html=1;aspect=fixed;strokeWidth=1;" vertex="1" parent="1">
          <mxGeometry x="279" y="870" width="10" height="10" as="geometry" />
        </mxCell>
        <mxCell id="d06oNdfRbxV0elXt2FFt-58" value="" style="endArrow=none;html=1;rounded=0;strokeWidth=2;exitX=0.5;exitY=0;exitDx=0;exitDy=0;" edge="1" parent="1" source="d06oNdfRbxV0elXt2FFt-57">
          <mxGeometry width="50" height="50" relative="1" as="geometry">
            <mxPoint x="289" y="850" as="sourcePoint" />
            <mxPoint x="284" y="810" as="targetPoint" />
          </mxGeometry>
        </mxCell>
        <mxCell id="d06oNdfRbxV0elXt2FFt-59" value="" style="ellipse;whiteSpace=wrap;html=1;aspect=fixed;strokeWidth=1;" vertex="1" parent="1">
          <mxGeometry x="279" y="900" width="10" height="10" as="geometry" />
        </mxCell>
        <mxCell id="d06oNdfRbxV0elXt2FFt-60" value="" style="endArrow=none;html=1;rounded=0;strokeWidth=2;" edge="1" parent="1">
          <mxGeometry width="50" height="50" relative="1" as="geometry">
            <mxPoint x="284" y="922.5" as="sourcePoint" />
            <mxPoint x="283.79999999999995" y="910" as="targetPoint" />
            <Array as="points" />
          </mxGeometry>
        </mxCell>
        <mxCell id="d06oNdfRbxV0elXt2FFt-61" value="" style="ellipse;whiteSpace=wrap;html=1;aspect=fixed;strokeWidth=1;" vertex="1" parent="1">
          <mxGeometry x="214" y="1092.5" width="10" height="10" as="geometry" />
        </mxCell>
        <mxCell id="d06oNdfRbxV0elXt2FFt-62" value="" style="ellipse;whiteSpace=wrap;html=1;aspect=fixed;strokeWidth=1;" vertex="1" parent="1">
          <mxGeometry x="214" y="1122.5" width="10" height="10" as="geometry" />
        </mxCell>
        <mxCell id="d06oNdfRbxV0elXt2FFt-63" value="" style="endArrow=none;html=1;rounded=0;strokeWidth=2;entryX=0.5;entryY=1;entryDx=0;entryDy=0;exitX=0.5;exitY=0;exitDx=0;exitDy=0;exitPerimeter=0;" edge="1" parent="1" source="d06oNdfRbxV0elXt2FFt-64" target="d06oNdfRbxV0elXt2FFt-62">
          <mxGeometry width="50" height="50" relative="1" as="geometry">
            <mxPoint x="219" y="1182.5" as="sourcePoint" />
            <mxPoint x="218.79999999999995" y="1132.5" as="targetPoint" />
            <Array as="points">
              <mxPoint x="284" y="1162.5" />
              <mxPoint x="219" y="1162.5" />
            </Array>
          </mxGeometry>
        </mxCell>
        <mxCell id="d06oNdfRbxV0elXt2FFt-64" value="" style="pointerEvents=1;verticalLabelPosition=bottom;shadow=0;dashed=0;align=center;html=1;verticalAlign=top;shape=mxgraph.electrical.signal_sources.protective_earth;strokeWidth=2;" vertex="1" parent="1">
          <mxGeometry x="271.5" y="1182.5" width="25" height="20" as="geometry" />
        </mxCell>
        <mxCell id="d06oNdfRbxV0elXt2FFt-65" value="" style="endArrow=none;html=1;rounded=0;strokeWidth=5;" edge="1" parent="1">
          <mxGeometry width="50" height="50" relative="1" as="geometry">
            <mxPoint x="278.67" y="910" as="sourcePoint" />
            <mxPoint x="278.67" y="870" as="targetPoint" />
          </mxGeometry>
        </mxCell>
        <mxCell id="d06oNdfRbxV0elXt2FFt-66" value="" style="endArrow=none;html=1;rounded=0;strokeWidth=5;" edge="1" parent="1">
          <mxGeometry width="50" height="50" relative="1" as="geometry">
            <mxPoint x="244.39999999999998" y="1132.5" as="sourcePoint" />
            <mxPoint x="244" y="1092.5" as="targetPoint" />
          </mxGeometry>
        </mxCell>
        <mxCell id="d06oNdfRbxV0elXt2FFt-67" value="" style="endArrow=none;html=1;rounded=0;strokeWidth=2;" edge="1" parent="1" source="d06oNdfRbxV0elXt2FFt-90">
          <mxGeometry width="50" height="50" relative="1" as="geometry">
            <mxPoint x="144" y="912.5" as="sourcePoint" />
            <mxPoint x="279" y="890.5" as="targetPoint" />
            <Array as="points">
              <mxPoint x="144" y="892.5" />
            </Array>
          </mxGeometry>
        </mxCell>
        <mxCell id="d06oNdfRbxV0elXt2FFt-68" value="" style="endArrow=none;html=1;rounded=0;strokeWidth=2;" edge="1" parent="1">
          <mxGeometry width="50" height="50" relative="1" as="geometry">
            <mxPoint x="104" y="939.86" as="sourcePoint" />
            <mxPoint x="144" y="939.86" as="targetPoint" />
          </mxGeometry>
        </mxCell>
        <mxCell id="d06oNdfRbxV0elXt2FFt-69" value="&lt;div&gt;&lt;span style=&quot;font-size: 16px; background-color: transparent; color: light-dark(rgb(0, 0, 0), rgb(255, 255, 255));&quot;&gt;V&lt;/span&gt;&lt;sub style=&quot;background-color: transparent; color: light-dark(rgb(0, 0, 0), rgb(255, 255, 255));&quot;&gt;1in&lt;/sub&gt;&lt;span style=&quot;font-size: 16px; background-color: transparent; color: light-dark(rgb(0, 0, 0), rgb(255, 255, 255));&quot;&gt;&amp;nbsp;&quot;1&quot;&lt;/span&gt;&lt;/div&gt;" style="text;html=1;align=center;verticalAlign=middle;whiteSpace=wrap;rounded=0;" vertex="1" parent="1">
          <mxGeometry x="20" y="925" width="90" height="30" as="geometry" />
        </mxCell>
        <mxCell id="d06oNdfRbxV0elXt2FFt-70" value="" style="endArrow=none;html=1;rounded=0;strokeWidth=2;entryX=0.5;entryY=0;entryDx=0;entryDy=0;" edge="1" parent="1" target="d06oNdfRbxV0elXt2FFt-61">
          <mxGeometry width="50" height="50" relative="1" as="geometry">
            <mxPoint x="284" y="972.5" as="sourcePoint" />
            <mxPoint x="244" y="1032.5" as="targetPoint" />
            <Array as="points">
              <mxPoint x="284" y="1062.5" />
              <mxPoint x="219" y="1062.5" />
            </Array>
          </mxGeometry>
        </mxCell>
        <mxCell id="d06oNdfRbxV0elXt2FFt-71" value="" style="endArrow=none;html=1;rounded=0;strokeWidth=2;" edge="1" parent="1" target="d06oNdfRbxV0elXt2FFt-72">
          <mxGeometry width="50" height="50" relative="1" as="geometry">
            <mxPoint x="249" y="810.4" as="sourcePoint" />
            <mxPoint x="319" y="810" as="targetPoint" />
          </mxGeometry>
        </mxCell>
        <mxCell id="d06oNdfRbxV0elXt2FFt-72" value="" style="shape=waypoint;sketch=0;fillStyle=solid;size=6;pointerEvents=1;points=[];fillColor=none;resizable=0;rotatable=0;perimeter=centerPerimeter;snapToPoint=1;" vertex="1" parent="1">
          <mxGeometry x="274" y="800" width="20" height="20" as="geometry" />
        </mxCell>
        <mxCell id="d06oNdfRbxV0elXt2FFt-73" value="" style="shape=waypoint;sketch=0;fillStyle=solid;size=6;pointerEvents=1;points=[];fillColor=none;resizable=0;rotatable=0;perimeter=centerPerimeter;snapToPoint=1;" vertex="1" parent="1">
          <mxGeometry x="274.33" y="1052.5" width="20" height="20" as="geometry" />
        </mxCell>
        <mxCell id="d06oNdfRbxV0elXt2FFt-74" value="" style="shape=waypoint;sketch=0;fillStyle=solid;size=6;pointerEvents=1;points=[];fillColor=none;resizable=0;rotatable=0;perimeter=centerPerimeter;snapToPoint=1;" vertex="1" parent="1">
          <mxGeometry x="179" y="960" width="20" height="20" as="geometry" />
        </mxCell>
        <mxCell id="d06oNdfRbxV0elXt2FFt-75" value="&lt;div&gt;&lt;span style=&quot;font-size: 16px;&quot;&gt;GND&lt;/span&gt;&lt;/div&gt;" style="text;html=1;align=center;verticalAlign=middle;whiteSpace=wrap;rounded=0;" vertex="1" parent="1">
          <mxGeometry x="294" y="1182.5" width="62.5" height="30" as="geometry" />
        </mxCell>
        <mxCell id="d06oNdfRbxV0elXt2FFt-76" value="逆スイッチ" style="shape=callout;whiteSpace=wrap;html=1;perimeter=calloutPerimeter;rounded=1;position2=0;size=10;position=0.25;base=40;arcSize=23;" vertex="1" parent="1">
          <mxGeometry x="390" y="1070" width="90" height="30" as="geometry" />
        </mxCell>
        <mxCell id="d06oNdfRbxV0elXt2FFt-77" value="順スイッチ" style="shape=callout;whiteSpace=wrap;html=1;perimeter=calloutPerimeter;rounded=1;position2=1;size=10;position=0.25;base=40;arcSize=23;direction=west;" vertex="1" parent="1">
          <mxGeometry x="314" y="910" width="80" height="32.5" as="geometry" />
        </mxCell>
        <mxCell id="d06oNdfRbxV0elXt2FFt-78" value="" style="ellipse;whiteSpace=wrap;html=1;aspect=fixed;strokeWidth=1;" vertex="1" parent="1">
          <mxGeometry x="279.33" y="920" width="10" height="10" as="geometry" />
        </mxCell>
        <mxCell id="d06oNdfRbxV0elXt2FFt-79" value="" style="ellipse;whiteSpace=wrap;html=1;aspect=fixed;strokeWidth=1;" vertex="1" parent="1">
          <mxGeometry x="279.33" y="950" width="10" height="10" as="geometry" />
        </mxCell>
        <mxCell id="d06oNdfRbxV0elXt2FFt-80" value="" style="endArrow=none;html=1;rounded=0;strokeWidth=2;" edge="1" parent="1">
          <mxGeometry width="50" height="50" relative="1" as="geometry">
            <mxPoint x="284.33" y="972.5" as="sourcePoint" />
            <mxPoint x="284.12999999999994" y="960" as="targetPoint" />
            <Array as="points" />
          </mxGeometry>
        </mxCell>
        <mxCell id="d06oNdfRbxV0elXt2FFt-81" value="" style="endArrow=none;html=1;rounded=0;strokeWidth=5;" edge="1" parent="1">
          <mxGeometry width="50" height="50" relative="1" as="geometry">
            <mxPoint x="279" y="960" as="sourcePoint" />
            <mxPoint x="279" y="920" as="targetPoint" />
          </mxGeometry>
        </mxCell>
        <mxCell id="d06oNdfRbxV0elXt2FFt-82" value="" style="endArrow=none;html=1;rounded=0;strokeWidth=2;" edge="1" parent="1">
          <mxGeometry width="50" height="50" relative="1" as="geometry">
            <mxPoint x="369" y="1112.5" as="sourcePoint" />
            <mxPoint x="279" y="942.5" as="targetPoint" />
            <Array as="points">
              <mxPoint x="309" y="1112.5" />
              <mxPoint x="189" y="1012.5" />
              <mxPoint x="189" y="942.5" />
            </Array>
          </mxGeometry>
        </mxCell>
        <mxCell id="d06oNdfRbxV0elXt2FFt-83" value="" style="ellipse;whiteSpace=wrap;html=1;aspect=fixed;strokeWidth=1;" vertex="1" parent="1">
          <mxGeometry x="339" y="1092.5" width="10" height="10" as="geometry" />
        </mxCell>
        <mxCell id="d06oNdfRbxV0elXt2FFt-84" value="" style="ellipse;whiteSpace=wrap;html=1;aspect=fixed;strokeWidth=1;" vertex="1" parent="1">
          <mxGeometry x="339" y="1122.5" width="10" height="10" as="geometry" />
        </mxCell>
        <mxCell id="d06oNdfRbxV0elXt2FFt-85" value="" style="endArrow=none;html=1;rounded=0;strokeWidth=5;" edge="1" parent="1">
          <mxGeometry width="50" height="50" relative="1" as="geometry">
            <mxPoint x="369.19999999999993" y="1132.5" as="sourcePoint" />
            <mxPoint x="368.79999999999995" y="1092.5" as="targetPoint" />
          </mxGeometry>
        </mxCell>
        <mxCell id="d06oNdfRbxV0elXt2FFt-86" value="" style="endArrow=none;html=1;rounded=0;strokeWidth=2;entryX=0.5;entryY=0;entryDx=0;entryDy=0;" edge="1" parent="1" target="d06oNdfRbxV0elXt2FFt-83">
          <mxGeometry width="50" height="50" relative="1" as="geometry">
            <mxPoint x="284" y="1062.5" as="sourcePoint" />
            <mxPoint x="369" y="1032.5" as="targetPoint" />
            <Array as="points">
              <mxPoint x="344" y="1062.5" />
            </Array>
          </mxGeometry>
        </mxCell>
        <mxCell id="d06oNdfRbxV0elXt2FFt-87" value="" style="endArrow=none;html=1;rounded=0;strokeWidth=2;entryX=0.5;entryY=1;entryDx=0;entryDy=0;" edge="1" parent="1" target="d06oNdfRbxV0elXt2FFt-84">
          <mxGeometry width="50" height="50" relative="1" as="geometry">
            <mxPoint x="284" y="1162.5" as="sourcePoint" />
            <mxPoint x="304" y="1162.5" as="targetPoint" />
            <Array as="points">
              <mxPoint x="344" y="1162.5" />
            </Array>
          </mxGeometry>
        </mxCell>
        <mxCell id="d06oNdfRbxV0elXt2FFt-88" value="" style="endArrow=none;html=1;rounded=0;strokeWidth=2;" edge="1" parent="1" target="d06oNdfRbxV0elXt2FFt-74">
          <mxGeometry width="50" height="50" relative="1" as="geometry">
            <mxPoint x="104" y="970.5" as="sourcePoint" />
            <mxPoint x="184" y="972.5" as="targetPoint" />
          </mxGeometry>
        </mxCell>
        <mxCell id="d06oNdfRbxV0elXt2FFt-89" value="" style="endArrow=none;html=1;rounded=0;strokeWidth=2;entryX=0.564;entryY=0.639;entryDx=0;entryDy=0;entryPerimeter=0;" edge="1" parent="1" target="d06oNdfRbxV0elXt2FFt-90">
          <mxGeometry width="50" height="50" relative="1" as="geometry">
            <mxPoint x="244" y="1112.5" as="sourcePoint" />
            <mxPoint x="154" y="982.5" as="targetPoint" />
            <Array as="points">
              <mxPoint x="184" y="1112.5" />
              <mxPoint x="144" y="1072.5" />
            </Array>
          </mxGeometry>
        </mxCell>
        <mxCell id="d06oNdfRbxV0elXt2FFt-90" value="" style="shape=waypoint;sketch=0;fillStyle=solid;size=6;pointerEvents=1;points=[];fillColor=none;resizable=0;rotatable=0;perimeter=centerPerimeter;snapToPoint=1;" vertex="1" parent="1">
          <mxGeometry x="134" y="930" width="20" height="20" as="geometry" />
        </mxCell>
        <mxCell id="d06oNdfRbxV0elXt2FFt-91" value="&lt;div&gt;&lt;span style=&quot;font-size: 16px; background-color: transparent; color: light-dark(rgb(0, 0, 0), rgb(255, 255, 255));&quot;&gt;V&lt;/span&gt;&lt;sub style=&quot;background-color: transparent; color: light-dark(rgb(0, 0, 0), rgb(255, 255, 255));&quot;&gt;2in&lt;/sub&gt;&lt;span style=&quot;font-size: 16px; background-color: transparent; color: light-dark(rgb(0, 0, 0), rgb(255, 255, 255));&quot;&gt;&amp;nbsp;&quot;1&quot;&lt;/span&gt;&lt;/div&gt;" style="text;html=1;align=center;verticalAlign=middle;whiteSpace=wrap;rounded=0;" vertex="1" parent="1">
          <mxGeometry x="20" y="955" width="90" height="30" as="geometry" />
        </mxCell>
        <mxCell id="d06oNdfRbxV0elXt2FFt-92" value="" style="endArrow=none;html=1;rounded=0;strokeWidth=2;" edge="1" parent="1">
          <mxGeometry width="50" height="50" relative="1" as="geometry">
            <mxPoint x="284" y="1002.5" as="sourcePoint" />
            <mxPoint x="334" y="1002.5" as="targetPoint" />
          </mxGeometry>
        </mxCell>
        <mxCell id="d06oNdfRbxV0elXt2FFt-93" value="" style="shape=waypoint;sketch=0;fillStyle=solid;size=6;pointerEvents=1;points=[];fillColor=none;resizable=0;rotatable=0;perimeter=centerPerimeter;snapToPoint=1;" vertex="1" parent="1">
          <mxGeometry x="274.33" y="992.5" width="20" height="20" as="geometry" />
        </mxCell>
        <mxCell id="d06oNdfRbxV0elXt2FFt-94" value="&lt;div&gt;&lt;span style=&quot;font-size: 16px; background-color: transparent; color: light-dark(rgb(0, 0, 0), rgb(255, 255, 255));&quot;&gt;V&lt;/span&gt;&lt;sub style=&quot;background-color: transparent; color: light-dark(rgb(0, 0, 0), rgb(255, 255, 255));&quot;&gt;out&lt;/sub&gt;&lt;span style=&quot;font-size: 16px; background-color: transparent; color: light-dark(rgb(0, 0, 0), rgb(255, 255, 255));&quot;&gt;&amp;nbsp;&quot;1&quot;&lt;/span&gt;&lt;/div&gt;" style="text;html=1;align=center;verticalAlign=middle;whiteSpace=wrap;rounded=0;" vertex="1" parent="1">
          <mxGeometry x="324" y="990" width="90" height="30" as="geometry" />
        </mxCell>
        <mxCell id="d06oNdfRbxV0elXt2FFt-95" value="" style="endArrow=none;html=1;rounded=0;strokeWidth=2;" edge="1" parent="1" source="d06oNdfRbxV0elXt2FFt-112">
          <mxGeometry width="50" height="50" relative="1" as="geometry">
            <mxPoint x="706" y="810.4000000000001" as="sourcePoint" />
            <mxPoint x="776" y="810" as="targetPoint" />
          </mxGeometry>
        </mxCell>
        <mxCell id="d06oNdfRbxV0elXt2FFt-96" value="&lt;font style=&quot;font-size: 16px;&quot;&gt;V₀[V]&lt;/font&gt;" style="text;html=1;align=center;verticalAlign=middle;whiteSpace=wrap;rounded=0;" vertex="1" parent="1">
          <mxGeometry x="646" y="790" width="60" height="30" as="geometry" />
        </mxCell>
        <mxCell id="d06oNdfRbxV0elXt2FFt-97" value="" style="ellipse;whiteSpace=wrap;html=1;aspect=fixed;strokeWidth=1;" vertex="1" parent="1">
          <mxGeometry x="736" y="870" width="10" height="10" as="geometry" />
        </mxCell>
        <mxCell id="d06oNdfRbxV0elXt2FFt-98" value="" style="endArrow=none;html=1;rounded=0;strokeWidth=2;exitX=0.5;exitY=0;exitDx=0;exitDy=0;" edge="1" parent="1" source="d06oNdfRbxV0elXt2FFt-97">
          <mxGeometry width="50" height="50" relative="1" as="geometry">
            <mxPoint x="746" y="850" as="sourcePoint" />
            <mxPoint x="741" y="810" as="targetPoint" />
          </mxGeometry>
        </mxCell>
        <mxCell id="d06oNdfRbxV0elXt2FFt-99" value="" style="ellipse;whiteSpace=wrap;html=1;aspect=fixed;strokeWidth=1;" vertex="1" parent="1">
          <mxGeometry x="736" y="900" width="10" height="10" as="geometry" />
        </mxCell>
        <mxCell id="d06oNdfRbxV0elXt2FFt-100" value="" style="endArrow=none;html=1;rounded=0;strokeWidth=2;" edge="1" parent="1">
          <mxGeometry width="50" height="50" relative="1" as="geometry">
            <mxPoint x="741" y="922.5" as="sourcePoint" />
            <mxPoint x="740.8" y="910" as="targetPoint" />
            <Array as="points" />
          </mxGeometry>
        </mxCell>
        <mxCell id="d06oNdfRbxV0elXt2FFt-101" value="" style="ellipse;whiteSpace=wrap;html=1;aspect=fixed;strokeWidth=1;" vertex="1" parent="1">
          <mxGeometry x="671" y="1092.5" width="10" height="10" as="geometry" />
        </mxCell>
        <mxCell id="d06oNdfRbxV0elXt2FFt-102" value="" style="ellipse;whiteSpace=wrap;html=1;aspect=fixed;strokeWidth=1;" vertex="1" parent="1">
          <mxGeometry x="671" y="1122.5" width="10" height="10" as="geometry" />
        </mxCell>
        <mxCell id="d06oNdfRbxV0elXt2FFt-103" value="" style="endArrow=none;html=1;rounded=0;strokeWidth=2;entryX=0.5;entryY=1;entryDx=0;entryDy=0;exitX=0.5;exitY=0;exitDx=0;exitDy=0;exitPerimeter=0;" edge="1" parent="1" source="d06oNdfRbxV0elXt2FFt-104" target="d06oNdfRbxV0elXt2FFt-102">
          <mxGeometry width="50" height="50" relative="1" as="geometry">
            <mxPoint x="676" y="1182.5" as="sourcePoint" />
            <mxPoint x="675.8" y="1132.5" as="targetPoint" />
            <Array as="points">
              <mxPoint x="741" y="1162.5" />
              <mxPoint x="676" y="1162.5" />
            </Array>
          </mxGeometry>
        </mxCell>
        <mxCell id="d06oNdfRbxV0elXt2FFt-104" value="" style="pointerEvents=1;verticalLabelPosition=bottom;shadow=0;dashed=0;align=center;html=1;verticalAlign=top;shape=mxgraph.electrical.signal_sources.protective_earth;strokeWidth=2;" vertex="1" parent="1">
          <mxGeometry x="728.5" y="1182.5" width="25" height="20" as="geometry" />
        </mxCell>
        <mxCell id="d06oNdfRbxV0elXt2FFt-105" value="" style="endArrow=none;html=1;rounded=0;strokeWidth=5;" edge="1" parent="1">
          <mxGeometry width="50" height="50" relative="1" as="geometry">
            <mxPoint x="750.0000000000001" y="910" as="sourcePoint" />
            <mxPoint x="750.0000000000001" y="870" as="targetPoint" />
          </mxGeometry>
        </mxCell>
        <mxCell id="d06oNdfRbxV0elXt2FFt-106" value="" style="endArrow=none;html=1;rounded=0;strokeWidth=5;" edge="1" parent="1">
          <mxGeometry width="50" height="50" relative="1" as="geometry">
            <mxPoint x="657.9" y="1132.5" as="sourcePoint" />
            <mxPoint x="657.5" y="1092.5" as="targetPoint" />
          </mxGeometry>
        </mxCell>
        <mxCell id="d06oNdfRbxV0elXt2FFt-107" value="" style="endArrow=none;html=1;rounded=0;strokeWidth=2;" edge="1" parent="1" source="d06oNdfRbxV0elXt2FFt-130">
          <mxGeometry width="50" height="50" relative="1" as="geometry">
            <mxPoint x="601" y="912.5" as="sourcePoint" />
            <mxPoint x="750" y="890" as="targetPoint" />
            <Array as="points">
              <mxPoint x="601" y="890" />
            </Array>
          </mxGeometry>
        </mxCell>
        <mxCell id="d06oNdfRbxV0elXt2FFt-108" value="" style="endArrow=none;html=1;rounded=0;strokeWidth=2;" edge="1" parent="1">
          <mxGeometry width="50" height="50" relative="1" as="geometry">
            <mxPoint x="561" y="939.8600000000001" as="sourcePoint" />
            <mxPoint x="601" y="939.8600000000001" as="targetPoint" />
          </mxGeometry>
        </mxCell>
        <mxCell id="d06oNdfRbxV0elXt2FFt-109" value="&lt;div&gt;&lt;span style=&quot;font-size: 16px; background-color: transparent; color: light-dark(rgb(0, 0, 0), rgb(255, 255, 255));&quot;&gt;V&lt;/span&gt;&lt;sub style=&quot;background-color: transparent; color: light-dark(rgb(0, 0, 0), rgb(255, 255, 255));&quot;&gt;1in&lt;/sub&gt;&lt;span style=&quot;font-size: 16px; background-color: transparent; color: light-dark(rgb(0, 0, 0), rgb(255, 255, 255));&quot;&gt;&amp;nbsp;&quot;0&quot;&lt;/span&gt;&lt;/div&gt;" style="text;html=1;align=center;verticalAlign=middle;whiteSpace=wrap;rounded=0;" vertex="1" parent="1">
          <mxGeometry x="477" y="925" width="90" height="30" as="geometry" />
        </mxCell>
        <mxCell id="d06oNdfRbxV0elXt2FFt-110" value="" style="endArrow=none;html=1;rounded=0;strokeWidth=2;entryX=0.5;entryY=0;entryDx=0;entryDy=0;" edge="1" parent="1" target="d06oNdfRbxV0elXt2FFt-101">
          <mxGeometry width="50" height="50" relative="1" as="geometry">
            <mxPoint x="741" y="972.5" as="sourcePoint" />
            <mxPoint x="701" y="1032.5" as="targetPoint" />
            <Array as="points">
              <mxPoint x="741" y="1062.5" />
              <mxPoint x="676" y="1062.5" />
            </Array>
          </mxGeometry>
        </mxCell>
        <mxCell id="d06oNdfRbxV0elXt2FFt-111" value="" style="endArrow=none;html=1;rounded=0;strokeWidth=2;" edge="1" parent="1" target="d06oNdfRbxV0elXt2FFt-112">
          <mxGeometry width="50" height="50" relative="1" as="geometry">
            <mxPoint x="706" y="810.4000000000001" as="sourcePoint" />
            <mxPoint x="776" y="810" as="targetPoint" />
          </mxGeometry>
        </mxCell>
        <mxCell id="d06oNdfRbxV0elXt2FFt-112" value="" style="shape=waypoint;sketch=0;fillStyle=solid;size=6;pointerEvents=1;points=[];fillColor=none;resizable=0;rotatable=0;perimeter=centerPerimeter;snapToPoint=1;" vertex="1" parent="1">
          <mxGeometry x="731" y="800" width="20" height="20" as="geometry" />
        </mxCell>
        <mxCell id="d06oNdfRbxV0elXt2FFt-113" value="" style="shape=waypoint;sketch=0;fillStyle=solid;size=6;pointerEvents=1;points=[];fillColor=none;resizable=0;rotatable=0;perimeter=centerPerimeter;snapToPoint=1;" vertex="1" parent="1">
          <mxGeometry x="731.3299999999999" y="1052.5" width="20" height="20" as="geometry" />
        </mxCell>
        <mxCell id="d06oNdfRbxV0elXt2FFt-114" value="" style="shape=waypoint;sketch=0;fillStyle=solid;size=6;pointerEvents=1;points=[];fillColor=none;resizable=0;rotatable=0;perimeter=centerPerimeter;snapToPoint=1;" vertex="1" parent="1">
          <mxGeometry x="636" y="960" width="20" height="20" as="geometry" />
        </mxCell>
        <mxCell id="d06oNdfRbxV0elXt2FFt-115" value="&lt;div&gt;&lt;span style=&quot;font-size: 16px;&quot;&gt;GND&lt;/span&gt;&lt;/div&gt;" style="text;html=1;align=center;verticalAlign=middle;whiteSpace=wrap;rounded=0;" vertex="1" parent="1">
          <mxGeometry x="751" y="1182.5" width="62.5" height="30" as="geometry" />
        </mxCell>
        <mxCell id="d06oNdfRbxV0elXt2FFt-116" value="逆スイッチ" style="shape=callout;whiteSpace=wrap;html=1;perimeter=calloutPerimeter;rounded=1;position2=0;size=10;position=0.25;base=40;arcSize=23;" vertex="1" parent="1">
          <mxGeometry x="770" y="880" width="90" height="30" as="geometry" />
        </mxCell>
        <mxCell id="d06oNdfRbxV0elXt2FFt-117" value="順スイッチ" style="shape=callout;whiteSpace=wrap;html=1;perimeter=calloutPerimeter;rounded=1;position2=1;size=10;position=0.25;base=40;arcSize=23;direction=west;" vertex="1" parent="1">
          <mxGeometry x="827" y="1122.5" width="80" height="32.5" as="geometry" />
        </mxCell>
        <mxCell id="d06oNdfRbxV0elXt2FFt-118" value="" style="ellipse;whiteSpace=wrap;html=1;aspect=fixed;strokeWidth=1;" vertex="1" parent="1">
          <mxGeometry x="736.3299999999999" y="920" width="10" height="10" as="geometry" />
        </mxCell>
        <mxCell id="d06oNdfRbxV0elXt2FFt-119" value="" style="ellipse;whiteSpace=wrap;html=1;aspect=fixed;strokeWidth=1;" vertex="1" parent="1">
          <mxGeometry x="736.3299999999999" y="950" width="10" height="10" as="geometry" />
        </mxCell>
        <mxCell id="d06oNdfRbxV0elXt2FFt-120" value="" style="endArrow=none;html=1;rounded=0;strokeWidth=2;" edge="1" parent="1">
          <mxGeometry width="50" height="50" relative="1" as="geometry">
            <mxPoint x="741.3299999999999" y="972.5" as="sourcePoint" />
            <mxPoint x="741.1299999999999" y="960" as="targetPoint" />
            <Array as="points" />
          </mxGeometry>
        </mxCell>
        <mxCell id="d06oNdfRbxV0elXt2FFt-121" value="" style="endArrow=none;html=1;rounded=0;strokeWidth=5;" edge="1" parent="1">
          <mxGeometry width="50" height="50" relative="1" as="geometry">
            <mxPoint x="750" y="960" as="sourcePoint" />
            <mxPoint x="750" y="920" as="targetPoint" />
          </mxGeometry>
        </mxCell>
        <mxCell id="d06oNdfRbxV0elXt2FFt-122" value="" style="endArrow=none;html=1;rounded=0;strokeWidth=2;" edge="1" parent="1">
          <mxGeometry width="50" height="50" relative="1" as="geometry">
            <mxPoint x="780" y="1110" as="sourcePoint" />
            <mxPoint x="750" y="940" as="targetPoint" />
            <Array as="points">
              <mxPoint x="766" y="1112.5" />
              <mxPoint x="646" y="1012.5" />
              <mxPoint x="646" y="940" />
            </Array>
          </mxGeometry>
        </mxCell>
        <mxCell id="d06oNdfRbxV0elXt2FFt-123" value="" style="ellipse;whiteSpace=wrap;html=1;aspect=fixed;strokeWidth=1;" vertex="1" parent="1">
          <mxGeometry x="796" y="1092.5" width="10" height="10" as="geometry" />
        </mxCell>
        <mxCell id="d06oNdfRbxV0elXt2FFt-124" value="" style="ellipse;whiteSpace=wrap;html=1;aspect=fixed;strokeWidth=1;" vertex="1" parent="1">
          <mxGeometry x="796" y="1122.5" width="10" height="10" as="geometry" />
        </mxCell>
        <mxCell id="d06oNdfRbxV0elXt2FFt-125" value="" style="endArrow=none;html=1;rounded=0;strokeWidth=5;" edge="1" parent="1">
          <mxGeometry width="50" height="50" relative="1" as="geometry">
            <mxPoint x="782.4499999999999" y="1132.5" as="sourcePoint" />
            <mxPoint x="782.05" y="1092.5" as="targetPoint" />
          </mxGeometry>
        </mxCell>
        <mxCell id="d06oNdfRbxV0elXt2FFt-126" value="" style="endArrow=none;html=1;rounded=0;strokeWidth=2;entryX=0.5;entryY=0;entryDx=0;entryDy=0;" edge="1" parent="1" target="d06oNdfRbxV0elXt2FFt-123">
          <mxGeometry width="50" height="50" relative="1" as="geometry">
            <mxPoint x="741" y="1062.5" as="sourcePoint" />
            <mxPoint x="826" y="1032.5" as="targetPoint" />
            <Array as="points">
              <mxPoint x="801" y="1062.5" />
            </Array>
          </mxGeometry>
        </mxCell>
        <mxCell id="d06oNdfRbxV0elXt2FFt-127" value="" style="endArrow=none;html=1;rounded=0;strokeWidth=2;entryX=0.5;entryY=1;entryDx=0;entryDy=0;" edge="1" parent="1" target="d06oNdfRbxV0elXt2FFt-124">
          <mxGeometry width="50" height="50" relative="1" as="geometry">
            <mxPoint x="741" y="1162.5" as="sourcePoint" />
            <mxPoint x="761" y="1162.5" as="targetPoint" />
            <Array as="points">
              <mxPoint x="801" y="1162.5" />
            </Array>
          </mxGeometry>
        </mxCell>
        <mxCell id="d06oNdfRbxV0elXt2FFt-128" value="" style="endArrow=none;html=1;rounded=0;strokeWidth=2;" edge="1" parent="1" target="d06oNdfRbxV0elXt2FFt-114">
          <mxGeometry width="50" height="50" relative="1" as="geometry">
            <mxPoint x="561" y="970.5" as="sourcePoint" />
            <mxPoint x="641" y="972.5" as="targetPoint" />
          </mxGeometry>
        </mxCell>
        <mxCell id="d06oNdfRbxV0elXt2FFt-129" value="" style="endArrow=none;html=1;rounded=0;strokeWidth=2;entryX=0.564;entryY=0.639;entryDx=0;entryDy=0;entryPerimeter=0;" edge="1" parent="1" target="d06oNdfRbxV0elXt2FFt-130">
          <mxGeometry width="50" height="50" relative="1" as="geometry">
            <mxPoint x="660" y="1110" as="sourcePoint" />
            <mxPoint x="611" y="982.5" as="targetPoint" />
            <Array as="points">
              <mxPoint x="641" y="1112.5" />
              <mxPoint x="601" y="1072.5" />
            </Array>
          </mxGeometry>
        </mxCell>
        <mxCell id="d06oNdfRbxV0elXt2FFt-130" value="" style="shape=waypoint;sketch=0;fillStyle=solid;size=6;pointerEvents=1;points=[];fillColor=none;resizable=0;rotatable=0;perimeter=centerPerimeter;snapToPoint=1;" vertex="1" parent="1">
          <mxGeometry x="591" y="930" width="20" height="20" as="geometry" />
        </mxCell>
        <mxCell id="d06oNdfRbxV0elXt2FFt-131" value="&lt;div&gt;&lt;span style=&quot;font-size: 16px; background-color: transparent; color: light-dark(rgb(0, 0, 0), rgb(255, 255, 255));&quot;&gt;V&lt;/span&gt;&lt;sub style=&quot;background-color: transparent; color: light-dark(rgb(0, 0, 0), rgb(255, 255, 255));&quot;&gt;2in&lt;/sub&gt;&lt;span style=&quot;font-size: 16px; background-color: transparent; color: light-dark(rgb(0, 0, 0), rgb(255, 255, 255));&quot;&gt;&amp;nbsp;&quot;0&quot;&lt;/span&gt;&lt;/div&gt;" style="text;html=1;align=center;verticalAlign=middle;whiteSpace=wrap;rounded=0;" vertex="1" parent="1">
          <mxGeometry x="477" y="955" width="90" height="30" as="geometry" />
        </mxCell>
        <mxCell id="d06oNdfRbxV0elXt2FFt-132" value="" style="endArrow=none;html=1;rounded=0;strokeWidth=2;" edge="1" parent="1">
          <mxGeometry width="50" height="50" relative="1" as="geometry">
            <mxPoint x="741" y="1002.5" as="sourcePoint" />
            <mxPoint x="791" y="1002.5" as="targetPoint" />
          </mxGeometry>
        </mxCell>
        <mxCell id="d06oNdfRbxV0elXt2FFt-133" value="" style="shape=waypoint;sketch=0;fillStyle=solid;size=6;pointerEvents=1;points=[];fillColor=none;resizable=0;rotatable=0;perimeter=centerPerimeter;snapToPoint=1;" vertex="1" parent="1">
          <mxGeometry x="731.3299999999999" y="992.5" width="20" height="20" as="geometry" />
        </mxCell>
        <mxCell id="d06oNdfRbxV0elXt2FFt-134" value="" style="endArrow=none;html=1;rounded=0;strokeWidth=2;" edge="1" parent="1" source="d06oNdfRbxV0elXt2FFt-139">
          <mxGeometry width="50" height="50" relative="1" as="geometry">
            <mxPoint x="1147" y="780.4" as="sourcePoint" />
            <mxPoint x="1217" y="780" as="targetPoint" />
            <Array as="points">
              <mxPoint x="1210" y="780" />
            </Array>
          </mxGeometry>
        </mxCell>
        <mxCell id="d06oNdfRbxV0elXt2FFt-135" value="&lt;font style=&quot;font-size: 16px;&quot;&gt;V₀[V]&lt;/font&gt;" style="text;html=1;align=center;verticalAlign=middle;whiteSpace=wrap;rounded=0;" vertex="1" parent="1">
          <mxGeometry x="1087" y="760" width="60" height="30" as="geometry" />
        </mxCell>
        <mxCell id="d06oNdfRbxV0elXt2FFt-136" value="" style="pointerEvents=1;verticalLabelPosition=bottom;shadow=0;dashed=0;align=center;html=1;verticalAlign=top;shape=mxgraph.electrical.signal_sources.protective_earth;strokeWidth=2;" vertex="1" parent="1">
          <mxGeometry x="1168.5" y="1172.5" width="25" height="20" as="geometry" />
        </mxCell>
        <mxCell id="d06oNdfRbxV0elXt2FFt-137" value="&lt;div&gt;&lt;span style=&quot;font-size: 16px; background-color: transparent; color: light-dark(rgb(0, 0, 0), rgb(255, 255, 255));&quot;&gt;V&lt;/span&gt;&lt;sub style=&quot;background-color: transparent; color: light-dark(rgb(0, 0, 0), rgb(255, 255, 255));&quot;&gt;1in&lt;/sub&gt;&lt;span style=&quot;font-size: 16px; background-color: transparent; color: light-dark(rgb(0, 0, 0), rgb(255, 255, 255));&quot;&gt;&amp;nbsp;&quot;1&quot;&lt;/span&gt;&lt;/div&gt;" style="text;html=1;align=center;verticalAlign=middle;whiteSpace=wrap;rounded=0;" vertex="1" parent="1">
          <mxGeometry x="930" y="997.5" width="90" height="30" as="geometry" />
        </mxCell>
        <mxCell id="d06oNdfRbxV0elXt2FFt-138" value="" style="endArrow=none;html=1;rounded=0;strokeWidth=2;" edge="1" parent="1" target="d06oNdfRbxV0elXt2FFt-139">
          <mxGeometry width="50" height="50" relative="1" as="geometry">
            <mxPoint x="1147" y="780.4" as="sourcePoint" />
            <mxPoint x="1217" y="780" as="targetPoint" />
          </mxGeometry>
        </mxCell>
        <mxCell id="d06oNdfRbxV0elXt2FFt-139" value="" style="shape=waypoint;sketch=0;fillStyle=solid;size=6;pointerEvents=1;points=[];fillColor=none;resizable=0;rotatable=0;perimeter=centerPerimeter;snapToPoint=1;" vertex="1" parent="1">
          <mxGeometry x="1176.33" y="770" width="20" height="20" as="geometry" />
        </mxCell>
        <mxCell id="d06oNdfRbxV0elXt2FFt-140" value="&lt;div&gt;&lt;span style=&quot;font-size: 16px;&quot;&gt;GND&lt;/span&gt;&lt;/div&gt;" style="text;html=1;align=center;verticalAlign=middle;whiteSpace=wrap;rounded=0;" vertex="1" parent="1">
          <mxGeometry x="1191.33" y="1172.5" width="62.5" height="30" as="geometry" />
        </mxCell>
        <mxCell id="d06oNdfRbxV0elXt2FFt-141" value="逆スイッチ" style="shape=callout;whiteSpace=wrap;html=1;perimeter=calloutPerimeter;rounded=1;position2=0;size=10;position=0.25;base=40;arcSize=23;" vertex="1" parent="1">
          <mxGeometry x="1260" y="810" width="90" height="30" as="geometry" />
        </mxCell>
        <mxCell id="d06oNdfRbxV0elXt2FFt-142" value="順スイッチ" style="shape=callout;whiteSpace=wrap;html=1;perimeter=calloutPerimeter;rounded=1;position2=1;size=10;position=0.25;base=40;arcSize=23;direction=west;" vertex="1" parent="1">
          <mxGeometry x="1230" y="1080" width="80" height="32.5" as="geometry" />
        </mxCell>
        <mxCell id="d06oNdfRbxV0elXt2FFt-143" value="&lt;div&gt;&lt;span style=&quot;font-size: 16px; background-color: transparent; color: light-dark(rgb(0, 0, 0), rgb(255, 255, 255));&quot;&gt;V&lt;/span&gt;&lt;sub style=&quot;background-color: transparent; color: light-dark(rgb(0, 0, 0), rgb(255, 255, 255));&quot;&gt;2in&lt;/sub&gt;&lt;span style=&quot;font-size: 16px; background-color: transparent; color: light-dark(rgb(0, 0, 0), rgb(255, 255, 255));&quot;&gt;&amp;nbsp;&quot;1&quot;&lt;/span&gt;&lt;/div&gt;" style="text;html=1;align=center;verticalAlign=middle;whiteSpace=wrap;rounded=0;" vertex="1" parent="1">
          <mxGeometry x="930" y="1027.5" width="90" height="30" as="geometry" />
        </mxCell>
        <mxCell id="d06oNdfRbxV0elXt2FFt-144" value="" style="ellipse;whiteSpace=wrap;html=1;aspect=fixed;strokeWidth=1;" vertex="1" parent="1">
          <mxGeometry x="1176" y="1102.5" width="10" height="10" as="geometry" />
        </mxCell>
        <mxCell id="d06oNdfRbxV0elXt2FFt-145" value="" style="endArrow=none;html=1;rounded=0;strokeWidth=2;exitX=0.5;exitY=1;exitDx=0;exitDy=0;" edge="1" parent="1" source="d06oNdfRbxV0elXt2FFt-144">
          <mxGeometry width="50" height="50" relative="1" as="geometry">
            <mxPoint x="1181" y="1110" as="sourcePoint" />
            <mxPoint x="1181" y="1172.5" as="targetPoint" />
          </mxGeometry>
        </mxCell>
        <mxCell id="d06oNdfRbxV0elXt2FFt-146" value="" style="ellipse;whiteSpace=wrap;html=1;aspect=fixed;strokeWidth=1;" vertex="1" parent="1">
          <mxGeometry x="1176" y="1072.5" width="10" height="10" as="geometry" />
        </mxCell>
        <mxCell id="d06oNdfRbxV0elXt2FFt-147" value="" style="endArrow=none;html=1;rounded=0;strokeWidth=2;" edge="1" parent="1">
          <mxGeometry width="50" height="50" relative="1" as="geometry">
            <mxPoint x="1181" y="1060" as="sourcePoint" />
            <mxPoint x="1180.8" y="1072.5" as="targetPoint" />
            <Array as="points" />
          </mxGeometry>
        </mxCell>
        <mxCell id="d06oNdfRbxV0elXt2FFt-148" value="" style="ellipse;whiteSpace=wrap;html=1;aspect=fixed;strokeWidth=1;" vertex="1" parent="1">
          <mxGeometry x="1111" y="880" width="10" height="10" as="geometry" />
        </mxCell>
        <mxCell id="d06oNdfRbxV0elXt2FFt-149" value="" style="ellipse;whiteSpace=wrap;html=1;aspect=fixed;strokeWidth=1;" vertex="1" parent="1">
          <mxGeometry x="1111" y="850" width="10" height="10" as="geometry" />
        </mxCell>
        <mxCell id="d06oNdfRbxV0elXt2FFt-150" value="" style="endArrow=none;html=1;rounded=0;strokeWidth=2;entryX=0.5;entryY=0;entryDx=0;entryDy=0;" edge="1" parent="1" source="d06oNdfRbxV0elXt2FFt-139" target="d06oNdfRbxV0elXt2FFt-149">
          <mxGeometry width="50" height="50" relative="1" as="geometry">
            <mxPoint x="1110" y="880" as="sourcePoint" />
            <mxPoint x="1121" y="850" as="targetPoint" />
            <Array as="points">
              <mxPoint x="1186" y="820" />
              <mxPoint x="1116" y="820" />
            </Array>
          </mxGeometry>
        </mxCell>
        <mxCell id="d06oNdfRbxV0elXt2FFt-151" value="" style="endArrow=none;html=1;rounded=0;strokeWidth=5;" edge="1" parent="1">
          <mxGeometry width="50" height="50" relative="1" as="geometry">
            <mxPoint x="1175.67" y="1072.5" as="sourcePoint" />
            <mxPoint x="1175.67" y="1112.5" as="targetPoint" />
          </mxGeometry>
        </mxCell>
        <mxCell id="d06oNdfRbxV0elXt2FFt-152" value="" style="endArrow=none;html=1;rounded=0;strokeWidth=5;" edge="1" parent="1">
          <mxGeometry width="50" height="50" relative="1" as="geometry">
            <mxPoint x="1141.4" y="850" as="sourcePoint" />
            <mxPoint x="1141" y="890" as="targetPoint" />
          </mxGeometry>
        </mxCell>
        <mxCell id="d06oNdfRbxV0elXt2FFt-153" value="" style="endArrow=none;html=1;rounded=0;strokeWidth=2;" edge="1" parent="1" source="d06oNdfRbxV0elXt2FFt-170">
          <mxGeometry width="50" height="50" relative="1" as="geometry">
            <mxPoint x="1041" y="1070" as="sourcePoint" />
            <mxPoint x="1176" y="1092" as="targetPoint" />
            <Array as="points">
              <mxPoint x="1041" y="1090" />
            </Array>
          </mxGeometry>
        </mxCell>
        <mxCell id="d06oNdfRbxV0elXt2FFt-154" value="" style="endArrow=none;html=1;rounded=0;strokeWidth=2;" edge="1" parent="1">
          <mxGeometry width="50" height="50" relative="1" as="geometry">
            <mxPoint x="1001" y="1042.6399999999999" as="sourcePoint" />
            <mxPoint x="1041" y="1042.6399999999999" as="targetPoint" />
          </mxGeometry>
        </mxCell>
        <mxCell id="d06oNdfRbxV0elXt2FFt-155" value="" style="endArrow=none;html=1;rounded=0;strokeWidth=2;entryX=0.5;entryY=1;entryDx=0;entryDy=0;" edge="1" parent="1" target="d06oNdfRbxV0elXt2FFt-148">
          <mxGeometry width="50" height="50" relative="1" as="geometry">
            <mxPoint x="1181" y="1010" as="sourcePoint" />
            <mxPoint x="1141" y="950" as="targetPoint" />
            <Array as="points">
              <mxPoint x="1181" y="920" />
              <mxPoint x="1116" y="920" />
            </Array>
          </mxGeometry>
        </mxCell>
        <mxCell id="d06oNdfRbxV0elXt2FFt-156" value="" style="shape=waypoint;sketch=0;fillStyle=solid;size=6;pointerEvents=1;points=[];fillColor=none;resizable=0;rotatable=0;perimeter=centerPerimeter;snapToPoint=1;" vertex="1" parent="1">
          <mxGeometry x="1171.33" y="910" width="20" height="20" as="geometry" />
        </mxCell>
        <mxCell id="d06oNdfRbxV0elXt2FFt-157" value="" style="shape=waypoint;sketch=0;fillStyle=solid;size=6;pointerEvents=1;points=[];fillColor=none;resizable=0;rotatable=0;perimeter=centerPerimeter;snapToPoint=1;" vertex="1" parent="1">
          <mxGeometry x="1076" y="1002.5" width="20" height="20" as="geometry" />
        </mxCell>
        <mxCell id="d06oNdfRbxV0elXt2FFt-158" value="" style="ellipse;whiteSpace=wrap;html=1;aspect=fixed;strokeWidth=1;" vertex="1" parent="1">
          <mxGeometry x="1176.33" y="1052.5" width="10" height="10" as="geometry" />
        </mxCell>
        <mxCell id="d06oNdfRbxV0elXt2FFt-159" value="" style="ellipse;whiteSpace=wrap;html=1;aspect=fixed;strokeWidth=1;" vertex="1" parent="1">
          <mxGeometry x="1176.33" y="1022.5" width="10" height="10" as="geometry" />
        </mxCell>
        <mxCell id="d06oNdfRbxV0elXt2FFt-160" value="" style="endArrow=none;html=1;rounded=0;strokeWidth=2;" edge="1" parent="1">
          <mxGeometry width="50" height="50" relative="1" as="geometry">
            <mxPoint x="1181.33" y="1010" as="sourcePoint" />
            <mxPoint x="1181.1299999999999" y="1022.5" as="targetPoint" />
            <Array as="points" />
          </mxGeometry>
        </mxCell>
        <mxCell id="d06oNdfRbxV0elXt2FFt-161" value="" style="endArrow=none;html=1;rounded=0;strokeWidth=5;" edge="1" parent="1">
          <mxGeometry width="50" height="50" relative="1" as="geometry">
            <mxPoint x="1176" y="1022.5" as="sourcePoint" />
            <mxPoint x="1176" y="1062.5" as="targetPoint" />
          </mxGeometry>
        </mxCell>
        <mxCell id="d06oNdfRbxV0elXt2FFt-162" value="" style="endArrow=none;html=1;rounded=0;strokeWidth=2;" edge="1" parent="1">
          <mxGeometry width="50" height="50" relative="1" as="geometry">
            <mxPoint x="1266" y="870" as="sourcePoint" />
            <mxPoint x="1176" y="1040" as="targetPoint" />
            <Array as="points">
              <mxPoint x="1206" y="870" />
              <mxPoint x="1086" y="970" />
              <mxPoint x="1086" y="1040" />
            </Array>
          </mxGeometry>
        </mxCell>
        <mxCell id="d06oNdfRbxV0elXt2FFt-163" value="" style="ellipse;whiteSpace=wrap;html=1;aspect=fixed;strokeWidth=1;" vertex="1" parent="1">
          <mxGeometry x="1236" y="880" width="10" height="10" as="geometry" />
        </mxCell>
        <mxCell id="d06oNdfRbxV0elXt2FFt-164" value="" style="ellipse;whiteSpace=wrap;html=1;aspect=fixed;strokeWidth=1;" vertex="1" parent="1">
          <mxGeometry x="1236" y="850" width="10" height="10" as="geometry" />
        </mxCell>
        <mxCell id="d06oNdfRbxV0elXt2FFt-165" value="" style="endArrow=none;html=1;rounded=0;strokeWidth=5;" edge="1" parent="1">
          <mxGeometry width="50" height="50" relative="1" as="geometry">
            <mxPoint x="1266.1999999999998" y="850" as="sourcePoint" />
            <mxPoint x="1265.8" y="890" as="targetPoint" />
          </mxGeometry>
        </mxCell>
        <mxCell id="d06oNdfRbxV0elXt2FFt-166" value="" style="endArrow=none;html=1;rounded=0;strokeWidth=2;entryX=0.5;entryY=1;entryDx=0;entryDy=0;" edge="1" parent="1" target="d06oNdfRbxV0elXt2FFt-163">
          <mxGeometry width="50" height="50" relative="1" as="geometry">
            <mxPoint x="1181" y="920" as="sourcePoint" />
            <mxPoint x="1266" y="950" as="targetPoint" />
            <Array as="points">
              <mxPoint x="1241" y="920" />
            </Array>
          </mxGeometry>
        </mxCell>
        <mxCell id="d06oNdfRbxV0elXt2FFt-167" value="" style="endArrow=none;html=1;rounded=0;strokeWidth=2;entryX=0.5;entryY=0;entryDx=0;entryDy=0;" edge="1" parent="1" target="d06oNdfRbxV0elXt2FFt-164">
          <mxGeometry width="50" height="50" relative="1" as="geometry">
            <mxPoint x="1181" y="820" as="sourcePoint" />
            <mxPoint x="1201" y="820" as="targetPoint" />
            <Array as="points">
              <mxPoint x="1241" y="820" />
            </Array>
          </mxGeometry>
        </mxCell>
        <mxCell id="d06oNdfRbxV0elXt2FFt-168" value="" style="endArrow=none;html=1;rounded=0;strokeWidth=2;" edge="1" parent="1" target="d06oNdfRbxV0elXt2FFt-157">
          <mxGeometry width="50" height="50" relative="1" as="geometry">
            <mxPoint x="1001" y="1012" as="sourcePoint" />
            <mxPoint x="1081" y="1010" as="targetPoint" />
          </mxGeometry>
        </mxCell>
        <mxCell id="d06oNdfRbxV0elXt2FFt-169" value="" style="endArrow=none;html=1;rounded=0;strokeWidth=2;entryX=0.564;entryY=0.639;entryDx=0;entryDy=0;entryPerimeter=0;" edge="1" parent="1" target="d06oNdfRbxV0elXt2FFt-170">
          <mxGeometry width="50" height="50" relative="1" as="geometry">
            <mxPoint x="1141" y="870" as="sourcePoint" />
            <mxPoint x="1051" y="1000" as="targetPoint" />
            <Array as="points">
              <mxPoint x="1081" y="870" />
              <mxPoint x="1041" y="910" />
            </Array>
          </mxGeometry>
        </mxCell>
        <mxCell id="d06oNdfRbxV0elXt2FFt-170" value="" style="shape=waypoint;sketch=0;fillStyle=solid;size=6;pointerEvents=1;points=[];fillColor=none;resizable=0;rotatable=0;perimeter=centerPerimeter;snapToPoint=1;" vertex="1" parent="1">
          <mxGeometry x="1031" y="1032.5" width="20" height="20" as="geometry" />
        </mxCell>
        <mxCell id="d06oNdfRbxV0elXt2FFt-171" value="" style="endArrow=none;html=1;rounded=0;strokeWidth=2;" edge="1" parent="1">
          <mxGeometry width="50" height="50" relative="1" as="geometry">
            <mxPoint x="1181" y="980" as="sourcePoint" />
            <mxPoint x="1231" y="980" as="targetPoint" />
          </mxGeometry>
        </mxCell>
        <mxCell id="d06oNdfRbxV0elXt2FFt-172" value="" style="shape=waypoint;sketch=0;fillStyle=solid;size=6;pointerEvents=1;points=[];fillColor=none;resizable=0;rotatable=0;perimeter=centerPerimeter;snapToPoint=1;" vertex="1" parent="1">
          <mxGeometry x="1171.33" y="970" width="20" height="20" as="geometry" />
        </mxCell>
        <mxCell id="d06oNdfRbxV0elXt2FFt-173" value="" style="endArrow=none;html=1;rounded=0;strokeWidth=2;" edge="1" parent="1" source="d06oNdfRbxV0elXt2FFt-178">
          <mxGeometry width="50" height="50" relative="1" as="geometry">
            <mxPoint x="1607" y="781.65" as="sourcePoint" />
            <mxPoint x="1677" y="781.25" as="targetPoint" />
            <Array as="points">
              <mxPoint x="1670" y="781.25" />
            </Array>
          </mxGeometry>
        </mxCell>
        <mxCell id="d06oNdfRbxV0elXt2FFt-174" value="&lt;font style=&quot;font-size: 16px;&quot;&gt;V₀[V]&lt;/font&gt;" style="text;html=1;align=center;verticalAlign=middle;whiteSpace=wrap;rounded=0;" vertex="1" parent="1">
          <mxGeometry x="1547" y="761.25" width="60" height="30" as="geometry" />
        </mxCell>
        <mxCell id="d06oNdfRbxV0elXt2FFt-175" value="" style="pointerEvents=1;verticalLabelPosition=bottom;shadow=0;dashed=0;align=center;html=1;verticalAlign=top;shape=mxgraph.electrical.signal_sources.protective_earth;strokeWidth=2;" vertex="1" parent="1">
          <mxGeometry x="1628.5" y="1173.75" width="25" height="20" as="geometry" />
        </mxCell>
        <mxCell id="d06oNdfRbxV0elXt2FFt-176" value="&lt;div&gt;&lt;span style=&quot;font-size: 16px; background-color: transparent; color: light-dark(rgb(0, 0, 0), rgb(255, 255, 255));&quot;&gt;V&lt;/span&gt;&lt;sub style=&quot;background-color: transparent; color: light-dark(rgb(0, 0, 0), rgb(255, 255, 255));&quot;&gt;1in&lt;/sub&gt;&lt;span style=&quot;font-size: 16px; background-color: transparent; color: light-dark(rgb(0, 0, 0), rgb(255, 255, 255));&quot;&gt;&amp;nbsp;&quot;0&quot;&lt;/span&gt;&lt;/div&gt;" style="text;html=1;align=center;verticalAlign=middle;whiteSpace=wrap;rounded=0;" vertex="1" parent="1">
          <mxGeometry x="1390" y="998.75" width="90" height="30" as="geometry" />
        </mxCell>
        <mxCell id="d06oNdfRbxV0elXt2FFt-177" value="" style="endArrow=none;html=1;rounded=0;strokeWidth=2;" edge="1" parent="1" target="d06oNdfRbxV0elXt2FFt-178">
          <mxGeometry width="50" height="50" relative="1" as="geometry">
            <mxPoint x="1607" y="781.65" as="sourcePoint" />
            <mxPoint x="1677" y="781.25" as="targetPoint" />
          </mxGeometry>
        </mxCell>
        <mxCell id="d06oNdfRbxV0elXt2FFt-178" value="" style="shape=waypoint;sketch=0;fillStyle=solid;size=6;pointerEvents=1;points=[];fillColor=none;resizable=0;rotatable=0;perimeter=centerPerimeter;snapToPoint=1;" vertex="1" parent="1">
          <mxGeometry x="1636.33" y="771.25" width="20" height="20" as="geometry" />
        </mxCell>
        <mxCell id="d06oNdfRbxV0elXt2FFt-179" value="&lt;div&gt;&lt;span style=&quot;font-size: 16px;&quot;&gt;GND&lt;/span&gt;&lt;/div&gt;" style="text;html=1;align=center;verticalAlign=middle;whiteSpace=wrap;rounded=0;" vertex="1" parent="1">
          <mxGeometry x="1651.33" y="1173.75" width="62.5" height="30" as="geometry" />
        </mxCell>
        <mxCell id="d06oNdfRbxV0elXt2FFt-180" value="逆スイッチ" style="shape=callout;whiteSpace=wrap;html=1;perimeter=calloutPerimeter;rounded=1;position2=0;size=10;position=0.25;base=40;arcSize=23;" vertex="1" parent="1">
          <mxGeometry x="1660" y="1032.5" width="90" height="30" as="geometry" />
        </mxCell>
        <mxCell id="d06oNdfRbxV0elXt2FFt-181" value="順スイッチ" style="shape=callout;whiteSpace=wrap;html=1;perimeter=calloutPerimeter;rounded=1;position2=1;size=10;position=0.25;base=40;arcSize=23;direction=west;" vertex="1" parent="1">
          <mxGeometry x="1730" y="877.5" width="80" height="32.5" as="geometry" />
        </mxCell>
        <mxCell id="d06oNdfRbxV0elXt2FFt-182" value="&lt;div&gt;&lt;span style=&quot;font-size: 16px; background-color: transparent; color: light-dark(rgb(0, 0, 0), rgb(255, 255, 255));&quot;&gt;V&lt;/span&gt;&lt;sub style=&quot;background-color: transparent; color: light-dark(rgb(0, 0, 0), rgb(255, 255, 255));&quot;&gt;2in&lt;/sub&gt;&lt;span style=&quot;font-size: 16px; background-color: transparent; color: light-dark(rgb(0, 0, 0), rgb(255, 255, 255));&quot;&gt;&amp;nbsp;&quot;0&quot;&lt;/span&gt;&lt;/div&gt;" style="text;html=1;align=center;verticalAlign=middle;whiteSpace=wrap;rounded=0;" vertex="1" parent="1">
          <mxGeometry x="1390" y="1028.75" width="90" height="30" as="geometry" />
        </mxCell>
        <mxCell id="d06oNdfRbxV0elXt2FFt-183" value="" style="ellipse;whiteSpace=wrap;html=1;aspect=fixed;strokeWidth=1;" vertex="1" parent="1">
          <mxGeometry x="1636" y="1103.75" width="10" height="10" as="geometry" />
        </mxCell>
        <mxCell id="d06oNdfRbxV0elXt2FFt-184" value="" style="endArrow=none;html=1;rounded=0;strokeWidth=2;exitX=0.5;exitY=1;exitDx=0;exitDy=0;" edge="1" parent="1" source="d06oNdfRbxV0elXt2FFt-183">
          <mxGeometry width="50" height="50" relative="1" as="geometry">
            <mxPoint x="1641" y="1111.25" as="sourcePoint" />
            <mxPoint x="1641" y="1173.75" as="targetPoint" />
          </mxGeometry>
        </mxCell>
        <mxCell id="d06oNdfRbxV0elXt2FFt-185" value="" style="ellipse;whiteSpace=wrap;html=1;aspect=fixed;strokeWidth=1;" vertex="1" parent="1">
          <mxGeometry x="1636" y="1073.75" width="10" height="10" as="geometry" />
        </mxCell>
        <mxCell id="d06oNdfRbxV0elXt2FFt-186" value="" style="endArrow=none;html=1;rounded=0;strokeWidth=2;" edge="1" parent="1">
          <mxGeometry width="50" height="50" relative="1" as="geometry">
            <mxPoint x="1641" y="1061.25" as="sourcePoint" />
            <mxPoint x="1640.8" y="1073.75" as="targetPoint" />
            <Array as="points" />
          </mxGeometry>
        </mxCell>
        <mxCell id="d06oNdfRbxV0elXt2FFt-187" value="" style="ellipse;whiteSpace=wrap;html=1;aspect=fixed;strokeWidth=1;" vertex="1" parent="1">
          <mxGeometry x="1571" y="881.25" width="10" height="10" as="geometry" />
        </mxCell>
        <mxCell id="d06oNdfRbxV0elXt2FFt-188" value="" style="ellipse;whiteSpace=wrap;html=1;aspect=fixed;strokeWidth=1;" vertex="1" parent="1">
          <mxGeometry x="1571" y="851.25" width="10" height="10" as="geometry" />
        </mxCell>
        <mxCell id="d06oNdfRbxV0elXt2FFt-189" value="" style="endArrow=none;html=1;rounded=0;strokeWidth=2;entryX=0.5;entryY=0;entryDx=0;entryDy=0;" edge="1" parent="1" source="d06oNdfRbxV0elXt2FFt-178" target="d06oNdfRbxV0elXt2FFt-188">
          <mxGeometry width="50" height="50" relative="1" as="geometry">
            <mxPoint x="1570" y="881.25" as="sourcePoint" />
            <mxPoint x="1581" y="851.25" as="targetPoint" />
            <Array as="points">
              <mxPoint x="1646" y="821.25" />
              <mxPoint x="1576" y="821.25" />
            </Array>
          </mxGeometry>
        </mxCell>
        <mxCell id="d06oNdfRbxV0elXt2FFt-190" value="" style="endArrow=none;html=1;rounded=0;strokeWidth=5;" edge="1" parent="1">
          <mxGeometry width="50" height="50" relative="1" as="geometry">
            <mxPoint x="1645.8600000000001" y="1073.75" as="sourcePoint" />
            <mxPoint x="1645.8600000000001" y="1113.75" as="targetPoint" />
          </mxGeometry>
        </mxCell>
        <mxCell id="d06oNdfRbxV0elXt2FFt-191" value="" style="endArrow=none;html=1;rounded=0;strokeWidth=5;" edge="1" parent="1">
          <mxGeometry width="50" height="50" relative="1" as="geometry">
            <mxPoint x="1556.4" y="850" as="sourcePoint" />
            <mxPoint x="1556" y="890" as="targetPoint" />
          </mxGeometry>
        </mxCell>
        <mxCell id="d06oNdfRbxV0elXt2FFt-192" value="" style="endArrow=none;html=1;rounded=0;strokeWidth=2;" edge="1" parent="1" source="d06oNdfRbxV0elXt2FFt-209">
          <mxGeometry width="50" height="50" relative="1" as="geometry">
            <mxPoint x="1501" y="1071.25" as="sourcePoint" />
            <mxPoint x="1650" y="1093" as="targetPoint" />
            <Array as="points">
              <mxPoint x="1501" y="1091.25" />
            </Array>
          </mxGeometry>
        </mxCell>
        <mxCell id="d06oNdfRbxV0elXt2FFt-193" value="" style="endArrow=none;html=1;rounded=0;strokeWidth=2;" edge="1" parent="1">
          <mxGeometry width="50" height="50" relative="1" as="geometry">
            <mxPoint x="1461" y="1043.8899999999999" as="sourcePoint" />
            <mxPoint x="1501" y="1043.8899999999999" as="targetPoint" />
          </mxGeometry>
        </mxCell>
        <mxCell id="d06oNdfRbxV0elXt2FFt-194" value="" style="endArrow=none;html=1;rounded=0;strokeWidth=2;entryX=0.5;entryY=1;entryDx=0;entryDy=0;" edge="1" parent="1" target="d06oNdfRbxV0elXt2FFt-187">
          <mxGeometry width="50" height="50" relative="1" as="geometry">
            <mxPoint x="1641" y="1011.25" as="sourcePoint" />
            <mxPoint x="1601" y="951.25" as="targetPoint" />
            <Array as="points">
              <mxPoint x="1641" y="921.25" />
              <mxPoint x="1576" y="921.25" />
            </Array>
          </mxGeometry>
        </mxCell>
        <mxCell id="d06oNdfRbxV0elXt2FFt-195" value="" style="shape=waypoint;sketch=0;fillStyle=solid;size=6;pointerEvents=1;points=[];fillColor=none;resizable=0;rotatable=0;perimeter=centerPerimeter;snapToPoint=1;" vertex="1" parent="1">
          <mxGeometry x="1631.33" y="911.25" width="20" height="20" as="geometry" />
        </mxCell>
        <mxCell id="d06oNdfRbxV0elXt2FFt-196" value="" style="shape=waypoint;sketch=0;fillStyle=solid;size=6;pointerEvents=1;points=[];fillColor=none;resizable=0;rotatable=0;perimeter=centerPerimeter;snapToPoint=1;" vertex="1" parent="1">
          <mxGeometry x="1536" y="1003.75" width="20" height="20" as="geometry" />
        </mxCell>
        <mxCell id="d06oNdfRbxV0elXt2FFt-197" value="" style="ellipse;whiteSpace=wrap;html=1;aspect=fixed;strokeWidth=1;" vertex="1" parent="1">
          <mxGeometry x="1636.33" y="1053.75" width="10" height="10" as="geometry" />
        </mxCell>
        <mxCell id="d06oNdfRbxV0elXt2FFt-198" value="" style="ellipse;whiteSpace=wrap;html=1;aspect=fixed;strokeWidth=1;" vertex="1" parent="1">
          <mxGeometry x="1636.33" y="1023.75" width="10" height="10" as="geometry" />
        </mxCell>
        <mxCell id="d06oNdfRbxV0elXt2FFt-199" value="" style="endArrow=none;html=1;rounded=0;strokeWidth=2;" edge="1" parent="1">
          <mxGeometry width="50" height="50" relative="1" as="geometry">
            <mxPoint x="1641.33" y="1011.25" as="sourcePoint" />
            <mxPoint x="1641.1299999999999" y="1023.75" as="targetPoint" />
            <Array as="points" />
          </mxGeometry>
        </mxCell>
        <mxCell id="d06oNdfRbxV0elXt2FFt-200" value="" style="endArrow=none;html=1;rounded=0;strokeWidth=5;" edge="1" parent="1">
          <mxGeometry width="50" height="50" relative="1" as="geometry">
            <mxPoint x="1646.3300000000002" y="1023.75" as="sourcePoint" />
            <mxPoint x="1646.3300000000002" y="1063.75" as="targetPoint" />
          </mxGeometry>
        </mxCell>
        <mxCell id="d06oNdfRbxV0elXt2FFt-201" value="" style="endArrow=none;html=1;rounded=0;strokeWidth=2;" edge="1" parent="1">
          <mxGeometry width="50" height="50" relative="1" as="geometry">
            <mxPoint x="1680" y="870" as="sourcePoint" />
            <mxPoint x="1650" y="1040" as="targetPoint" />
            <Array as="points">
              <mxPoint x="1666" y="871.25" />
              <mxPoint x="1546" y="971.25" />
              <mxPoint x="1546" y="1041.25" />
            </Array>
          </mxGeometry>
        </mxCell>
        <mxCell id="d06oNdfRbxV0elXt2FFt-202" value="" style="ellipse;whiteSpace=wrap;html=1;aspect=fixed;strokeWidth=1;" vertex="1" parent="1">
          <mxGeometry x="1696" y="881.25" width="10" height="10" as="geometry" />
        </mxCell>
        <mxCell id="d06oNdfRbxV0elXt2FFt-203" value="" style="ellipse;whiteSpace=wrap;html=1;aspect=fixed;strokeWidth=1;" vertex="1" parent="1">
          <mxGeometry x="1696" y="851.25" width="10" height="10" as="geometry" />
        </mxCell>
        <mxCell id="d06oNdfRbxV0elXt2FFt-204" value="" style="endArrow=none;html=1;rounded=0;strokeWidth=5;" edge="1" parent="1">
          <mxGeometry width="50" height="50" relative="1" as="geometry">
            <mxPoint x="1682.7799999999997" y="850" as="sourcePoint" />
            <mxPoint x="1682.3799999999999" y="890" as="targetPoint" />
          </mxGeometry>
        </mxCell>
        <mxCell id="d06oNdfRbxV0elXt2FFt-205" value="" style="endArrow=none;html=1;rounded=0;strokeWidth=2;entryX=0.5;entryY=1;entryDx=0;entryDy=0;" edge="1" parent="1" target="d06oNdfRbxV0elXt2FFt-202">
          <mxGeometry width="50" height="50" relative="1" as="geometry">
            <mxPoint x="1641" y="921.25" as="sourcePoint" />
            <mxPoint x="1726" y="951.25" as="targetPoint" />
            <Array as="points">
              <mxPoint x="1701" y="921.25" />
            </Array>
          </mxGeometry>
        </mxCell>
        <mxCell id="d06oNdfRbxV0elXt2FFt-206" value="" style="endArrow=none;html=1;rounded=0;strokeWidth=2;entryX=0.5;entryY=0;entryDx=0;entryDy=0;" edge="1" parent="1" target="d06oNdfRbxV0elXt2FFt-203">
          <mxGeometry width="50" height="50" relative="1" as="geometry">
            <mxPoint x="1641" y="821.25" as="sourcePoint" />
            <mxPoint x="1661" y="821.25" as="targetPoint" />
            <Array as="points">
              <mxPoint x="1701" y="821.25" />
            </Array>
          </mxGeometry>
        </mxCell>
        <mxCell id="d06oNdfRbxV0elXt2FFt-207" value="" style="endArrow=none;html=1;rounded=0;strokeWidth=2;" edge="1" parent="1" target="d06oNdfRbxV0elXt2FFt-196">
          <mxGeometry width="50" height="50" relative="1" as="geometry">
            <mxPoint x="1461" y="1013.25" as="sourcePoint" />
            <mxPoint x="1541" y="1011.25" as="targetPoint" />
          </mxGeometry>
        </mxCell>
        <mxCell id="d06oNdfRbxV0elXt2FFt-208" value="" style="endArrow=none;html=1;rounded=0;strokeWidth=2;entryX=0.564;entryY=0.639;entryDx=0;entryDy=0;entryPerimeter=0;" edge="1" parent="1" target="d06oNdfRbxV0elXt2FFt-209">
          <mxGeometry width="50" height="50" relative="1" as="geometry">
            <mxPoint x="1560" y="870" as="sourcePoint" />
            <mxPoint x="1511" y="1001.25" as="targetPoint" />
            <Array as="points">
              <mxPoint x="1541" y="871.25" />
              <mxPoint x="1501" y="911.25" />
            </Array>
          </mxGeometry>
        </mxCell>
        <mxCell id="d06oNdfRbxV0elXt2FFt-209" value="" style="shape=waypoint;sketch=0;fillStyle=solid;size=6;pointerEvents=1;points=[];fillColor=none;resizable=0;rotatable=0;perimeter=centerPerimeter;snapToPoint=1;" vertex="1" parent="1">
          <mxGeometry x="1491" y="1033.75" width="20" height="20" as="geometry" />
        </mxCell>
        <mxCell id="d06oNdfRbxV0elXt2FFt-210" value="" style="endArrow=none;html=1;rounded=0;strokeWidth=2;" edge="1" parent="1">
          <mxGeometry width="50" height="50" relative="1" as="geometry">
            <mxPoint x="1641" y="981.25" as="sourcePoint" />
            <mxPoint x="1691" y="981.25" as="targetPoint" />
          </mxGeometry>
        </mxCell>
        <mxCell id="d06oNdfRbxV0elXt2FFt-211" value="" style="shape=waypoint;sketch=0;fillStyle=solid;size=6;pointerEvents=1;points=[];fillColor=none;resizable=0;rotatable=0;perimeter=centerPerimeter;snapToPoint=1;" vertex="1" parent="1">
          <mxGeometry x="1631.33" y="971.25" width="20" height="20" as="geometry" />
        </mxCell>
        <mxCell id="d06oNdfRbxV0elXt2FFt-212" value="&lt;div&gt;&lt;span style=&quot;font-size: 16px; background-color: transparent; color: light-dark(rgb(0, 0, 0), rgb(255, 255, 255));&quot;&gt;V&lt;/span&gt;&lt;sub style=&quot;background-color: transparent; color: light-dark(rgb(0, 0, 0), rgb(255, 255, 255));&quot;&gt;out&lt;/sub&gt;&lt;span style=&quot;font-size: 16px; background-color: transparent; color: light-dark(rgb(0, 0, 0), rgb(255, 255, 255));&quot;&gt;&amp;nbsp;&quot;1&quot;&lt;/span&gt;&lt;/div&gt;" style="text;html=1;align=center;verticalAlign=middle;whiteSpace=wrap;rounded=0;" vertex="1" parent="1">
          <mxGeometry x="790" y="985" width="90" height="30" as="geometry" />
        </mxCell>
        <mxCell id="d06oNdfRbxV0elXt2FFt-213" value="&lt;div&gt;&lt;span style=&quot;font-size: 16px; background-color: transparent; color: light-dark(rgb(0, 0, 0), rgb(255, 255, 255));&quot;&gt;V&lt;/span&gt;&lt;sub style=&quot;background-color: transparent; color: light-dark(rgb(0, 0, 0), rgb(255, 255, 255));&quot;&gt;out&lt;/sub&gt;&lt;span style=&quot;font-size: 16px; background-color: transparent; color: light-dark(rgb(0, 0, 0), rgb(255, 255, 255));&quot;&gt;&amp;nbsp;&quot;0&quot;&lt;/span&gt;&lt;/div&gt;" style="text;html=1;align=center;verticalAlign=middle;whiteSpace=wrap;rounded=0;" vertex="1" parent="1">
          <mxGeometry x="1241" y="965" width="90" height="30" as="geometry" />
        </mxCell>
        <mxCell id="d06oNdfRbxV0elXt2FFt-214" value="&lt;div&gt;&lt;span style=&quot;font-size: 16px; background-color: transparent; color: light-dark(rgb(0, 0, 0), rgb(255, 255, 255));&quot;&gt;V&lt;/span&gt;&lt;sub style=&quot;background-color: transparent; color: light-dark(rgb(0, 0, 0), rgb(255, 255, 255));&quot;&gt;out&lt;/sub&gt;&lt;span style=&quot;font-size: 16px; background-color: transparent; color: light-dark(rgb(0, 0, 0), rgb(255, 255, 255));&quot;&gt;&amp;nbsp;&quot;0&quot;&lt;/span&gt;&lt;/div&gt;" style="text;html=1;align=center;verticalAlign=middle;whiteSpace=wrap;rounded=0;" vertex="1" parent="1">
          <mxGeometry x="1696" y="965" width="90" height="30" as="geometry" />
        </mxCell>
        <mxCell id="d06oNdfRbxV0elXt2FFt-215" value="" style="endArrow=blockThin;startArrow=blockThin;html=1;rounded=0;strokeWidth=7;endFill=1;startFill=1;curved=1;strokeColor=#FF8000;" edge="1" parent="1">
          <mxGeometry width="50" height="50" relative="1" as="geometry">
            <mxPoint x="1280" y="505" as="sourcePoint" />
            <mxPoint x="1400" y="505" as="targetPoint" />
            <Array as="points">
              <mxPoint x="1300" y="562" />
              <mxPoint x="1340" y="582" />
              <mxPoint x="1380" y="562" />
            </Array>
          </mxGeometry>
        </mxCell>
        <mxCell id="d06oNdfRbxV0elXt2FFt-216" value="" style="rounded=0;whiteSpace=wrap;html=1;fillColor=#f5f5f5;fontColor=#333333;strokeColor=#666666;" vertex="1" parent="1">
          <mxGeometry x="661" y="50" width="30" height="140" as="geometry" />
        </mxCell>
        <mxCell id="d06oNdfRbxV0elXt2FFt-217" value="" style="verticalLabelPosition=bottom;shadow=0;dashed=0;align=center;html=1;verticalAlign=top;strokeWidth=1;shape=ellipse;perimeter=ellipsePerimeter;" vertex="1" parent="1">
          <mxGeometry x="671" y="40" width="10" height="10" as="geometry" />
        </mxCell>
        <mxCell id="d06oNdfRbxV0elXt2FFt-218" value="" style="endArrow=none;html=1;rounded=0;strokeWidth=2;exitX=0.5;exitY=0;exitDx=0;exitDy=0;" edge="1" parent="1">
          <mxGeometry width="50" height="50" relative="1" as="geometry">
            <mxPoint x="675.75" y="40" as="sourcePoint" />
            <mxPoint x="676" y="10" as="targetPoint" />
          </mxGeometry>
        </mxCell>
        <mxCell id="d06oNdfRbxV0elXt2FFt-219" value="&lt;font style=&quot;font-size: 16px;&quot;&gt;電極A&lt;/font&gt;" style="text;html=1;align=center;verticalAlign=middle;whiteSpace=wrap;rounded=0;" vertex="1" parent="1">
          <mxGeometry x="691.33" y="10" width="60" height="30" as="geometry" />
        </mxCell>
        <mxCell id="d06oNdfRbxV0elXt2FFt-220" value="&lt;font style=&quot;font-size: 16px;&quot;&gt;電極B&lt;/font&gt;" style="text;html=1;align=center;verticalAlign=middle;whiteSpace=wrap;rounded=0;" vertex="1" parent="1">
          <mxGeometry x="686.33" y="220" width="60" height="30" as="geometry" />
        </mxCell>
        <mxCell id="d06oNdfRbxV0elXt2FFt-221" value="" style="verticalLabelPosition=bottom;shadow=0;dashed=0;align=center;html=1;verticalAlign=top;strokeWidth=1;shape=ellipse;perimeter=ellipsePerimeter;" vertex="1" parent="1">
          <mxGeometry x="671" y="220" width="10" height="10" as="geometry" />
        </mxCell>
        <mxCell id="d06oNdfRbxV0elXt2FFt-222" value="" style="endArrow=none;html=1;rounded=0;strokeWidth=2;exitX=0;exitY=0.5;exitDx=0;exitDy=0;startArrow=blockThin;startFill=1;entryX=0;entryY=0.5;entryDx=0;entryDy=0;" edge="1" parent="1" source="d06oNdfRbxV0elXt2FFt-216" target="d06oNdfRbxV0elXt2FFt-221">
          <mxGeometry width="50" height="50" relative="1" as="geometry">
            <mxPoint x="730" y="90" as="sourcePoint" />
            <mxPoint x="730.25" y="60" as="targetPoint" />
            <Array as="points">
              <mxPoint x="620" y="120" />
              <mxPoint x="620" y="225" />
            </Array>
          </mxGeometry>
        </mxCell>
        <mxCell id="d06oNdfRbxV0elXt2FFt-223" value="" style="endArrow=none;html=1;rounded=0;strokeWidth=2;" edge="1" parent="1">
          <mxGeometry width="50" height="50" relative="1" as="geometry">
            <mxPoint x="676" y="280" as="sourcePoint" />
            <mxPoint x="676" y="230" as="targetPoint" />
          </mxGeometry>
        </mxCell>
        <mxCell id="d06oNdfRbxV0elXt2FFt-224" value="" style="endArrow=blockThin;html=1;rounded=0;strokeWidth=4;strokeColor=#FF8000;endFill=1;" edge="1" parent="1">
          <mxGeometry width="50" height="50" relative="1" as="geometry">
            <mxPoint x="601" y="110" as="sourcePoint" />
            <mxPoint x="600" y="60" as="targetPoint" />
          </mxGeometry>
        </mxCell>
        <mxCell id="d06oNdfRbxV0elXt2FFt-225" value="" style="endArrow=blockThin;html=1;rounded=0;strokeWidth=4;strokeColor=#FF8000;endFill=1;" edge="1" parent="1">
          <mxGeometry width="50" height="50" relative="1" as="geometry">
            <mxPoint x="600.75" y="140" as="sourcePoint" />
            <mxPoint x="601.25" y="190" as="targetPoint" />
          </mxGeometry>
        </mxCell>
        <mxCell id="d06oNdfRbxV0elXt2FFt-226" value="&lt;span style=&quot;font-size: 16px;&quot;&gt;抵抗体&lt;/span&gt;" style="text;html=1;align=center;verticalAlign=middle;whiteSpace=wrap;rounded=0;" vertex="1" parent="1">
          <mxGeometry x="700" y="90" width="60" height="30" as="geometry" />
        </mxCell>
        <mxCell id="d06oNdfRbxV0elXt2FFt-227" value="&lt;span style=&quot;font-size: 16px;&quot;&gt;端子&lt;/span&gt;" style="text;html=1;align=center;verticalAlign=middle;whiteSpace=wrap;rounded=0;" vertex="1" parent="1">
          <mxGeometry x="600" y="90" width="60" height="30" as="geometry" />
        </mxCell>
        <mxCell id="d06oNdfRbxV0elXt2FFt-228" value="" style="rounded=0;whiteSpace=wrap;html=1;fillColor=#f5f5f5;fontColor=#333333;strokeColor=#666666;" vertex="1" parent="1">
          <mxGeometry x="895.5" y="50" width="30" height="140" as="geometry" />
        </mxCell>
        <mxCell id="d06oNdfRbxV0elXt2FFt-229" value="" style="verticalLabelPosition=bottom;shadow=0;dashed=0;align=center;html=1;verticalAlign=top;strokeWidth=1;shape=ellipse;perimeter=ellipsePerimeter;" vertex="1" parent="1">
          <mxGeometry x="905.5" y="40" width="10" height="10" as="geometry" />
        </mxCell>
        <mxCell id="d06oNdfRbxV0elXt2FFt-230" value="" style="endArrow=none;html=1;rounded=0;strokeWidth=2;exitX=0.5;exitY=0;exitDx=0;exitDy=0;" edge="1" parent="1">
          <mxGeometry width="50" height="50" relative="1" as="geometry">
            <mxPoint x="910.25" y="40" as="sourcePoint" />
            <mxPoint x="910.5" y="10" as="targetPoint" />
          </mxGeometry>
        </mxCell>
        <mxCell id="d06oNdfRbxV0elXt2FFt-231" value="&lt;font style=&quot;font-size: 16px;&quot;&gt;電極A&lt;/font&gt;" style="text;html=1;align=center;verticalAlign=middle;whiteSpace=wrap;rounded=0;" vertex="1" parent="1">
          <mxGeometry x="925.83" y="10" width="60" height="30" as="geometry" />
        </mxCell>
        <mxCell id="d06oNdfRbxV0elXt2FFt-232" value="&lt;font style=&quot;font-size: 16px;&quot;&gt;電極B&lt;/font&gt;" style="text;html=1;align=center;verticalAlign=middle;whiteSpace=wrap;rounded=0;" vertex="1" parent="1">
          <mxGeometry x="920.83" y="220" width="60" height="30" as="geometry" />
        </mxCell>
        <mxCell id="d06oNdfRbxV0elXt2FFt-233" value="" style="verticalLabelPosition=bottom;shadow=0;dashed=0;align=center;html=1;verticalAlign=top;strokeWidth=1;shape=ellipse;perimeter=ellipsePerimeter;" vertex="1" parent="1">
          <mxGeometry x="905.5" y="220" width="10" height="10" as="geometry" />
        </mxCell>
        <mxCell id="d06oNdfRbxV0elXt2FFt-234" value="" style="endArrow=none;html=1;rounded=0;strokeWidth=2;startArrow=blockThin;startFill=1;entryX=0;entryY=0.5;entryDx=0;entryDy=0;" edge="1" parent="1" target="d06oNdfRbxV0elXt2FFt-233">
          <mxGeometry width="50" height="50" relative="1" as="geometry">
            <mxPoint x="890" y="70" as="sourcePoint" />
            <mxPoint x="964.75" y="60" as="targetPoint" />
            <Array as="points">
              <mxPoint x="855" y="70" />
              <mxPoint x="854.5" y="225" />
            </Array>
          </mxGeometry>
        </mxCell>
        <mxCell id="d06oNdfRbxV0elXt2FFt-235" value="" style="endArrow=none;html=1;rounded=0;strokeWidth=2;" edge="1" parent="1">
          <mxGeometry width="50" height="50" relative="1" as="geometry">
            <mxPoint x="910.5" y="280" as="sourcePoint" />
            <mxPoint x="910.5" y="230" as="targetPoint" />
          </mxGeometry>
        </mxCell>
        <mxCell id="d06oNdfRbxV0elXt2FFt-236" value="" style="endArrow=blockThin;html=1;rounded=0;strokeWidth=4;strokeColor=#FF8000;endFill=1;" edge="1" parent="1">
          <mxGeometry width="50" height="50" relative="1" as="geometry">
            <mxPoint x="835.5" y="140" as="sourcePoint" />
            <mxPoint x="834.5" y="90" as="targetPoint" />
          </mxGeometry>
        </mxCell>
        <mxCell id="d06oNdfRbxV0elXt2FFt-237" value="&lt;span style=&quot;font-size: 16px;&quot;&gt;抵抗体&lt;/span&gt;" style="text;html=1;align=center;verticalAlign=middle;whiteSpace=wrap;rounded=0;" vertex="1" parent="1">
          <mxGeometry x="934.5" y="90" width="60" height="30" as="geometry" />
        </mxCell>
        <mxCell id="d06oNdfRbxV0elXt2FFt-238" value="" style="rounded=0;whiteSpace=wrap;html=1;fillColor=#f5f5f5;fontColor=#333333;strokeColor=#666666;" vertex="1" parent="1">
          <mxGeometry x="1110.5" y="50" width="30" height="140" as="geometry" />
        </mxCell>
        <mxCell id="d06oNdfRbxV0elXt2FFt-239" value="" style="verticalLabelPosition=bottom;shadow=0;dashed=0;align=center;html=1;verticalAlign=top;strokeWidth=1;shape=ellipse;perimeter=ellipsePerimeter;" vertex="1" parent="1">
          <mxGeometry x="1120.5" y="40" width="10" height="10" as="geometry" />
        </mxCell>
        <mxCell id="d06oNdfRbxV0elXt2FFt-240" value="" style="endArrow=none;html=1;rounded=0;strokeWidth=2;exitX=0.5;exitY=0;exitDx=0;exitDy=0;" edge="1" parent="1">
          <mxGeometry width="50" height="50" relative="1" as="geometry">
            <mxPoint x="1125.25" y="40" as="sourcePoint" />
            <mxPoint x="1125.5" y="10" as="targetPoint" />
          </mxGeometry>
        </mxCell>
        <mxCell id="d06oNdfRbxV0elXt2FFt-241" value="&lt;font style=&quot;font-size: 16px;&quot;&gt;電極A&lt;/font&gt;" style="text;html=1;align=center;verticalAlign=middle;whiteSpace=wrap;rounded=0;" vertex="1" parent="1">
          <mxGeometry x="1140.83" y="10" width="60" height="30" as="geometry" />
        </mxCell>
        <mxCell id="d06oNdfRbxV0elXt2FFt-242" value="&lt;font style=&quot;font-size: 16px;&quot;&gt;電極B&lt;/font&gt;" style="text;html=1;align=center;verticalAlign=middle;whiteSpace=wrap;rounded=0;" vertex="1" parent="1">
          <mxGeometry x="1135.83" y="220" width="60" height="30" as="geometry" />
        </mxCell>
        <mxCell id="d06oNdfRbxV0elXt2FFt-243" value="" style="verticalLabelPosition=bottom;shadow=0;dashed=0;align=center;html=1;verticalAlign=top;strokeWidth=1;shape=ellipse;perimeter=ellipsePerimeter;" vertex="1" parent="1">
          <mxGeometry x="1120.5" y="220" width="10" height="10" as="geometry" />
        </mxCell>
        <mxCell id="d06oNdfRbxV0elXt2FFt-244" value="" style="endArrow=none;html=1;rounded=0;strokeWidth=2;startArrow=blockThin;startFill=1;entryX=0;entryY=0.5;entryDx=0;entryDy=0;" edge="1" parent="1" target="d06oNdfRbxV0elXt2FFt-243">
          <mxGeometry width="50" height="50" relative="1" as="geometry">
            <mxPoint x="1110" y="160" as="sourcePoint" />
            <mxPoint x="1179.75" y="60" as="targetPoint" />
            <Array as="points">
              <mxPoint x="1070" y="160" />
              <mxPoint x="1069.5" y="225" />
            </Array>
          </mxGeometry>
        </mxCell>
        <mxCell id="d06oNdfRbxV0elXt2FFt-245" value="" style="endArrow=none;html=1;rounded=0;strokeWidth=2;" edge="1" parent="1">
          <mxGeometry width="50" height="50" relative="1" as="geometry">
            <mxPoint x="1125.5" y="280" as="sourcePoint" />
            <mxPoint x="1125.5" y="230" as="targetPoint" />
          </mxGeometry>
        </mxCell>
        <mxCell id="d06oNdfRbxV0elXt2FFt-246" value="" style="endArrow=blockThin;html=1;rounded=0;strokeWidth=4;strokeColor=#FF8000;endFill=1;" edge="1" parent="1">
          <mxGeometry width="50" height="50" relative="1" as="geometry">
            <mxPoint x="1056.5" y="180" as="sourcePoint" />
            <mxPoint x="1057" y="230" as="targetPoint" />
          </mxGeometry>
        </mxCell>
        <mxCell id="d06oNdfRbxV0elXt2FFt-247" value="&lt;span style=&quot;font-size: 16px;&quot;&gt;抵抗体&lt;/span&gt;" style="text;html=1;align=center;verticalAlign=middle;whiteSpace=wrap;rounded=0;" vertex="1" parent="1">
          <mxGeometry x="1149.5" y="90" width="60" height="30" as="geometry" />
        </mxCell>
        <mxCell id="d06oNdfRbxV0elXt2FFt-248" value="" style="endArrow=none;html=1;rounded=0;strokeWidth=2;" edge="1" parent="1" source="d06oNdfRbxV0elXt2FFt-265">
          <mxGeometry width="50" height="50" relative="1" as="geometry">
            <mxPoint x="1480" y="130.39999999999998" as="sourcePoint" />
            <mxPoint x="1550" y="130" as="targetPoint" />
          </mxGeometry>
        </mxCell>
        <mxCell id="d06oNdfRbxV0elXt2FFt-249" value="&lt;font style=&quot;font-size: 16px;&quot;&gt;V₀[V]&lt;/font&gt;" style="text;html=1;align=center;verticalAlign=middle;whiteSpace=wrap;rounded=0;" vertex="1" parent="1">
          <mxGeometry x="1420" y="110" width="60" height="30" as="geometry" />
        </mxCell>
        <mxCell id="d06oNdfRbxV0elXt2FFt-251" value="" style="endArrow=none;html=1;rounded=0;strokeWidth=2;exitX=0.5;exitY=0;exitDx=0;exitDy=0;" edge="1" parent="1">
          <mxGeometry width="50" height="50" relative="1" as="geometry">
            <mxPoint x="1515" y="190" as="sourcePoint" />
            <mxPoint x="1515" y="130" as="targetPoint" />
          </mxGeometry>
        </mxCell>
        <mxCell id="d06oNdfRbxV0elXt2FFt-253" value="" style="endArrow=none;html=1;rounded=0;strokeWidth=2;" edge="1" parent="1">
          <mxGeometry width="50" height="50" relative="1" as="geometry">
            <mxPoint x="1580" y="260" as="sourcePoint" />
            <mxPoint x="1514.8" y="230" as="targetPoint" />
            <Array as="points">
              <mxPoint x="1515" y="260" />
            </Array>
          </mxGeometry>
        </mxCell>
        <mxCell id="d06oNdfRbxV0elXt2FFt-254" value="" style="ellipse;whiteSpace=wrap;html=1;aspect=fixed;strokeWidth=1;" vertex="1" parent="1">
          <mxGeometry x="1510" y="280" width="10" height="10" as="geometry" />
        </mxCell>
        <mxCell id="d06oNdfRbxV0elXt2FFt-255" value="" style="ellipse;whiteSpace=wrap;html=1;aspect=fixed;strokeWidth=1;" vertex="1" parent="1">
          <mxGeometry x="1510" y="310" width="10" height="10" as="geometry" />
        </mxCell>
        <mxCell id="d06oNdfRbxV0elXt2FFt-256" value="" style="endArrow=none;html=1;rounded=0;strokeWidth=2;entryX=0.5;entryY=1;entryDx=0;entryDy=0;" edge="1" parent="1" target="d06oNdfRbxV0elXt2FFt-255">
          <mxGeometry width="50" height="50" relative="1" as="geometry">
            <mxPoint x="1515" y="370" as="sourcePoint" />
            <mxPoint x="1514.8" y="320" as="targetPoint" />
          </mxGeometry>
        </mxCell>
        <mxCell id="d06oNdfRbxV0elXt2FFt-257" value="" style="pointerEvents=1;verticalLabelPosition=bottom;shadow=0;dashed=0;align=center;html=1;verticalAlign=top;shape=mxgraph.electrical.signal_sources.protective_earth;strokeWidth=2;" vertex="1" parent="1">
          <mxGeometry x="1502.5" y="370" width="25" height="20" as="geometry" />
        </mxCell>
        <mxCell id="d06oNdfRbxV0elXt2FFt-260" value="" style="endArrow=blockThin;html=1;rounded=0;strokeWidth=2;startArrow=blockThin;startFill=1;endFill=1;exitX=0;exitY=0.5;exitDx=0;exitDy=0;entryX=0;entryY=0.5;entryDx=0;entryDy=0;" edge="1" parent="1" source="d06oNdfRbxV0elXt2FFt-278" target="d06oNdfRbxV0elXt2FFt-281">
          <mxGeometry width="50" height="50" relative="1" as="geometry">
            <mxPoint x="1510" y="300" as="sourcePoint" />
            <mxPoint x="1490" y="210" as="targetPoint" />
            <Array as="points">
              <mxPoint x="1480" y="300" />
              <mxPoint x="1480" y="210" />
            </Array>
          </mxGeometry>
        </mxCell>
        <mxCell id="d06oNdfRbxV0elXt2FFt-261" value="" style="endArrow=none;html=1;rounded=0;strokeWidth=2;" edge="1" parent="1">
          <mxGeometry width="50" height="50" relative="1" as="geometry">
            <mxPoint x="1440" y="250" as="sourcePoint" />
            <mxPoint x="1480" y="250" as="targetPoint" />
          </mxGeometry>
        </mxCell>
        <mxCell id="d06oNdfRbxV0elXt2FFt-262" value="&lt;span style=&quot;font-size: 16px;&quot;&gt;V&lt;/span&gt;" style="text;html=1;align=center;verticalAlign=middle;whiteSpace=wrap;rounded=0;" vertex="1" parent="1">
          <mxGeometry x="1380" y="235" width="90" height="30" as="geometry" />
        </mxCell>
        <mxCell id="d06oNdfRbxV0elXt2FFt-263" value="" style="endArrow=none;html=1;rounded=0;strokeWidth=2;entryX=0.5;entryY=0;entryDx=0;entryDy=0;" edge="1" parent="1" target="d06oNdfRbxV0elXt2FFt-254">
          <mxGeometry width="50" height="50" relative="1" as="geometry">
            <mxPoint x="1515" y="260" as="sourcePoint" />
            <mxPoint x="1540" y="220" as="targetPoint" />
          </mxGeometry>
        </mxCell>
        <mxCell id="d06oNdfRbxV0elXt2FFt-264" value="" style="endArrow=none;html=1;rounded=0;strokeWidth=2;" edge="1" parent="1" target="d06oNdfRbxV0elXt2FFt-265">
          <mxGeometry width="50" height="50" relative="1" as="geometry">
            <mxPoint x="1480" y="130.39999999999998" as="sourcePoint" />
            <mxPoint x="1550" y="130" as="targetPoint" />
          </mxGeometry>
        </mxCell>
        <mxCell id="d06oNdfRbxV0elXt2FFt-265" value="" style="shape=waypoint;sketch=0;fillStyle=solid;size=6;pointerEvents=1;points=[];fillColor=none;resizable=0;rotatable=0;perimeter=centerPerimeter;snapToPoint=1;" vertex="1" parent="1">
          <mxGeometry x="1505" y="120" width="20" height="20" as="geometry" />
        </mxCell>
        <mxCell id="d06oNdfRbxV0elXt2FFt-266" value="" style="shape=waypoint;sketch=0;fillStyle=solid;size=6;pointerEvents=1;points=[];fillColor=none;resizable=0;rotatable=0;perimeter=centerPerimeter;snapToPoint=1;" vertex="1" parent="1">
          <mxGeometry x="1505" y="250" width="20" height="20" as="geometry" />
        </mxCell>
        <mxCell id="d06oNdfRbxV0elXt2FFt-267" value="" style="shape=waypoint;sketch=0;fillStyle=solid;size=6;pointerEvents=1;points=[];fillColor=none;resizable=0;rotatable=0;perimeter=centerPerimeter;snapToPoint=1;" vertex="1" parent="1">
          <mxGeometry x="1470" y="240" width="20" height="20" as="geometry" />
        </mxCell>
        <mxCell id="d06oNdfRbxV0elXt2FFt-268" value="&lt;div&gt;&lt;span style=&quot;font-size: 16px; background-color: transparent; color: light-dark(rgb(0, 0, 0), rgb(255, 255, 255));&quot;&gt;V&lt;/span&gt;&lt;sub style=&quot;background-color: transparent; color: light-dark(rgb(0, 0, 0), rgb(255, 255, 255));&quot;&gt;out&lt;/sub&gt;&lt;/div&gt;" style="text;html=1;align=center;verticalAlign=middle;whiteSpace=wrap;rounded=0;" vertex="1" parent="1">
          <mxGeometry x="1576" y="250" width="60" height="20" as="geometry" />
        </mxCell>
        <mxCell id="d06oNdfRbxV0elXt2FFt-269" value="&lt;div&gt;&lt;span style=&quot;font-size: 16px;&quot;&gt;GND&lt;/span&gt;&lt;/div&gt;" style="text;html=1;align=center;verticalAlign=middle;whiteSpace=wrap;rounded=0;" vertex="1" parent="1">
          <mxGeometry x="1520" y="365" width="62.5" height="30" as="geometry" />
        </mxCell>
        <mxCell id="d06oNdfRbxV0elXt2FFt-270" value="逆可変抵抗 R&lt;sub&gt;逆&lt;/sub&gt;[V]" style="shape=callout;whiteSpace=wrap;html=1;perimeter=calloutPerimeter;rounded=1;position2=0;size=10;position=0.25;base=40;arcSize=23;" vertex="1" parent="1">
          <mxGeometry x="1541.33" y="180" width="118.67" height="40" as="geometry" />
        </mxCell>
        <mxCell id="d06oNdfRbxV0elXt2FFt-271" value="順可変抵抗 R&lt;sub&gt;順&lt;/sub&gt;[V]" style="shape=callout;whiteSpace=wrap;html=1;perimeter=calloutPerimeter;rounded=1;position2=1;size=10;position=0.25;base=40;arcSize=23;direction=west;" vertex="1" parent="1">
          <mxGeometry x="1541.33" y="300" width="128.67" height="40" as="geometry" />
        </mxCell>
        <mxCell id="d06oNdfRbxV0elXt2FFt-275" value="" style="rounded=0;whiteSpace=wrap;html=1;" vertex="1" parent="1">
          <mxGeometry x="1506.25" y="190" width="17.5" height="40" as="geometry" />
        </mxCell>
        <mxCell id="d06oNdfRbxV0elXt2FFt-276" value="" style="endArrow=classic;html=1;rounded=0;" edge="1" parent="1">
          <mxGeometry width="50" height="50" relative="1" as="geometry">
            <mxPoint x="1498.5" y="225" as="sourcePoint" />
            <mxPoint x="1531.5" y="195" as="targetPoint" />
          </mxGeometry>
        </mxCell>
        <mxCell id="d06oNdfRbxV0elXt2FFt-278" value="" style="rounded=0;whiteSpace=wrap;html=1;" vertex="1" parent="1">
          <mxGeometry x="1506.25" y="280" width="17.5" height="40" as="geometry" />
        </mxCell>
        <mxCell id="d06oNdfRbxV0elXt2FFt-279" value="" style="endArrow=classic;html=1;rounded=0;" edge="1" parent="1">
          <mxGeometry width="50" height="50" relative="1" as="geometry">
            <mxPoint x="1498.5" y="315" as="sourcePoint" />
            <mxPoint x="1531.5" y="285" as="targetPoint" />
          </mxGeometry>
        </mxCell>
        <mxCell id="d06oNdfRbxV0elXt2FFt-281" value="" style="verticalLabelPosition=bottom;shadow=0;dashed=0;align=center;html=1;verticalAlign=top;strokeWidth=1;shape=ellipse;perimeter=ellipsePerimeter;" vertex="1" parent="1">
          <mxGeometry x="1496.25" y="205" width="10" height="10" as="geometry" />
        </mxCell>
        <mxCell id="d06oNdfRbxV0elXt2FFt-282" value="" style="rounded=0;whiteSpace=wrap;html=1;" vertex="1" parent="1">
          <mxGeometry x="1817.75" y="175" width="17.5" height="40" as="geometry" />
        </mxCell>
        <mxCell id="d06oNdfRbxV0elXt2FFt-283" value="" style="endArrow=classic;html=1;rounded=0;" edge="1" parent="1">
          <mxGeometry width="50" height="50" relative="1" as="geometry">
            <mxPoint x="1810" y="210" as="sourcePoint" />
            <mxPoint x="1843" y="180" as="targetPoint" />
          </mxGeometry>
        </mxCell>
        <mxCell id="d06oNdfRbxV0elXt2FFt-285" value="" style="verticalLabelPosition=bottom;shadow=0;dashed=0;align=center;html=1;verticalAlign=top;strokeWidth=1;shape=ellipse;perimeter=ellipsePerimeter;" vertex="1" parent="1">
          <mxGeometry x="1807.75" y="190" width="10" height="10" as="geometry" />
        </mxCell>
        <mxCell id="d06oNdfRbxV0elXt2FFt-290" value="" style="endArrow=none;html=1;rounded=0;strokeWidth=2;entryX=0.5;entryY=0;entryDx=0;entryDy=0;" edge="1" parent="1" target="d06oNdfRbxV0elXt2FFt-282">
          <mxGeometry width="50" height="50" relative="1" as="geometry">
            <mxPoint x="1827" y="150" as="sourcePoint" />
            <mxPoint x="1800" y="190" as="targetPoint" />
          </mxGeometry>
        </mxCell>
        <mxCell id="d06oNdfRbxV0elXt2FFt-291" value="" style="endArrow=none;html=1;rounded=0;strokeWidth=2;entryX=0.5;entryY=1;entryDx=0;entryDy=0;" edge="1" parent="1" target="d06oNdfRbxV0elXt2FFt-282">
          <mxGeometry width="50" height="50" relative="1" as="geometry">
            <mxPoint x="1827" y="240" as="sourcePoint" />
            <mxPoint x="1830" y="160" as="targetPoint" />
          </mxGeometry>
        </mxCell>
        <mxCell id="d06oNdfRbxV0elXt2FFt-292" value="" style="endArrow=none;html=1;rounded=0;" edge="1" parent="1">
          <mxGeometry width="50" height="50" relative="1" as="geometry">
            <mxPoint x="1790" y="150" as="sourcePoint" />
            <mxPoint x="1810" y="150" as="targetPoint" />
          </mxGeometry>
        </mxCell>
        <mxCell id="d06oNdfRbxV0elXt2FFt-293" value="" style="endArrow=none;html=1;rounded=0;" edge="1" parent="1">
          <mxGeometry width="50" height="50" relative="1" as="geometry">
            <mxPoint x="1790" y="240" as="sourcePoint" />
            <mxPoint x="1810" y="240" as="targetPoint" />
          </mxGeometry>
        </mxCell>
        <mxCell id="d06oNdfRbxV0elXt2FFt-295" value="" style="endArrow=classic;startArrow=classic;html=1;rounded=0;" edge="1" parent="1">
          <mxGeometry width="50" height="50" relative="1" as="geometry">
            <mxPoint x="1800" y="240" as="sourcePoint" />
            <mxPoint x="1800" y="150" as="targetPoint" />
          </mxGeometry>
        </mxCell>
        <mxCell id="d06oNdfRbxV0elXt2FFt-296" value="&lt;span style=&quot;font-size: 16px;&quot;&gt;V&lt;/span&gt;" style="text;html=1;align=center;verticalAlign=middle;whiteSpace=wrap;rounded=0;" vertex="1" parent="1">
          <mxGeometry x="1770" y="185" width="30" height="30" as="geometry" />
        </mxCell>
        <mxCell id="d06oNdfRbxV0elXt2FFt-297" value="" style="endArrow=classic;html=1;rounded=0;strokeWidth=2;" edge="1" parent="1">
          <mxGeometry width="50" height="50" relative="1" as="geometry">
            <mxPoint x="1860" y="170" as="sourcePoint" />
            <mxPoint x="1860" y="230" as="targetPoint" />
          </mxGeometry>
        </mxCell>
        <mxCell id="d06oNdfRbxV0elXt2FFt-298" value="&lt;span style=&quot;font-size: 16px;&quot;&gt;I&lt;/span&gt;" style="text;html=1;align=center;verticalAlign=middle;whiteSpace=wrap;rounded=0;" vertex="1" parent="1">
          <mxGeometry x="1860" y="180" width="30" height="30" as="geometry" />
        </mxCell>
        <mxCell id="d06oNdfRbxV0elXt2FFt-299" value="&lt;font style=&quot;color: rgb(255, 51, 51);&quot;&gt;逆可変抵抗 R&lt;sub&gt;逆&lt;/sub&gt;&lt;/font&gt;" style="text;html=1;align=center;verticalAlign=middle;whiteSpace=wrap;rounded=0;" vertex="1" parent="1">
          <mxGeometry x="1770" y="245" width="120" height="30" as="geometry" />
        </mxCell>
        <mxCell id="d06oNdfRbxV0elXt2FFt-300" value="" style="rounded=0;whiteSpace=wrap;html=1;" vertex="1" parent="1">
          <mxGeometry x="1817.75" y="315" width="17.5" height="40" as="geometry" />
        </mxCell>
        <mxCell id="d06oNdfRbxV0elXt2FFt-301" value="" style="endArrow=classic;html=1;rounded=0;" edge="1" parent="1">
          <mxGeometry width="50" height="50" relative="1" as="geometry">
            <mxPoint x="1810" y="350" as="sourcePoint" />
            <mxPoint x="1843" y="320" as="targetPoint" />
          </mxGeometry>
        </mxCell>
        <mxCell id="d06oNdfRbxV0elXt2FFt-303" value="" style="endArrow=none;html=1;rounded=0;strokeWidth=2;entryX=0.5;entryY=0;entryDx=0;entryDy=0;" edge="1" parent="1" target="d06oNdfRbxV0elXt2FFt-300">
          <mxGeometry width="50" height="50" relative="1" as="geometry">
            <mxPoint x="1827" y="290" as="sourcePoint" />
            <mxPoint x="1800" y="330" as="targetPoint" />
          </mxGeometry>
        </mxCell>
        <mxCell id="d06oNdfRbxV0elXt2FFt-304" value="" style="endArrow=none;html=1;rounded=0;strokeWidth=2;entryX=0.5;entryY=1;entryDx=0;entryDy=0;" edge="1" parent="1" target="d06oNdfRbxV0elXt2FFt-300">
          <mxGeometry width="50" height="50" relative="1" as="geometry">
            <mxPoint x="1827" y="380" as="sourcePoint" />
            <mxPoint x="1830" y="300" as="targetPoint" />
          </mxGeometry>
        </mxCell>
        <mxCell id="d06oNdfRbxV0elXt2FFt-305" value="" style="endArrow=none;html=1;rounded=0;" edge="1" parent="1">
          <mxGeometry width="50" height="50" relative="1" as="geometry">
            <mxPoint x="1790" y="290" as="sourcePoint" />
            <mxPoint x="1810" y="290" as="targetPoint" />
          </mxGeometry>
        </mxCell>
        <mxCell id="d06oNdfRbxV0elXt2FFt-306" value="" style="endArrow=none;html=1;rounded=0;" edge="1" parent="1">
          <mxGeometry width="50" height="50" relative="1" as="geometry">
            <mxPoint x="1790" y="380" as="sourcePoint" />
            <mxPoint x="1810" y="380" as="targetPoint" />
          </mxGeometry>
        </mxCell>
        <mxCell id="d06oNdfRbxV0elXt2FFt-307" value="" style="endArrow=classic;startArrow=classic;html=1;rounded=0;" edge="1" parent="1">
          <mxGeometry width="50" height="50" relative="1" as="geometry">
            <mxPoint x="1800" y="380" as="sourcePoint" />
            <mxPoint x="1800" y="290" as="targetPoint" />
          </mxGeometry>
        </mxCell>
        <mxCell id="d06oNdfRbxV0elXt2FFt-308" value="&lt;span style=&quot;font-size: 16px;&quot;&gt;V&lt;/span&gt;" style="text;html=1;align=center;verticalAlign=middle;whiteSpace=wrap;rounded=0;" vertex="1" parent="1">
          <mxGeometry x="1770" y="325" width="30" height="30" as="geometry" />
        </mxCell>
        <mxCell id="d06oNdfRbxV0elXt2FFt-309" value="" style="endArrow=classic;html=1;rounded=0;strokeWidth=2;" edge="1" parent="1">
          <mxGeometry width="50" height="50" relative="1" as="geometry">
            <mxPoint x="1860" y="310" as="sourcePoint" />
            <mxPoint x="1860" y="370" as="targetPoint" />
          </mxGeometry>
        </mxCell>
        <mxCell id="d06oNdfRbxV0elXt2FFt-310" value="&lt;span style=&quot;font-size: 16px;&quot;&gt;I&lt;/span&gt;" style="text;html=1;align=center;verticalAlign=middle;whiteSpace=wrap;rounded=0;" vertex="1" parent="1">
          <mxGeometry x="1860" y="320" width="30" height="30" as="geometry" />
        </mxCell>
        <mxCell id="d06oNdfRbxV0elXt2FFt-311" value="&lt;font style=&quot;color: rgb(51, 153, 255);&quot;&gt;順可変抵抗 R&lt;sub&gt;順&lt;/sub&gt;&lt;/font&gt;" style="text;html=1;align=center;verticalAlign=middle;whiteSpace=wrap;rounded=0;" vertex="1" parent="1">
          <mxGeometry x="1770" y="385" width="120" height="30" as="geometry" />
        </mxCell>
        <mxCell id="d06oNdfRbxV0elXt2FFt-312" value="" style="endArrow=blockThin;html=1;rounded=0;startArrow=none;startFill=0;endFill=1;" edge="1" parent="1">
          <mxGeometry width="50" height="50" relative="1" as="geometry">
            <mxPoint x="1950" y="250" as="sourcePoint" />
            <mxPoint x="1950" y="130" as="targetPoint" />
          </mxGeometry>
        </mxCell>
        <mxCell id="d06oNdfRbxV0elXt2FFt-313" value="" style="endArrow=none;html=1;rounded=0;endFill=0;startArrow=blockThin;startFill=1;" edge="1" parent="1">
          <mxGeometry width="50" height="50" relative="1" as="geometry">
            <mxPoint x="2150" y="250" as="sourcePoint" />
            <mxPoint x="1950" y="250" as="targetPoint" />
          </mxGeometry>
        </mxCell>
        <mxCell id="d06oNdfRbxV0elXt2FFt-314" value="&lt;span style=&quot;font-size: 16px;&quot;&gt;0&lt;/span&gt;" style="text;html=1;align=center;verticalAlign=middle;whiteSpace=wrap;rounded=0;" vertex="1" parent="1">
          <mxGeometry x="1920" y="240" width="30" height="30" as="geometry" />
        </mxCell>
        <mxCell id="d06oNdfRbxV0elXt2FFt-315" value="&lt;span style=&quot;font-size: 16px;&quot;&gt;&amp;nbsp;電圧V&lt;/span&gt;" style="text;html=1;align=center;verticalAlign=middle;whiteSpace=wrap;rounded=0;" vertex="1" parent="1">
          <mxGeometry x="2140" y="240" width="70" height="30" as="geometry" />
        </mxCell>
        <mxCell id="d06oNdfRbxV0elXt2FFt-316" value="&lt;span style=&quot;font-size: 16px;&quot;&gt;電流I&lt;/span&gt;" style="text;html=1;align=center;verticalAlign=middle;whiteSpace=wrap;rounded=0;" vertex="1" parent="1">
          <mxGeometry x="1920" y="100" width="70" height="30" as="geometry" />
        </mxCell>
        <mxCell id="d06oNdfRbxV0elXt2FFt-317" value="" style="endArrow=none;html=1;rounded=0;strokeWidth=2;strokeColor=#3399FF;" edge="1" parent="1">
          <mxGeometry width="50" height="50" relative="1" as="geometry">
            <mxPoint x="1950" y="250" as="sourcePoint" />
            <mxPoint x="2120" y="140" as="targetPoint" />
          </mxGeometry>
        </mxCell>
        <mxCell id="d06oNdfRbxV0elXt2FFt-318" value="" style="endArrow=none;dashed=1;html=1;dashPattern=1 3;strokeWidth=1;rounded=0;" edge="1" parent="1">
          <mxGeometry width="50" height="50" relative="1" as="geometry">
            <mxPoint x="2120" y="250" as="sourcePoint" />
            <mxPoint x="2120" y="140" as="targetPoint" />
          </mxGeometry>
        </mxCell>
        <mxCell id="d06oNdfRbxV0elXt2FFt-320" value="&lt;font style=&quot;font-size: 16px;&quot;&gt;V₀&lt;/font&gt;" style="text;html=1;align=center;verticalAlign=middle;whiteSpace=wrap;rounded=0;" vertex="1" parent="1">
          <mxGeometry x="2110" y="245" width="30" height="30" as="geometry" />
        </mxCell>
        <mxCell id="d06oNdfRbxV0elXt2FFt-321" value="&lt;div&gt;&lt;span style=&quot;font-size: 16px; background-color: transparent; color: light-dark(rgb(0, 0, 0), rgb(255, 255, 255));&quot;&gt;V&lt;/span&gt;&lt;sub style=&quot;background-color: transparent; color: light-dark(rgb(0, 0, 0), rgb(255, 255, 255));&quot;&gt;out&lt;/sub&gt;&lt;/div&gt;" style="text;html=1;align=center;verticalAlign=middle;whiteSpace=wrap;rounded=0;" vertex="1" parent="1">
          <mxGeometry x="1960" y="250" width="60" height="20" as="geometry" />
        </mxCell>
        <mxCell id="d06oNdfRbxV0elXt2FFt-323" value="&lt;span&gt;&lt;font style=&quot;color: rgb(255, 51, 51);&quot;&gt;R&lt;sub style=&quot;&quot;&gt;逆&lt;/sub&gt;&lt;/font&gt;&lt;/span&gt;" style="text;html=1;align=center;verticalAlign=middle;whiteSpace=wrap;rounded=0;" vertex="1" parent="1">
          <mxGeometry x="2050" y="210" width="30" height="30" as="geometry" />
        </mxCell>
        <mxCell id="d06oNdfRbxV0elXt2FFt-324" value="" style="endArrow=none;html=1;rounded=0;strokeWidth=2;strokeColor=#FF3333;" edge="1" parent="1">
          <mxGeometry width="50" height="50" relative="1" as="geometry">
            <mxPoint x="1950" y="220" as="sourcePoint" />
            <mxPoint x="2120" y="250" as="targetPoint" />
          </mxGeometry>
        </mxCell>
        <mxCell id="d06oNdfRbxV0elXt2FFt-326" value="" style="endArrow=none;dashed=1;html=1;dashPattern=1 3;strokeWidth=1;rounded=0;" edge="1" parent="1">
          <mxGeometry width="50" height="50" relative="1" as="geometry">
            <mxPoint x="1987" y="250" as="sourcePoint" />
            <mxPoint x="1987" y="226" as="targetPoint" />
          </mxGeometry>
        </mxCell>
        <mxCell id="d06oNdfRbxV0elXt2FFt-328" value="&lt;font style=&quot;color: rgb(51, 153, 255);&quot;&gt;R&lt;sub&gt;順&lt;/sub&gt;&lt;/font&gt;" style="text;html=1;align=center;verticalAlign=middle;whiteSpace=wrap;rounded=0;" vertex="1" parent="1">
          <mxGeometry x="2038" y="140" width="30" height="30" as="geometry" />
        </mxCell>
        <mxCell id="d06oNdfRbxV0elXt2FFt-329" value="" style="endArrow=blockThin;html=1;rounded=0;startArrow=none;startFill=0;endFill=1;" edge="1" parent="1">
          <mxGeometry width="50" height="50" relative="1" as="geometry">
            <mxPoint x="1950" y="430" as="sourcePoint" />
            <mxPoint x="1950" y="310" as="targetPoint" />
          </mxGeometry>
        </mxCell>
        <mxCell id="d06oNdfRbxV0elXt2FFt-330" value="" style="endArrow=none;html=1;rounded=0;endFill=0;startArrow=blockThin;startFill=1;" edge="1" parent="1">
          <mxGeometry width="50" height="50" relative="1" as="geometry">
            <mxPoint x="2150" y="430" as="sourcePoint" />
            <mxPoint x="1950" y="430" as="targetPoint" />
          </mxGeometry>
        </mxCell>
        <mxCell id="d06oNdfRbxV0elXt2FFt-331" value="&lt;span style=&quot;font-size: 16px;&quot;&gt;0&lt;/span&gt;" style="text;html=1;align=center;verticalAlign=middle;whiteSpace=wrap;rounded=0;" vertex="1" parent="1">
          <mxGeometry x="1920" y="420" width="30" height="30" as="geometry" />
        </mxCell>
        <mxCell id="d06oNdfRbxV0elXt2FFt-332" value="&lt;span style=&quot;font-size: 16px;&quot;&gt;&amp;nbsp;電圧V&lt;/span&gt;" style="text;html=1;align=center;verticalAlign=middle;whiteSpace=wrap;rounded=0;" vertex="1" parent="1">
          <mxGeometry x="2140" y="420" width="70" height="30" as="geometry" />
        </mxCell>
        <mxCell id="d06oNdfRbxV0elXt2FFt-333" value="&lt;span style=&quot;font-size: 16px;&quot;&gt;電流I&lt;/span&gt;" style="text;html=1;align=center;verticalAlign=middle;whiteSpace=wrap;rounded=0;" vertex="1" parent="1">
          <mxGeometry x="1920" y="280" width="70" height="30" as="geometry" />
        </mxCell>
        <mxCell id="d06oNdfRbxV0elXt2FFt-334" value="" style="endArrow=none;html=1;rounded=0;strokeWidth=2;strokeColor=#FF3333;" edge="1" parent="1">
          <mxGeometry width="50" height="50" relative="1" as="geometry">
            <mxPoint x="2120" y="430" as="sourcePoint" />
            <mxPoint x="1950" y="330" as="targetPoint" />
          </mxGeometry>
        </mxCell>
        <mxCell id="d06oNdfRbxV0elXt2FFt-335" value="" style="endArrow=none;dashed=1;html=1;dashPattern=1 3;strokeWidth=1;rounded=0;" edge="1" parent="1">
          <mxGeometry width="50" height="50" relative="1" as="geometry">
            <mxPoint x="2120" y="430" as="sourcePoint" />
            <mxPoint x="2120" y="320" as="targetPoint" />
          </mxGeometry>
        </mxCell>
        <mxCell id="d06oNdfRbxV0elXt2FFt-336" value="&lt;font style=&quot;font-size: 16px;&quot;&gt;V₀&lt;/font&gt;" style="text;html=1;align=center;verticalAlign=middle;whiteSpace=wrap;rounded=0;" vertex="1" parent="1">
          <mxGeometry x="2110" y="425" width="30" height="30" as="geometry" />
        </mxCell>
        <mxCell id="d06oNdfRbxV0elXt2FFt-337" value="&lt;div&gt;&lt;span style=&quot;font-size: 16px; background-color: transparent; color: light-dark(rgb(0, 0, 0), rgb(255, 255, 255));&quot;&gt;V&lt;/span&gt;&lt;sub style=&quot;background-color: transparent; color: light-dark(rgb(0, 0, 0), rgb(255, 255, 255));&quot;&gt;out&lt;/sub&gt;&lt;/div&gt;" style="text;html=1;align=center;verticalAlign=middle;whiteSpace=wrap;rounded=0;" vertex="1" parent="1">
          <mxGeometry x="2050" y="430" width="60" height="20" as="geometry" />
        </mxCell>
        <mxCell id="d06oNdfRbxV0elXt2FFt-338" value="&lt;font style=&quot;color: rgb(255, 51, 51);&quot;&gt;R&lt;sub&gt;逆&lt;/sub&gt;&lt;/font&gt;" style="text;html=1;align=center;verticalAlign=middle;whiteSpace=wrap;rounded=0;" vertex="1" parent="1">
          <mxGeometry x="2008" y="340" width="30" height="30" as="geometry" />
        </mxCell>
        <mxCell id="d06oNdfRbxV0elXt2FFt-339" value="" style="endArrow=none;html=1;rounded=0;strokeWidth=2;strokeColor=#3399FF;entryX=1;entryY=0.25;entryDx=0;entryDy=0;" edge="1" parent="1" target="d06oNdfRbxV0elXt2FFt-331">
          <mxGeometry width="50" height="50" relative="1" as="geometry">
            <mxPoint x="2120" y="400" as="sourcePoint" />
            <mxPoint x="2120" y="430" as="targetPoint" />
          </mxGeometry>
        </mxCell>
        <mxCell id="d06oNdfRbxV0elXt2FFt-340" value="" style="endArrow=none;dashed=1;html=1;dashPattern=1 3;strokeWidth=1;rounded=0;" edge="1" parent="1">
          <mxGeometry width="50" height="50" relative="1" as="geometry">
            <mxPoint x="2080" y="430" as="sourcePoint" />
            <mxPoint x="2080" y="406" as="targetPoint" />
          </mxGeometry>
        </mxCell>
        <mxCell id="d06oNdfRbxV0elXt2FFt-341" value="&lt;font style=&quot;color: rgb(51, 153, 255);&quot;&gt;R&lt;sub&gt;順&lt;/sub&gt;&lt;/font&gt;" style="text;html=1;align=center;verticalAlign=middle;whiteSpace=wrap;rounded=0;" vertex="1" parent="1">
          <mxGeometry x="2008" y="385" width="30" height="30" as="geometry" />
        </mxCell>
        <mxCell id="d06oNdfRbxV0elXt2FFt-352" value="" style="endArrow=none;html=1;rounded=0;strokeWidth=2;" edge="1" parent="1" source="d06oNdfRbxV0elXt2FFt-365">
          <mxGeometry width="50" height="50" relative="1" as="geometry">
            <mxPoint x="1450" y="-289.6" as="sourcePoint" />
            <mxPoint x="1520" y="-290" as="targetPoint" />
          </mxGeometry>
        </mxCell>
        <mxCell id="d06oNdfRbxV0elXt2FFt-353" value="&lt;font style=&quot;font-size: 16px;&quot;&gt;V₀[V]&lt;/font&gt;" style="text;html=1;align=center;verticalAlign=middle;whiteSpace=wrap;rounded=0;" vertex="1" parent="1">
          <mxGeometry x="1390" y="-310" width="60" height="30" as="geometry" />
        </mxCell>
        <mxCell id="d06oNdfRbxV0elXt2FFt-354" value="" style="endArrow=none;html=1;rounded=0;strokeWidth=2;exitX=0.5;exitY=0;exitDx=0;exitDy=0;" edge="1" parent="1">
          <mxGeometry width="50" height="50" relative="1" as="geometry">
            <mxPoint x="1485" y="-230" as="sourcePoint" />
            <mxPoint x="1485" y="-290" as="targetPoint" />
          </mxGeometry>
        </mxCell>
        <mxCell id="d06oNdfRbxV0elXt2FFt-355" value="" style="endArrow=none;html=1;rounded=0;strokeWidth=2;" edge="1" parent="1">
          <mxGeometry width="50" height="50" relative="1" as="geometry">
            <mxPoint x="1550" y="-160" as="sourcePoint" />
            <mxPoint x="1484.8" y="-190" as="targetPoint" />
            <Array as="points">
              <mxPoint x="1485" y="-160" />
            </Array>
          </mxGeometry>
        </mxCell>
        <mxCell id="d06oNdfRbxV0elXt2FFt-356" value="" style="ellipse;whiteSpace=wrap;html=1;aspect=fixed;strokeWidth=1;" vertex="1" parent="1">
          <mxGeometry x="1480" y="-140" width="10" height="10" as="geometry" />
        </mxCell>
        <mxCell id="d06oNdfRbxV0elXt2FFt-357" value="" style="ellipse;whiteSpace=wrap;html=1;aspect=fixed;strokeWidth=1;" vertex="1" parent="1">
          <mxGeometry x="1480" y="-110" width="10" height="10" as="geometry" />
        </mxCell>
        <mxCell id="d06oNdfRbxV0elXt2FFt-358" value="" style="endArrow=none;html=1;rounded=0;strokeWidth=2;entryX=0.5;entryY=1;entryDx=0;entryDy=0;" edge="1" parent="1" target="d06oNdfRbxV0elXt2FFt-357">
          <mxGeometry width="50" height="50" relative="1" as="geometry">
            <mxPoint x="1485" y="-50" as="sourcePoint" />
            <mxPoint x="1484.8" y="-100" as="targetPoint" />
          </mxGeometry>
        </mxCell>
        <mxCell id="d06oNdfRbxV0elXt2FFt-359" value="" style="pointerEvents=1;verticalLabelPosition=bottom;shadow=0;dashed=0;align=center;html=1;verticalAlign=top;shape=mxgraph.electrical.signal_sources.protective_earth;strokeWidth=2;" vertex="1" parent="1">
          <mxGeometry x="1472.5" y="-50" width="25" height="20" as="geometry" />
        </mxCell>
        <mxCell id="d06oNdfRbxV0elXt2FFt-360" value="" style="endArrow=blockThin;html=1;rounded=0;strokeWidth=2;startArrow=blockThin;startFill=1;endFill=1;exitX=0;exitY=0.5;exitDx=0;exitDy=0;entryX=0;entryY=0.5;entryDx=0;entryDy=0;" edge="1" parent="1" source="d06oNdfRbxV0elXt2FFt-374" target="d06oNdfRbxV0elXt2FFt-376">
          <mxGeometry width="50" height="50" relative="1" as="geometry">
            <mxPoint x="1480" y="-120" as="sourcePoint" />
            <mxPoint x="1460" y="-210" as="targetPoint" />
            <Array as="points">
              <mxPoint x="1450" y="-120" />
              <mxPoint x="1450" y="-210" />
            </Array>
          </mxGeometry>
        </mxCell>
        <mxCell id="d06oNdfRbxV0elXt2FFt-361" value="" style="endArrow=none;html=1;rounded=0;strokeWidth=2;" edge="1" parent="1">
          <mxGeometry width="50" height="50" relative="1" as="geometry">
            <mxPoint x="1410" y="-170" as="sourcePoint" />
            <mxPoint x="1450" y="-170" as="targetPoint" />
          </mxGeometry>
        </mxCell>
        <mxCell id="d06oNdfRbxV0elXt2FFt-362" value="&lt;span style=&quot;font-size: 16px;&quot;&gt;V&lt;/span&gt;" style="text;html=1;align=center;verticalAlign=middle;whiteSpace=wrap;rounded=0;" vertex="1" parent="1">
          <mxGeometry x="1350" y="-185" width="90" height="30" as="geometry" />
        </mxCell>
        <mxCell id="d06oNdfRbxV0elXt2FFt-363" value="" style="endArrow=none;html=1;rounded=0;strokeWidth=2;entryX=0.5;entryY=0;entryDx=0;entryDy=0;" edge="1" parent="1" target="d06oNdfRbxV0elXt2FFt-356">
          <mxGeometry width="50" height="50" relative="1" as="geometry">
            <mxPoint x="1485" y="-160" as="sourcePoint" />
            <mxPoint x="1510" y="-200" as="targetPoint" />
          </mxGeometry>
        </mxCell>
        <mxCell id="d06oNdfRbxV0elXt2FFt-364" value="" style="endArrow=none;html=1;rounded=0;strokeWidth=2;" edge="1" parent="1" target="d06oNdfRbxV0elXt2FFt-365">
          <mxGeometry width="50" height="50" relative="1" as="geometry">
            <mxPoint x="1450" y="-289.6" as="sourcePoint" />
            <mxPoint x="1520" y="-290" as="targetPoint" />
          </mxGeometry>
        </mxCell>
        <mxCell id="d06oNdfRbxV0elXt2FFt-365" value="" style="shape=waypoint;sketch=0;fillStyle=solid;size=6;pointerEvents=1;points=[];fillColor=none;resizable=0;rotatable=0;perimeter=centerPerimeter;snapToPoint=1;" vertex="1" parent="1">
          <mxGeometry x="1475" y="-300" width="20" height="20" as="geometry" />
        </mxCell>
        <mxCell id="d06oNdfRbxV0elXt2FFt-366" value="" style="shape=waypoint;sketch=0;fillStyle=solid;size=6;pointerEvents=1;points=[];fillColor=none;resizable=0;rotatable=0;perimeter=centerPerimeter;snapToPoint=1;" vertex="1" parent="1">
          <mxGeometry x="1475" y="-170" width="20" height="20" as="geometry" />
        </mxCell>
        <mxCell id="d06oNdfRbxV0elXt2FFt-367" value="" style="shape=waypoint;sketch=0;fillStyle=solid;size=6;pointerEvents=1;points=[];fillColor=none;resizable=0;rotatable=0;perimeter=centerPerimeter;snapToPoint=1;" vertex="1" parent="1">
          <mxGeometry x="1440" y="-180" width="20" height="20" as="geometry" />
        </mxCell>
        <mxCell id="d06oNdfRbxV0elXt2FFt-368" value="&lt;div&gt;&lt;span style=&quot;font-size: 16px; background-color: transparent; color: light-dark(rgb(0, 0, 0), rgb(255, 255, 255));&quot;&gt;V&lt;/span&gt;&lt;sub style=&quot;background-color: transparent; color: light-dark(rgb(0, 0, 0), rgb(255, 255, 255));&quot;&gt;out&lt;/sub&gt;&lt;/div&gt;" style="text;html=1;align=center;verticalAlign=middle;whiteSpace=wrap;rounded=0;" vertex="1" parent="1">
          <mxGeometry x="1546" y="-170" width="60" height="20" as="geometry" />
        </mxCell>
        <mxCell id="d06oNdfRbxV0elXt2FFt-369" value="&lt;div&gt;&lt;span style=&quot;font-size: 16px;&quot;&gt;GND&lt;/span&gt;&lt;/div&gt;" style="text;html=1;align=center;verticalAlign=middle;whiteSpace=wrap;rounded=0;" vertex="1" parent="1">
          <mxGeometry x="1490" y="-55" width="62.5" height="30" as="geometry" />
        </mxCell>
        <mxCell id="d06oNdfRbxV0elXt2FFt-370" value="逆可変抵抗 R&lt;sub&gt;逆&lt;/sub&gt;[V]" style="shape=callout;whiteSpace=wrap;html=1;perimeter=calloutPerimeter;rounded=1;position2=0;size=10;position=0.25;base=40;arcSize=23;" vertex="1" parent="1">
          <mxGeometry x="1511.33" y="-240" width="118.67" height="40" as="geometry" />
        </mxCell>
        <mxCell id="d06oNdfRbxV0elXt2FFt-371" value="順可変抵抗 R&lt;sub&gt;順&lt;/sub&gt;[V]" style="shape=callout;whiteSpace=wrap;html=1;perimeter=calloutPerimeter;rounded=1;position2=1;size=10;position=0.25;base=40;arcSize=23;direction=west;" vertex="1" parent="1">
          <mxGeometry x="1511.33" y="-120" width="128.67" height="40" as="geometry" />
        </mxCell>
        <mxCell id="d06oNdfRbxV0elXt2FFt-372" value="" style="rounded=0;whiteSpace=wrap;html=1;" vertex="1" parent="1">
          <mxGeometry x="1476.25" y="-230" width="17.5" height="40" as="geometry" />
        </mxCell>
        <mxCell id="d06oNdfRbxV0elXt2FFt-373" value="" style="endArrow=classic;html=1;rounded=0;" edge="1" parent="1">
          <mxGeometry width="50" height="50" relative="1" as="geometry">
            <mxPoint x="1468.5" y="-195" as="sourcePoint" />
            <mxPoint x="1501.5" y="-225" as="targetPoint" />
          </mxGeometry>
        </mxCell>
        <mxCell id="d06oNdfRbxV0elXt2FFt-374" value="" style="rounded=0;whiteSpace=wrap;html=1;" vertex="1" parent="1">
          <mxGeometry x="1476.25" y="-140" width="17.5" height="40" as="geometry" />
        </mxCell>
        <mxCell id="d06oNdfRbxV0elXt2FFt-375" value="" style="endArrow=classic;html=1;rounded=0;" edge="1" parent="1">
          <mxGeometry width="50" height="50" relative="1" as="geometry">
            <mxPoint x="1468.5" y="-105" as="sourcePoint" />
            <mxPoint x="1501.5" y="-135" as="targetPoint" />
          </mxGeometry>
        </mxCell>
        <mxCell id="d06oNdfRbxV0elXt2FFt-376" value="" style="verticalLabelPosition=bottom;shadow=0;dashed=0;align=center;html=1;verticalAlign=top;strokeWidth=1;shape=ellipse;perimeter=ellipsePerimeter;" vertex="1" parent="1">
          <mxGeometry x="1466.25" y="-215" width="10" height="10" as="geometry" />
        </mxCell>
        <mxCell id="d06oNdfRbxV0elXt2FFt-377" value="" style="rounded=0;whiteSpace=wrap;html=1;" vertex="1" parent="1">
          <mxGeometry x="1777.75" y="427.1" width="17.5" height="40" as="geometry" />
        </mxCell>
        <mxCell id="d06oNdfRbxV0elXt2FFt-378" value="" style="endArrow=classic;html=1;rounded=0;" edge="1" parent="1">
          <mxGeometry width="50" height="50" relative="1" as="geometry">
            <mxPoint x="1770" y="462.1" as="sourcePoint" />
            <mxPoint x="1803" y="432.1" as="targetPoint" />
          </mxGeometry>
        </mxCell>
        <mxCell id="d06oNdfRbxV0elXt2FFt-379" value="" style="endArrow=none;html=1;rounded=0;strokeWidth=2;entryX=0.5;entryY=0;entryDx=0;entryDy=0;" edge="1" parent="1" target="d06oNdfRbxV0elXt2FFt-377">
          <mxGeometry width="50" height="50" relative="1" as="geometry">
            <mxPoint x="1787" y="402.1" as="sourcePoint" />
            <mxPoint x="1760" y="442.1" as="targetPoint" />
          </mxGeometry>
        </mxCell>
        <mxCell id="d06oNdfRbxV0elXt2FFt-380" value="" style="endArrow=none;html=1;rounded=0;strokeWidth=2;entryX=0.5;entryY=1;entryDx=0;entryDy=0;" edge="1" parent="1" target="d06oNdfRbxV0elXt2FFt-377">
          <mxGeometry width="50" height="50" relative="1" as="geometry">
            <mxPoint x="1787" y="492.1" as="sourcePoint" />
            <mxPoint x="1790" y="412.1" as="targetPoint" />
          </mxGeometry>
        </mxCell>
        <mxCell id="d06oNdfRbxV0elXt2FFt-381" value="" style="endArrow=none;html=1;rounded=0;" edge="1" parent="1">
          <mxGeometry width="50" height="50" relative="1" as="geometry">
            <mxPoint x="1750" y="402.1" as="sourcePoint" />
            <mxPoint x="1770" y="402.1" as="targetPoint" />
          </mxGeometry>
        </mxCell>
        <mxCell id="d06oNdfRbxV0elXt2FFt-382" value="" style="endArrow=none;html=1;rounded=0;" edge="1" parent="1">
          <mxGeometry width="50" height="50" relative="1" as="geometry">
            <mxPoint x="1750" y="492.1" as="sourcePoint" />
            <mxPoint x="1770" y="492.1" as="targetPoint" />
          </mxGeometry>
        </mxCell>
        <mxCell id="d06oNdfRbxV0elXt2FFt-383" value="" style="endArrow=classic;startArrow=classic;html=1;rounded=0;" edge="1" parent="1">
          <mxGeometry width="50" height="50" relative="1" as="geometry">
            <mxPoint x="1760" y="492.1" as="sourcePoint" />
            <mxPoint x="1760" y="402.1" as="targetPoint" />
          </mxGeometry>
        </mxCell>
        <mxCell id="d06oNdfRbxV0elXt2FFt-384" value="&lt;span style=&quot;font-size: 16px;&quot;&gt;V&lt;/span&gt;" style="text;html=1;align=center;verticalAlign=middle;whiteSpace=wrap;rounded=0;" vertex="1" parent="1">
          <mxGeometry x="1730" y="437.1" width="30" height="30" as="geometry" />
        </mxCell>
        <mxCell id="d06oNdfRbxV0elXt2FFt-385" value="" style="endArrow=classic;html=1;rounded=0;strokeWidth=2;" edge="1" parent="1">
          <mxGeometry width="50" height="50" relative="1" as="geometry">
            <mxPoint x="1820" y="422.1" as="sourcePoint" />
            <mxPoint x="1820" y="482.1" as="targetPoint" />
          </mxGeometry>
        </mxCell>
        <mxCell id="d06oNdfRbxV0elXt2FFt-386" value="&lt;span style=&quot;font-size: 16px;&quot;&gt;I&lt;/span&gt;" style="text;html=1;align=center;verticalAlign=middle;whiteSpace=wrap;rounded=0;" vertex="1" parent="1">
          <mxGeometry x="1820" y="432.1" width="30" height="30" as="geometry" />
        </mxCell>
        <mxCell id="d06oNdfRbxV0elXt2FFt-387" value="" style="endArrow=blockThin;html=1;rounded=0;startArrow=none;startFill=0;endFill=1;" edge="1" parent="1">
          <mxGeometry width="50" height="50" relative="1" as="geometry">
            <mxPoint x="1950" y="50" as="sourcePoint" />
            <mxPoint x="1950" y="-70" as="targetPoint" />
          </mxGeometry>
        </mxCell>
        <mxCell id="d06oNdfRbxV0elXt2FFt-388" value="" style="endArrow=none;html=1;rounded=0;endFill=0;startArrow=blockThin;startFill=1;" edge="1" parent="1">
          <mxGeometry width="50" height="50" relative="1" as="geometry">
            <mxPoint x="2100" y="50" as="sourcePoint" />
            <mxPoint x="1950" y="50" as="targetPoint" />
          </mxGeometry>
        </mxCell>
        <mxCell id="d06oNdfRbxV0elXt2FFt-389" value="&lt;span style=&quot;font-size: 16px;&quot;&gt;0&lt;/span&gt;" style="text;html=1;align=center;verticalAlign=middle;whiteSpace=wrap;rounded=0;" vertex="1" parent="1">
          <mxGeometry x="1920" y="40" width="30" height="30" as="geometry" />
        </mxCell>
        <mxCell id="d06oNdfRbxV0elXt2FFt-390" value="&lt;span style=&quot;font-size: 16px;&quot;&gt;&amp;nbsp;電圧V&lt;/span&gt;" style="text;html=1;align=center;verticalAlign=middle;whiteSpace=wrap;rounded=0;" vertex="1" parent="1">
          <mxGeometry x="2090" y="40" width="70" height="30" as="geometry" />
        </mxCell>
        <mxCell id="d06oNdfRbxV0elXt2FFt-391" value="&lt;span style=&quot;font-size: 16px;&quot;&gt;電流I&lt;/span&gt;" style="text;html=1;align=center;verticalAlign=middle;whiteSpace=wrap;rounded=0;" vertex="1" parent="1">
          <mxGeometry x="1923" y="-100" width="70" height="30" as="geometry" />
        </mxCell>
        <mxCell id="d06oNdfRbxV0elXt2FFt-392" value="" style="endArrow=none;html=1;rounded=0;strokeWidth=2;strokeColor=#66CC00;" edge="1" parent="1">
          <mxGeometry width="50" height="50" relative="1" as="geometry">
            <mxPoint x="1950" y="50" as="sourcePoint" />
            <mxPoint x="2040" y="-70" as="targetPoint" />
          </mxGeometry>
        </mxCell>
        <mxCell id="d06oNdfRbxV0elXt2FFt-397" value="" style="endArrow=none;html=1;rounded=0;strokeWidth=2;strokeColor=#66CC00;" edge="1" parent="1">
          <mxGeometry width="50" height="50" relative="1" as="geometry">
            <mxPoint x="1950" y="50" as="sourcePoint" />
            <mxPoint x="2090" as="targetPoint" />
          </mxGeometry>
        </mxCell>
        <mxCell id="d06oNdfRbxV0elXt2FFt-400" value="" style="endArrow=blockThin;html=1;rounded=0;startArrow=none;startFill=0;endFill=1;" edge="1" parent="1">
          <mxGeometry width="50" height="50" relative="1" as="geometry">
            <mxPoint x="2200" y="50" as="sourcePoint" />
            <mxPoint x="2200" y="-70" as="targetPoint" />
          </mxGeometry>
        </mxCell>
        <mxCell id="d06oNdfRbxV0elXt2FFt-401" value="" style="endArrow=none;html=1;rounded=0;endFill=0;startArrow=blockThin;startFill=1;" edge="1" parent="1">
          <mxGeometry width="50" height="50" relative="1" as="geometry">
            <mxPoint x="2350" y="50" as="sourcePoint" />
            <mxPoint x="2200" y="50" as="targetPoint" />
          </mxGeometry>
        </mxCell>
        <mxCell id="d06oNdfRbxV0elXt2FFt-402" value="&lt;span style=&quot;font-size: 16px;&quot;&gt;0&lt;/span&gt;" style="text;html=1;align=center;verticalAlign=middle;whiteSpace=wrap;rounded=0;" vertex="1" parent="1">
          <mxGeometry x="2170" y="40" width="30" height="30" as="geometry" />
        </mxCell>
        <mxCell id="d06oNdfRbxV0elXt2FFt-403" value="&lt;span style=&quot;font-size: 16px;&quot;&gt;&amp;nbsp;電圧V&lt;/span&gt;" style="text;html=1;align=center;verticalAlign=middle;whiteSpace=wrap;rounded=0;" vertex="1" parent="1">
          <mxGeometry x="2340" y="40" width="70" height="30" as="geometry" />
        </mxCell>
        <mxCell id="d06oNdfRbxV0elXt2FFt-404" value="&lt;span style=&quot;font-size: 16px;&quot;&gt;電流I&lt;/span&gt;" style="text;html=1;align=center;verticalAlign=middle;whiteSpace=wrap;rounded=0;" vertex="1" parent="1">
          <mxGeometry x="2173" y="-100" width="70" height="30" as="geometry" />
        </mxCell>
        <mxCell id="d06oNdfRbxV0elXt2FFt-405" value="" style="endArrow=none;html=1;rounded=0;strokeWidth=2;strokeColor=#3399FF;" edge="1" parent="1">
          <mxGeometry width="50" height="50" relative="1" as="geometry">
            <mxPoint x="2200" y="50" as="sourcePoint" />
            <mxPoint x="2290" y="-70" as="targetPoint" />
          </mxGeometry>
        </mxCell>
        <mxCell id="d06oNdfRbxV0elXt2FFt-406" value="" style="endArrow=none;html=1;rounded=0;strokeWidth=2;strokeColor=#FF3333;" edge="1" parent="1">
          <mxGeometry width="50" height="50" relative="1" as="geometry">
            <mxPoint x="2200" y="50" as="sourcePoint" />
            <mxPoint x="2340" as="targetPoint" />
          </mxGeometry>
        </mxCell>
        <mxCell id="d06oNdfRbxV0elXt2FFt-408" value="" style="endArrow=none;html=1;rounded=0;strokeWidth=2;" edge="1" parent="1" source="d06oNdfRbxV0elXt2FFt-421">
          <mxGeometry width="50" height="50" relative="1" as="geometry">
            <mxPoint x="2470" y="200.39999999999998" as="sourcePoint" />
            <mxPoint x="2540" y="200" as="targetPoint" />
          </mxGeometry>
        </mxCell>
        <mxCell id="d06oNdfRbxV0elXt2FFt-409" value="&lt;font style=&quot;font-size: 16px;&quot;&gt;V₀&lt;/font&gt;" style="text;html=1;align=center;verticalAlign=middle;whiteSpace=wrap;rounded=0;" vertex="1" parent="1">
          <mxGeometry x="2410" y="180" width="60" height="30" as="geometry" />
        </mxCell>
        <mxCell id="d06oNdfRbxV0elXt2FFt-410" value="" style="endArrow=none;html=1;rounded=0;strokeWidth=2;exitX=0.5;exitY=0;exitDx=0;exitDy=0;" edge="1" parent="1">
          <mxGeometry width="50" height="50" relative="1" as="geometry">
            <mxPoint x="2505" y="260" as="sourcePoint" />
            <mxPoint x="2505" y="200" as="targetPoint" />
          </mxGeometry>
        </mxCell>
        <mxCell id="d06oNdfRbxV0elXt2FFt-412" value="" style="ellipse;whiteSpace=wrap;html=1;aspect=fixed;strokeWidth=1;" vertex="1" parent="1">
          <mxGeometry x="2492.5" y="490" width="10" height="10" as="geometry" />
        </mxCell>
        <mxCell id="d06oNdfRbxV0elXt2FFt-413" value="" style="ellipse;whiteSpace=wrap;html=1;aspect=fixed;strokeWidth=1;" vertex="1" parent="1">
          <mxGeometry x="2492.5" y="520" width="10" height="10" as="geometry" />
        </mxCell>
        <mxCell id="d06oNdfRbxV0elXt2FFt-414" value="" style="endArrow=none;html=1;rounded=0;strokeWidth=2;entryX=0.5;entryY=1;entryDx=0;entryDy=0;" edge="1" parent="1" target="d06oNdfRbxV0elXt2FFt-413">
          <mxGeometry width="50" height="50" relative="1" as="geometry">
            <mxPoint x="2497.5" y="580" as="sourcePoint" />
            <mxPoint x="2497.3" y="530" as="targetPoint" />
          </mxGeometry>
        </mxCell>
        <mxCell id="d06oNdfRbxV0elXt2FFt-415" value="" style="pointerEvents=1;verticalLabelPosition=bottom;shadow=0;dashed=0;align=center;html=1;verticalAlign=top;shape=mxgraph.electrical.signal_sources.protective_earth;strokeWidth=2;" vertex="1" parent="1">
          <mxGeometry x="2485" y="580" width="25" height="20" as="geometry" />
        </mxCell>
        <mxCell id="d06oNdfRbxV0elXt2FFt-420" value="" style="endArrow=none;html=1;rounded=0;strokeWidth=2;" edge="1" parent="1" target="d06oNdfRbxV0elXt2FFt-421">
          <mxGeometry width="50" height="50" relative="1" as="geometry">
            <mxPoint x="2470" y="200.39999999999998" as="sourcePoint" />
            <mxPoint x="2540" y="200" as="targetPoint" />
          </mxGeometry>
        </mxCell>
        <mxCell id="d06oNdfRbxV0elXt2FFt-421" value="" style="shape=waypoint;sketch=0;fillStyle=solid;size=6;pointerEvents=1;points=[];fillColor=none;resizable=0;rotatable=0;perimeter=centerPerimeter;snapToPoint=1;" vertex="1" parent="1">
          <mxGeometry x="2495" y="190" width="20" height="20" as="geometry" />
        </mxCell>
        <mxCell id="d06oNdfRbxV0elXt2FFt-424" value="&lt;div&gt;&lt;span style=&quot;font-size: 16px; background-color: transparent; color: light-dark(rgb(0, 0, 0), rgb(255, 255, 255));&quot;&gt;V&lt;/span&gt;&lt;sub style=&quot;background-color: transparent; color: light-dark(rgb(0, 0, 0), rgb(255, 255, 255));&quot;&gt;out&lt;/sub&gt;&lt;/div&gt;" style="text;html=1;align=center;verticalAlign=middle;whiteSpace=wrap;rounded=0;" vertex="1" parent="1">
          <mxGeometry x="2710" y="325" width="60" height="20" as="geometry" />
        </mxCell>
        <mxCell id="d06oNdfRbxV0elXt2FFt-425" value="&lt;div&gt;&lt;span style=&quot;font-size: 16px;&quot;&gt;GND&lt;/span&gt;&lt;/div&gt;" style="text;html=1;align=center;verticalAlign=middle;whiteSpace=wrap;rounded=0;" vertex="1" parent="1">
          <mxGeometry x="2502.5" y="575" width="62.5" height="30" as="geometry" />
        </mxCell>
        <mxCell id="d06oNdfRbxV0elXt2FFt-426" value="逆可変抵抗群" style="shape=callout;whiteSpace=wrap;html=1;perimeter=calloutPerimeter;rounded=1;position2=0;size=10;position=0.25;base=40;arcSize=23;" vertex="1" parent="1">
          <mxGeometry x="2630" y="60" width="100" height="40" as="geometry" />
        </mxCell>
        <mxCell id="d06oNdfRbxV0elXt2FFt-427" value="順可変抵抗群" style="shape=callout;whiteSpace=wrap;html=1;perimeter=calloutPerimeter;rounded=1;position2=1;size=10;position=0.25;base=40;arcSize=23;direction=west;" vertex="1" parent="1">
          <mxGeometry x="2270" y="450" width="100" height="40" as="geometry" />
        </mxCell>
        <mxCell id="d06oNdfRbxV0elXt2FFt-428" value="" style="rounded=0;whiteSpace=wrap;html=1;" vertex="1" parent="1">
          <mxGeometry x="2496.25" y="260" width="17.5" height="40" as="geometry" />
        </mxCell>
        <mxCell id="d06oNdfRbxV0elXt2FFt-429" value="" style="endArrow=classic;html=1;rounded=0;" edge="1" parent="1">
          <mxGeometry width="50" height="50" relative="1" as="geometry">
            <mxPoint x="2488.5" y="295" as="sourcePoint" />
            <mxPoint x="2521.5" y="265" as="targetPoint" />
          </mxGeometry>
        </mxCell>
        <mxCell id="d06oNdfRbxV0elXt2FFt-430" value="" style="rounded=0;whiteSpace=wrap;html=1;" vertex="1" parent="1">
          <mxGeometry x="2488.75" y="490" width="17.5" height="40" as="geometry" />
        </mxCell>
        <mxCell id="d06oNdfRbxV0elXt2FFt-431" value="" style="endArrow=classic;html=1;rounded=0;" edge="1" parent="1">
          <mxGeometry width="50" height="50" relative="1" as="geometry">
            <mxPoint x="2481" y="525" as="sourcePoint" />
            <mxPoint x="2514" y="495" as="targetPoint" />
          </mxGeometry>
        </mxCell>
        <mxCell id="d06oNdfRbxV0elXt2FFt-432" value="" style="verticalLabelPosition=bottom;shadow=0;dashed=0;align=center;html=1;verticalAlign=top;strokeWidth=1;shape=ellipse;perimeter=ellipsePerimeter;" vertex="1" parent="1">
          <mxGeometry x="2486.25" y="275" width="10" height="10" as="geometry" />
        </mxCell>
        <mxCell id="d06oNdfRbxV0elXt2FFt-434" value="" style="rounded=0;whiteSpace=wrap;html=1;" vertex="1" parent="1">
          <mxGeometry x="2496.25" y="330" width="17.5" height="40" as="geometry" />
        </mxCell>
        <mxCell id="d06oNdfRbxV0elXt2FFt-435" value="" style="endArrow=classic;html=1;rounded=0;" edge="1" parent="1">
          <mxGeometry width="50" height="50" relative="1" as="geometry">
            <mxPoint x="2488.5" y="365" as="sourcePoint" />
            <mxPoint x="2521.5" y="335" as="targetPoint" />
          </mxGeometry>
        </mxCell>
        <mxCell id="d06oNdfRbxV0elXt2FFt-436" value="" style="verticalLabelPosition=bottom;shadow=0;dashed=0;align=center;html=1;verticalAlign=top;strokeWidth=1;shape=ellipse;perimeter=ellipsePerimeter;" vertex="1" parent="1">
          <mxGeometry x="2486.25" y="345" width="10" height="10" as="geometry" />
        </mxCell>
        <mxCell id="d06oNdfRbxV0elXt2FFt-437" value="" style="rounded=0;whiteSpace=wrap;html=1;" vertex="1" parent="1">
          <mxGeometry x="2620" y="295" width="17.5" height="40" as="geometry" />
        </mxCell>
        <mxCell id="d06oNdfRbxV0elXt2FFt-438" value="" style="endArrow=classic;html=1;rounded=0;" edge="1" parent="1">
          <mxGeometry width="50" height="50" relative="1" as="geometry">
            <mxPoint x="2612.25" y="330" as="sourcePoint" />
            <mxPoint x="2645.25" y="300" as="targetPoint" />
          </mxGeometry>
        </mxCell>
        <mxCell id="d06oNdfRbxV0elXt2FFt-439" value="" style="verticalLabelPosition=bottom;shadow=0;dashed=0;align=center;html=1;verticalAlign=top;strokeWidth=1;shape=ellipse;perimeter=ellipsePerimeter;" vertex="1" parent="1">
          <mxGeometry x="2610" y="310" width="10" height="10" as="geometry" />
        </mxCell>
      </root>
    </mxGraphModel>
  </diagram>
</mxfile>
